<?xml version="1.0" encoding="UTF-8" standalone="no"?>
<svg width="87px" height="23px" viewBox="0 0 87 23" version="1.1" xmlns="http://www.w3.org/2000/svg" xmlns:xlink="http://www.w3.org/1999/xlink">
    <!-- Generator: Sketch 49.3 (51167) - http://www.bohemiancoding.com/sketch -->
    <title>extrategy</title>
    <desc>Created with Sketch.</desc>
    <defs></defs>
    <g id="Page-1" stroke="none" stroke-width="1" fill="none" fill-rule="evenodd">
        <g id="extrategy" fill-rule="nonzero">
            <g id="Group">
                <g id="Shape">
                    <polygon fill="#FFFFFF" points="19.3005634 2.91455357 16.2976056 2.91455357 10.2333803 12.8063718 13.2071831 12.8063718"></polygon>
                    <path d="M8.92140845,11.5993344 C8.36746479,12.0998133 7.05549296,13.0713312 5.04380282,13.0713312 C4.40239437,13.0713312 2.8571831,12.9830114 1.54521127,11.7465341 C0.437323944,10.6866964 0.0291549296,9.30301948 0.0291549296,7.77214286 C0.0291549296,6.94782468 0.145774648,6.15294643 0.466478873,5.38750812 C0.903802817,4.38655032 2.09915493,2.59071429 4.95633803,2.59071429 C7.14295775,2.59071429 8.30915493,3.73887175 8.80478873,4.50431006 C9.24211268,5.21086851 9.70859155,6.41790584 9.76690141,8.33150162 L2.47816901,8.33150162 C2.50732394,8.62590097 2.62394366,9.24413961 3.11957746,9.83293831 C3.44028169,10.2450974 4.05253521,10.7750162 5.24788732,10.7750162 C6.47239437,10.7750162 7.17211268,10.1862175 7.4928169,9.86237825 C7.58028169,9.77405844 7.69690141,9.62685877 7.81352113,9.42077922 L9.82521127,10.5983766 C9.65028169,10.8044562 9.38788732,11.1871753 8.92140845,11.5993344 M6.96802817,5.77022727 C6.76394366,5.29918831 6.23915493,4.50431006 4.95633803,4.50431006 C4.46070423,4.50431006 4.16915493,4.59262987 3.96507042,4.68094968 C2.8571831,5.1225487 2.62394366,6.24126623 2.5656338,6.59454545 L7.14295775,6.59454545 C7.14295775,6.59454545 7.08464789,6.12350649 6.96802817,5.77022727" fill="#FFFFFF"></path>
                    <path d="M24.84,12.8946916 C23.5571831,12.8946916 22.8866197,12.5708523 22.4784507,12.0998133 C22.2743662,11.8642938 22.2160563,11.6287744 22.1869014,11.5110146 C22.0994366,11.1871753 22.0702817,10.5100568 22.0702817,9.62685877 L22.0702817,4.59262987 L20.6416901,4.59262987 L20.6416901,2.91455357 L22.0702817,2.91455357 L22.0702817,0.17663961 L24.431831,0.17663961 L24.431831,2.91455357 L26.5309859,2.91455357 L26.5309859,4.59262987 L24.431831,4.59262987 L24.431831,9.09693994 C24.431831,9.47965909 24.3735211,10.2450974 24.6650704,10.5689367 C24.9274648,10.892776 25.5105634,10.863336 25.5688732,10.863336 C25.8895775,10.863336 26.2394366,10.8338961 26.5309859,10.7455763 L26.5309859,12.7474919 C26.2102817,12.7474919 25.6271831,12.8946916 24.84,12.8946916" fill="#FFFFFF"></path>
                    <path d="M30.9916901,6.94782468 C30.8167606,7.50718344 30.8167606,8.00766234 30.8167606,8.5670211 L30.8167606,12.8063718 L28.5426761,12.8063718 L28.5426761,2.91455357 L30.8167606,2.91455357 L30.8167606,4.32767045 C30.9625352,4.0332711 31.1666197,3.73887175 31.3998592,3.50335227 C32.1870423,2.73791396 33.4698592,2.67903409 33.7322535,2.67903409 L33.936338,2.67903409 L33.936338,5.1225487 C33.4407042,5.1225487 31.5456338,5.1225487 30.9916901,6.94782468" fill="#FFFFFF"></path>
                    <path d="M41.2542254,12.8063718 L41.1959155,12.0409334 C40.8169014,12.3647727 40.4961972,12.5119724 40.2921127,12.6002922 C39.6507042,12.8946916 39.0384507,13.0418912 38.3095775,13.0418912 C37.8430986,13.0418912 36.0646479,12.9830114 35.1608451,11.5110146 C35.0150704,11.2460552 34.7235211,10.7161364 34.7235211,9.92125812 C34.7235211,9.36189935 34.8692958,8.27262175 36.0646479,7.44830357 C36.8809859,6.88894481 37.6390141,6.77118506 38.5428169,6.59454545 C40.0005634,6.3001461 40.5253521,6.18238636 41.2542254,5.91742695 C41.2542254,5.65246753 41.2250704,5.32862825 41.1084507,5.09310877 C40.9043662,4.71038961 40.4087324,4.41599026 39.5632394,4.41599026 C38.6594366,4.41599026 38.105493,4.68094968 37.8430986,5.0342289 C37.5807042,5.35806818 37.5807042,5.77022727 37.5807042,5.91742695 L35.19,5.77022727 C35.2191549,5.32862825 35.2774648,4.29823052 36.2395775,3.50335227 C36.851831,3.00287338 37.7556338,2.59071429 39.4757746,2.59071429 C41.0792958,2.59071429 42.0122535,2.91455357 42.624507,3.3561526 C43.0326761,3.65055195 43.2659155,4.00383117 43.3242254,4.15103084 C43.5866197,4.65150974 43.5866197,5.35806818 43.5866197,5.91742695 L43.5866197,11.1871753 C43.5866197,11.9526136 43.6157746,12.1586932 44.0239437,12.7769318 L41.2542254,12.7769318 L41.2542254,12.8063718 Z M41.2542254,7.86046266 C40.8752113,8.06654221 40.3504225,8.24318182 39.3883099,8.41982143 C38.8635211,8.50814123 38.2804225,8.53758117 37.8139437,8.83198052 C37.4932394,9.03806006 37.2308451,9.39133929 37.2308451,9.83293831 C37.2308451,10.421737 37.668169,11.0105357 38.8343662,11.0105357 C40.1171831,11.0105357 40.9043662,10.3334172 41.1084507,9.89181818 C41.2542254,9.5679789 41.2542254,9.30301948 41.2542254,8.97918019 L41.2542254,7.86046266 Z" fill="#FFFFFF"></path>
                    <path d="M49.1260563,12.8946916 C47.8432394,12.8946916 47.1726761,12.5708523 46.764507,12.0998133 C46.5604225,11.8642938 46.5021127,11.6287744 46.4729577,11.5110146 C46.385493,11.1871753 46.356338,10.5100568 46.356338,9.62685877 L46.356338,4.59262987 L44.9277465,4.59262987 L44.9277465,2.91455357 L46.356338,2.91455357 L46.356338,0.17663961 L48.7178873,0.17663961 L48.7178873,2.91455357 L50.8170423,2.91455357 L50.8170423,4.59262987 L48.7178873,4.59262987 L48.7178873,9.09693994 C48.7178873,9.47965909 48.6595775,10.2450974 48.9511268,10.5689367 C49.2135211,10.892776 49.7966197,10.863336 49.8549296,10.863336 C50.1756338,10.863336 50.525493,10.8338961 50.8170423,10.7455763 L50.8170423,12.7474919 C50.496338,12.7474919 49.9132394,12.8946916 49.1260563,12.8946916" fill="#FFFFFF"></path>
                    <path d="M60.5839437,11.5993344 C60.03,12.0998133 58.7180282,13.0713312 56.706338,13.0713312 C56.0649296,13.0713312 54.5197183,12.9830114 53.2077465,11.7465341 C52.0998592,10.6866964 51.6916901,9.30301948 51.6916901,7.77214286 C51.6916901,6.94782468 51.8083099,6.15294643 52.1290141,5.38750812 C52.566338,4.38655032 53.7616901,2.59071429 56.6188732,2.59071429 C58.805493,2.59071429 59.9716901,3.73887175 60.4673239,4.50431006 C60.9046479,5.21086851 61.3711268,6.41790584 61.4294366,8.33150162 L54.1698592,8.33150162 C54.1990141,8.62590097 54.3156338,9.24413961 54.8112676,9.83293831 C55.1319718,10.2450974 55.7442254,10.7750162 56.9395775,10.7750162 C58.1640845,10.7750162 58.8638028,10.1862175 59.184507,9.86237825 C59.2719718,9.77405844 59.3885915,9.62685877 59.5052113,9.42077922 L61.5169014,10.5983766 C61.3128169,10.8044562 61.0504225,11.1871753 60.5839437,11.5993344 M58.6014085,5.77022727 C58.3973239,5.29918831 57.8725352,4.50431006 56.5897183,4.50431006 C56.0940845,4.50431006 55.8025352,4.59262987 55.5984507,4.68094968 C54.4905634,5.1225487 54.2573239,6.24126623 54.1990141,6.59454545 L58.776338,6.59454545 C58.805493,6.59454545 58.7471831,6.12350649 58.6014085,5.77022727" fill="#FFFFFF"></path>
                    <path d="M71.5753521,14.6022078 C70.9630986,15.426526 69.6802817,16.1036445 67.464507,16.1036445 C65.2778873,16.1036445 64.1991549,15.4854058 63.5869014,14.6316477 C63.353662,14.2783685 63.1787324,13.8662094 62.9746479,13.0124513 L65.5694366,13.0418912 C65.6277465,13.2479708 65.6569014,13.3657305 65.8026761,13.5423701 C66.2983099,14.3078084 67.3770423,14.2783685 67.5811268,14.2783685 C68.7473239,14.2783685 69.3595775,13.8367695 69.6219718,13.3362906 C69.8843662,12.8358117 69.8843662,12.3058929 69.8843662,11.1871753 C68.7764789,12.1881331 67.4061972,12.247013 66.9105634,12.247013 C66.3274648,12.247013 65.6860563,12.1586932 65.1321127,11.8937338 C64.0825352,11.4521347 62.6830986,10.2450974 62.6830986,7.53662338 C62.6830986,7.21278409 62.6830986,6.3001461 63.0038028,5.41694805 C63.6743662,3.67999188 65.2487324,2.62015422 67.1146479,2.62015422 C67.4353521,2.62015422 68.3974648,2.64959416 69.1846479,3.26783279 C69.534507,3.53279221 69.7969014,3.85663149 69.8843662,3.97439123 L69.8843662,2.91455357 L72.2167606,2.91455357 L72.2167606,11.0399756 C72.1876056,12.1881331 72.3042254,13.60125 71.5753521,14.6022078 M69.7677465,6.41790584 C69.6219718,5.88798701 69.0680282,4.71038961 67.493662,4.71038961 C67.1729577,4.71038961 66.3857746,4.76926948 65.7443662,5.47582792 C65.0446479,6.24126623 65.0738028,7.12446429 65.0738028,7.44830357 C65.0738028,7.77214286 65.0738028,8.62590097 65.7152113,9.33245942 C65.8026761,9.42077922 66.0359155,9.6562987 66.3566197,9.80349838 C66.5607042,9.89181818 66.9397183,10.0684578 67.5228169,10.0684578 C68.4557746,10.0684578 68.9805634,9.68573864 69.2721127,9.39133929 C69.9426761,8.71422078 69.9426761,7.86046266 69.9426761,7.53662338 C69.9135211,6.97726461 69.8552113,6.65342532 69.7677465,6.41790584" fill="#FFFFFF"></path>
                    <path d="M80.1469014,11.5404545 C79.7970423,12.7769318 79.2722535,14.8671672 78.3684507,15.6326055 C77.7561972,16.1330844 77.1439437,16.2214042 76.3567606,16.2214042 C75.5987324,16.2214042 75.336338,16.1625244 74.9573239,16.0742045 L74.9573239,14.0134091 C75.8902817,14.1311688 76.4150704,14.0134091 76.7940845,13.7190097 C77.0856338,13.4540503 77.1730986,13.130211 77.2022535,13.0124513 L73.6453521,2.91455357 L76.181831,2.91455357 L78.3684507,10.3039773 L80.2052113,2.91455357 L82.6250704,2.91455357 L80.1469014,11.5404545 Z" fill="#FFFFFF"></path>
                    <polygon fill="#DEDC00" points="12.2450704 0.147199675 9.24211268 0.147199675 19.0090141 16.0742045 21.953662 16.0742045"></polygon>
                </g>
                <g transform="translate(23.615493, 17.663961)" fill="#FFFFFF" id="Shape">
                    <path d="M1.92422535,2.79679383 L2.3615493,2.79679383 C2.30323944,3.12063312 2.12830986,3.38559253 1.92422535,3.59167208 C1.69098592,3.79775162 1.42859155,3.88607143 1.10788732,3.88607143 C0.758028169,3.88607143 0.495633803,3.79775162 0.320704225,3.59167208 C0.145774648,3.38559253 0.0583098592,3.09119318 0.0583098592,2.70847403 C0.0583098592,2.47295455 0.0874647887,2.266875 0.174929577,2.06079545 C0.233239437,1.85471591 0.349859155,1.6780763 0.495633803,1.50143669 C0.641408451,1.35423701 0.787183099,1.23647727 0.962112676,1.14815747 C1.13704225,1.05983766 1.31197183,1.03039773 1.51605634,1.03039773 C1.83676056,1.03039773 2.07,1.11871753 2.24492958,1.29535714 C2.41985915,1.47199675 2.50732394,1.70751623 2.50732394,2.03135552 L2.07,2.03135552 C2.07,1.85471591 2.01169014,1.70751623 1.92422535,1.58975649 C1.80760563,1.47199675 1.66183099,1.44255682 1.48690141,1.44255682 C1.22450704,1.44255682 1.02042254,1.56031656 0.816338028,1.82527597 C0.641408451,2.09023539 0.524788732,2.38463474 0.524788732,2.73791396 C0.524788732,2.97343344 0.583098592,3.15007305 0.69971831,3.29727273 C0.816338028,3.41503247 0.962112676,3.47391234 1.16619718,3.47391234 C1.34112676,3.47391234 1.48690141,3.41503247 1.63267606,3.29727273 C1.74929577,3.17951299 1.86591549,3.00287338 1.92422535,2.79679383 Z"></path>
                    <path d="M3.03211268,2.73791396 C3.03211268,2.23743506 3.17788732,1.82527597 3.44028169,1.50143669 C3.70267606,1.1775974 4.05253521,1.03039773 4.48985915,1.03039773 C4.83971831,1.03039773 5.10211268,1.11871753 5.27704225,1.32479708 C5.48112676,1.53087662 5.56859155,1.79583604 5.56859155,2.14911526 C5.56859155,2.64959416 5.4228169,3.06175325 5.16042254,3.3561526 C4.89802817,3.67999188 4.54816901,3.82719156 4.11084507,3.82719156 C3.76098592,3.82719156 3.49859155,3.73887175 3.29450704,3.53279221 C3.11957746,3.38559253 3.03211268,3.09119318 3.03211268,2.73791396 Z M4.4315493,1.44255682 C4.28577465,1.44255682 4.16915493,1.47199675 4.05253521,1.53087662 C3.93591549,1.58975649 3.8484507,1.6780763 3.76098592,1.82527597 C3.67352113,1.94303571 3.61521127,2.09023539 3.55690141,2.266875 C3.49859155,2.44351461 3.46943662,2.62015422 3.46943662,2.7673539 C3.46943662,3.00287338 3.52774648,3.17951299 3.6443662,3.29727273 C3.76098592,3.41503247 3.90676056,3.47391234 4.11084507,3.47391234 C4.40239437,3.47391234 4.6356338,3.3561526 4.81056338,3.09119318 C4.98549296,2.82623377 5.07295775,2.50239448 5.07295775,2.11967532 C5.07295775,1.88415584 5.01464789,1.73695617 4.89802817,1.61919643 C4.81056338,1.50143669 4.66478873,1.44255682 4.4315493,1.44255682 Z"></path>
                    <path d="M7.90098592,3.79775162 L7.95929577,3.47391234 C7.84267606,3.62111201 7.69690141,3.70943182 7.55112676,3.79775162 C7.40535211,3.85663149 7.25957746,3.88607143 7.08464789,3.88607143 C6.76394366,3.88607143 6.53070423,3.79775162 6.35577465,3.59167208 C6.18084507,3.38559253 6.09338028,3.12063312 6.09338028,2.7673539 C6.09338028,2.53183442 6.12253521,2.32575487 6.21,2.11967532 C6.26830986,1.91359578 6.38492958,1.73695617 6.5015493,1.56031656 C6.61816901,1.41311688 6.79309859,1.26591721 6.93887324,1.1775974 C7.11380282,1.0892776 7.28873239,1.05983766 7.46366197,1.05983766 C7.63859155,1.05983766 7.81352113,1.0892776 7.95929577,1.1775974 C8.10507042,1.26591721 8.22169014,1.38367695 8.30915493,1.56031656 L8.60070423,0.11775974 L9.03802817,0.11775974 L8.28,3.79775162 L7.90098592,3.79775162 Z M8.16338028,2.14911526 C8.16338028,1.91359578 8.10507042,1.73695617 7.9884507,1.61919643 C7.87183099,1.50143669 7.72605634,1.41311688 7.52197183,1.41311688 C7.25957746,1.41311688 7.02633803,1.53087662 6.85140845,1.79583604 C6.67647887,2.06079545 6.55985915,2.38463474 6.55985915,2.7673539 C6.55985915,3.00287338 6.61816901,3.17951299 6.73478873,3.29727273 C6.85140845,3.41503247 6.9971831,3.50335227 7.17211268,3.50335227 C7.46366197,3.50335227 7.69690141,3.38559253 7.87183099,3.12063312 C8.07591549,2.88511364 8.16338028,2.56127435 8.16338028,2.14911526 Z"></path>
                    <path d="M9.15464789,3.79775162 L9.70859155,1.11871753 L10.1459155,1.11871753 L9.59197183,3.79775162 L9.15464789,3.79775162 Z M9.82521127,0.647678571 L9.94183099,0.11775974 L10.3791549,0.11775974 L10.2625352,0.647678571 L9.82521127,0.647678571 Z"></path>
                    <path d="M10.4957746,3.79775162 L11.0497183,1.11871753 L11.4578873,1.11871753 L11.3704225,1.53087662 C11.5161972,1.38367695 11.6619718,1.26591721 11.8369014,1.20703734 C11.9826761,1.14815747 12.1576056,1.0892776 12.3325352,1.0892776 C12.5657746,1.0892776 12.7407042,1.14815747 12.8573239,1.23647727 C12.9739437,1.32479708 13.0322535,1.47199675 13.0322535,1.6780763 C13.0322535,1.70751623 13.0322535,1.7663961 13.0322535,1.82527597 C13.0322535,1.88415584 13.0030986,1.94303571 13.0030986,2.00191558 L12.6240845,3.79775162 L12.1867606,3.79775162 L12.5366197,2.06079545 C12.5366197,2.00191558 12.5657746,1.94303571 12.5657746,1.88415584 C12.5657746,1.82527597 12.5657746,1.79583604 12.5657746,1.7663961 C12.5657746,1.6780763 12.5366197,1.58975649 12.4491549,1.53087662 C12.3908451,1.47199675 12.2742254,1.44255682 12.1576056,1.44255682 C11.8952113,1.44255682 11.6911268,1.53087662 11.5161972,1.70751623 C11.3412676,1.88415584 11.2246479,2.11967532 11.166338,2.44351461 L10.8747887,3.79775162 L10.4957746,3.79775162 Z"></path>
                    <path d="M13.4404225,4.06271104 L13.8777465,4.06271104 L13.8777465,4.09215097 C13.8777465,4.20991071 13.9360563,4.32767045 14.0235211,4.38655032 C14.1401408,4.47487013 14.2859155,4.50431006 14.4608451,4.50431006 C14.7523944,4.50431006 14.9564789,4.44543019 15.0730986,4.29823052 C15.1897183,4.15103084 15.306338,3.88607143 15.3646479,3.47391234 C15.2771831,3.59167208 15.1605634,3.67999188 15.0147887,3.73887175 C14.898169,3.79775162 14.7523944,3.82719156 14.5774648,3.82719156 C14.2567606,3.82719156 13.9943662,3.73887175 13.8194366,3.53279221 C13.644507,3.32671266 13.5570423,3.06175325 13.5570423,2.70847403 C13.5570423,2.23743506 13.7028169,1.82527597 13.9652113,1.53087662 C14.2276056,1.20703734 14.5483099,1.05983766 14.9564789,1.05983766 C15.1605634,1.05983766 15.335493,1.11871753 15.4521127,1.20703734 C15.5978873,1.29535714 15.6853521,1.41311688 15.7728169,1.58975649 L15.8602817,1.14815747 L16.2976056,1.14815747 L15.743662,3.85663149 C15.6561972,4.20991071 15.5395775,4.50431006 15.306338,4.65150974 C15.1022535,4.82814935 14.8107042,4.91646916 14.4316901,4.91646916 C14.1109859,4.91646916 13.8777465,4.85758929 13.673662,4.71038961 C13.5278873,4.53375 13.4404225,4.32767045 13.4404225,4.06271104 Z M14.9564789,1.41311688 C14.6940845,1.41311688 14.4608451,1.53087662 14.2859155,1.7663961 C14.1109859,2.00191558 14.0235211,2.32575487 14.0235211,2.70847403 C14.0235211,2.94399351 14.081831,3.12063312 14.1984507,3.23839286 C14.3150704,3.3561526 14.4608451,3.41503247 14.6649296,3.41503247 C14.9564789,3.41503247 15.1897183,3.29727273 15.3646479,3.03231331 C15.5395775,2.79679383 15.6270423,2.47295455 15.6270423,2.06079545 C15.6270423,1.85471591 15.5687324,1.6780763 15.4521127,1.56031656 C15.335493,1.47199675 15.1605634,1.41311688 14.9564789,1.41311688 Z"></path>
                    <path d="M19.1256338,3.79775162 C19.0673239,3.82719156 19.0090141,3.82719156 18.9507042,3.82719156 C18.8923944,3.82719156 18.8632394,3.82719156 18.8049296,3.82719156 C18.63,3.82719156 18.4842254,3.79775162 18.3967606,3.70943182 C18.3092958,3.65055195 18.2509859,3.53279221 18.2509859,3.38559253 C18.2509859,3.3561526 18.2509859,3.29727273 18.2509859,3.26783279 C18.2509859,3.20895292 18.2801408,3.15007305 18.2801408,3.06175325 L18.63,1.44255682 L18.2509859,1.44255682 L18.3384507,1.0892776 L18.7174648,1.0892776 L18.8632394,0.353279221 L19.3005634,0.353279221 L19.1547887,1.0892776 L19.6212676,1.0892776 L19.5338028,1.44255682 L19.0673239,1.44255682 L18.7174648,3.09119318 C18.7174648,3.12063312 18.6883099,3.17951299 18.6883099,3.20895292 C18.6883099,3.23839286 18.6883099,3.26783279 18.6883099,3.29727273 C18.6883099,3.3561526 18.7174648,3.38559253 18.7466197,3.41503247 C18.7757746,3.4444724 18.8340845,3.4444724 18.8923944,3.4444724 C18.9215493,3.4444724 18.9798592,3.4444724 19.038169,3.4444724 C19.0964789,3.4444724 19.1256338,3.4444724 19.1839437,3.41503247 L19.1256338,3.79775162 Z"></path>
                    <path d="M19.7670423,2.73791396 C19.7670423,2.23743506 19.9128169,1.82527597 20.1752113,1.50143669 C20.4376056,1.1775974 20.7874648,1.03039773 21.2247887,1.03039773 C21.5746479,1.03039773 21.8370423,1.11871753 22.0119718,1.32479708 C22.2160563,1.53087662 22.3035211,1.79583604 22.3035211,2.14911526 C22.3035211,2.64959416 22.1577465,3.06175325 21.8953521,3.3561526 C21.6329577,3.67999188 21.2830986,3.82719156 20.8457746,3.82719156 C20.4959155,3.82719156 20.2335211,3.73887175 20.0294366,3.53279221 C19.854507,3.38559253 19.7670423,3.09119318 19.7670423,2.73791396 Z M21.1664789,1.44255682 C21.0207042,1.44255682 20.9040845,1.47199675 20.7874648,1.53087662 C20.6708451,1.58975649 20.5833803,1.6780763 20.4959155,1.82527597 C20.4084507,1.94303571 20.3501408,2.09023539 20.291831,2.266875 C20.2335211,2.44351461 20.2043662,2.62015422 20.2043662,2.7673539 C20.2043662,3.00287338 20.2626761,3.17951299 20.3792958,3.29727273 C20.4959155,3.41503247 20.6416901,3.47391234 20.8457746,3.47391234 C21.1373239,3.47391234 21.3705634,3.3561526 21.545493,3.09119318 C21.7204225,2.82623377 21.8078873,2.50239448 21.8078873,2.11967532 C21.8078873,1.88415584 21.7495775,1.73695617 21.6329577,1.61919643 C21.5746479,1.50143669 21.3997183,1.44255682 21.1664789,1.44255682 Z"></path>
                    <path d="M24.2860563,2.8556737 L24.6942254,2.8556737 C24.6942254,2.8556737 24.6942254,2.88511364 24.6942254,2.88511364 C24.6942254,2.88511364 24.6942254,2.91455357 24.6942254,2.94399351 C24.6942254,3.12063312 24.7525352,3.26783279 24.8691549,3.3561526 C24.9857746,3.4444724 25.1607042,3.50335227 25.3939437,3.50335227 C25.5688732,3.50335227 25.685493,3.47391234 25.8021127,3.38559253 C25.8895775,3.32671266 25.9478873,3.20895292 25.9478873,3.09119318 C25.9478873,3.00287338 25.9187324,2.94399351 25.8604225,2.88511364 C25.8021127,2.82623377 25.685493,2.73791396 25.4814085,2.64959416 C25.4522535,2.62015422 25.3939437,2.62015422 25.3356338,2.59071429 C24.84,2.35519481 24.6067606,2.09023539 24.6067606,1.79583604 C24.6067606,1.56031656 24.6942254,1.38367695 24.8691549,1.23647727 C25.0440845,1.0892776 25.2773239,1.03039773 25.5688732,1.03039773 C25.8895775,1.03039773 26.1228169,1.11871753 26.2977465,1.26591721 C26.4726761,1.41311688 26.5601408,1.64863636 26.5601408,1.91359578 L26.5601408,1.97247565 L26.1519718,1.97247565 L26.1519718,1.94303571 C26.1519718,1.7663961 26.093662,1.61919643 26.0061972,1.53087662 C25.9187324,1.44255682 25.7729577,1.38367695 25.5688732,1.38367695 C25.3939437,1.38367695 25.2773239,1.41311688 25.1898592,1.47199675 C25.1023944,1.53087662 25.0440845,1.61919643 25.0440845,1.73695617 C25.0440845,1.88415584 25.1898592,2.00191558 25.4814085,2.14911526 C25.4814085,2.14911526 25.5105634,2.14911526 25.5105634,2.14911526 C25.8895775,2.32575487 26.1519718,2.47295455 26.2394366,2.59071429 C26.3269014,2.70847403 26.3852113,2.8556737 26.3852113,3.00287338 C26.3852113,3.26783279 26.2977465,3.47391234 26.093662,3.62111201 C25.8895775,3.76831169 25.6271831,3.85663149 25.3064789,3.85663149 C24.9857746,3.85663149 24.7233803,3.76831169 24.5484507,3.62111201 C24.3735211,3.4444724 24.2569014,3.23839286 24.2569014,2.94399351 C24.2569014,2.91455357 24.2569014,2.88511364 24.2569014,2.88511364 C24.2860563,2.88511364 24.2860563,2.88511364 24.2860563,2.8556737 Z"></path>
                    <path d="M26.9683099,3.79775162 L27.755493,0.11775974 L28.1928169,0.11775974 L27.9012676,1.50143669 C28.0470423,1.35423701 28.1928169,1.26591721 28.3385915,1.1775974 C28.4843662,1.11871753 28.6592958,1.05983766 28.8342254,1.05983766 C29.0674648,1.05983766 29.2423944,1.11871753 29.3590141,1.20703734 C29.4756338,1.29535714 29.5339437,1.44255682 29.5339437,1.64863636 C29.5339437,1.70751623 29.5339437,1.73695617 29.5339437,1.79583604 C29.5339437,1.85471591 29.5047887,1.91359578 29.5047887,1.97247565 L29.1257746,3.79775162 L28.6884507,3.79775162 L29.0674648,2.06079545 C29.0966197,2.00191558 29.0966197,1.94303571 29.0966197,1.88415584 C29.0966197,1.82527597 29.0966197,1.79583604 29.0966197,1.73695617 C29.0966197,1.64863636 29.0674648,1.58975649 28.98,1.53087662 C28.9216901,1.47199675 28.8050704,1.44255682 28.6884507,1.44255682 C28.4260563,1.44255682 28.2219718,1.53087662 28.0470423,1.70751623 C27.8721127,1.88415584 27.755493,2.11967532 27.6971831,2.44351461 L27.4056338,3.79775162 L26.9683099,3.79775162 Z"></path>
                    <path d="M31.6039437,3.50335227 C31.4873239,3.62111201 31.3707042,3.73887175 31.2249296,3.79775162 C31.0791549,3.85663149 30.9333803,3.88607143 30.7584507,3.88607143 C30.4960563,3.88607143 30.2919718,3.82719156 30.1461972,3.67999188 C30.0004225,3.53279221 29.9421127,3.32671266 29.9421127,3.09119318 C29.9421127,2.79679383 30.0295775,2.59071429 30.204507,2.44351461 C30.3794366,2.29631494 30.7001408,2.23743506 31.1083099,2.20799513 C31.1083099,2.20799513 31.1374648,2.20799513 31.1374648,2.20799513 C31.6039437,2.17855519 31.866338,2.03135552 31.866338,1.79583604 C31.866338,1.6780763 31.8371831,1.58975649 31.7497183,1.53087662 C31.6622535,1.47199675 31.5456338,1.44255682 31.3707042,1.44255682 C31.1374648,1.44255682 30.9625352,1.47199675 30.8459155,1.53087662 C30.7584507,1.58975649 30.6709859,1.70751623 30.641831,1.88415584 L30.204507,1.88415584 C30.2628169,1.58975649 30.3794366,1.38367695 30.5543662,1.23647727 C30.7584507,1.0892776 31.0208451,1.03039773 31.3415493,1.03039773 C31.6622535,1.03039773 31.895493,1.0892776 32.0412676,1.20703734 C32.2161972,1.32479708 32.303662,1.47199675 32.303662,1.6780763 C32.303662,1.70751623 32.303662,1.73695617 32.303662,1.7663961 C32.303662,1.79583604 32.274507,1.88415584 32.274507,1.97247565 L32.0412676,3.12063312 C32.0412676,3.15007305 32.0121127,3.20895292 32.0121127,3.23839286 C32.0121127,3.26783279 32.0121127,3.29727273 32.0121127,3.3561526 C32.0121127,3.41503247 32.0412676,3.4444724 32.0704225,3.47391234 C32.0995775,3.50335227 32.1578873,3.50335227 32.2161972,3.50335227 C32.2453521,3.50335227 32.2453521,3.50335227 32.274507,3.50335227 C32.303662,3.50335227 32.303662,3.50335227 32.3328169,3.50335227 L32.274507,3.82719156 C32.2453521,3.82719156 32.1870423,3.85663149 32.1578873,3.85663149 C32.0995775,3.85663149 32.0704225,3.85663149 32.0121127,3.85663149 C31.895493,3.85663149 31.8080282,3.82719156 31.7497183,3.76831169 C31.6330986,3.67999188 31.6039437,3.59167208 31.6039437,3.50335227 Z M31.7205634,2.44351461 C31.5747887,2.50239448 31.3998592,2.53183442 31.1957746,2.53183442 C30.9625352,2.56127435 30.8459155,2.56127435 30.7584507,2.59071429 C30.641831,2.62015422 30.5252113,2.67903409 30.4669014,2.73791396 C30.4085915,2.82623377 30.3794366,2.91455357 30.3794366,3.03231331 C30.3794366,3.15007305 30.4085915,3.26783279 30.4960563,3.3561526 C30.5835211,3.4444724 30.6709859,3.47391234 30.8167606,3.47391234 C31.0791549,3.47391234 31.2832394,3.38559253 31.4290141,3.20895292 C31.6039437,3.06175325 31.6914085,2.79679383 31.7205634,2.44351461 Z"></path>
                    <path d="M32.7992958,3.79775162 L33.3532394,1.11871753 L33.7905634,1.11871753 L33.6739437,1.61919643 C33.8197183,1.41311688 33.965493,1.26591721 34.0529577,1.1775974 C34.1695775,1.0892776 34.2861972,1.05983766 34.4028169,1.05983766 C34.4319718,1.05983766 34.4611268,1.05983766 34.4902817,1.05983766 C34.5194366,1.05983766 34.5485915,1.05983766 34.6069014,1.0892776 L34.4902817,1.58975649 C34.4902817,1.58975649 34.4902817,1.58975649 34.4902817,1.58975649 C34.4319718,1.58975649 34.373662,1.58975649 34.344507,1.58975649 C34.1112676,1.58975649 33.936338,1.6780763 33.8197183,1.82527597 C33.6739437,1.97247565 33.5864789,2.20799513 33.4990141,2.53183442 L33.2366197,3.82719156 L32.7992958,3.82719156 L32.7992958,3.79775162 Z"></path>
                    <path d="M37.0267606,2.91455357 C36.9684507,3.20895292 36.8226761,3.4444724 36.5894366,3.62111201 C36.3561972,3.79775162 36.0938028,3.88607143 35.7730986,3.88607143 C35.4232394,3.88607143 35.1608451,3.79775162 34.9859155,3.59167208 C34.8109859,3.38559253 34.6943662,3.09119318 34.6943662,2.73791396 C34.6943662,2.23743506 34.8109859,1.82527597 35.0733803,1.53087662 C35.3357746,1.20703734 35.6564789,1.05983766 36.0646479,1.05983766 C36.3853521,1.05983766 36.6477465,1.14815747 36.851831,1.35423701 C37.0559155,1.56031656 37.1433803,1.82527597 37.1433803,2.14911526 C37.1433803,2.20799513 37.1433803,2.29631494 37.1433803,2.35519481 C37.1433803,2.44351461 37.1142254,2.53183442 37.1142254,2.62015422 L35.1608451,2.62015422 C35.1608451,2.62015422 35.1608451,2.62015422 35.1608451,2.62015422 C35.1608451,2.67903409 35.1608451,2.73791396 35.1608451,2.7673539 C35.1608451,3.00287338 35.2191549,3.17951299 35.3357746,3.32671266 C35.4523944,3.4444724 35.6273239,3.50335227 35.8605634,3.50335227 C36.035493,3.50335227 36.1812676,3.4444724 36.3270423,3.3561526 C36.443662,3.26783279 36.5311268,3.12063312 36.5894366,2.94399351 L37.0267606,2.94399351 L37.0267606,2.91455357 Z M35.2483099,2.20799513 L36.7060563,2.20799513 C36.7060563,2.17855519 36.7060563,2.17855519 36.7060563,2.14911526 C36.7060563,2.11967532 36.7060563,2.11967532 36.7060563,2.09023539 C36.7060563,1.88415584 36.6477465,1.70751623 36.5311268,1.58975649 C36.414507,1.47199675 36.2687324,1.41311688 36.0938028,1.41311688 C35.8897183,1.41311688 35.6856338,1.47199675 35.5398592,1.61919643 C35.4232394,1.7663961 35.3066197,1.97247565 35.2483099,2.20799513 Z"></path>
                </g>
            </g>
            <path d="M85.2144,3 C85.4448,3 85.6752,3.05714286 85.9056,3.14285714 C86.136,3.22857143 86.3088,3.37142857 86.4816,3.54285714 C86.6544,3.71428571 86.7696,3.91428571 86.856,4.11428571 C86.9424,4.34285714 87,4.54285714 87,4.8 C87,5.02857143 86.9424,5.25714286 86.856,5.48571429 C86.7696,5.68571429 86.6256,5.88571429 86.4816,6.05714286 C86.3088,6.22857143 86.1072,6.34285714 85.8768,6.45714286 C85.6464,6.54285714 85.4448,6.6 85.1856,6.6 C84.9552,6.6 84.7248,6.54285714 84.4944,6.45714286 C84.2928,6.37142857 84.0912,6.22857143 83.9184,6.05714286 C83.7456,5.88571429 83.6304,5.68571429 83.544,5.48571429 C83.4576,5.28571429 83.4,5.05714286 83.4,4.82857143 C83.4,4.6 83.4576,4.37142857 83.544,4.14285714 C83.6304,3.91428571 83.7744,3.71428571 83.9472,3.54285714 C84.12,3.37142857 84.2928,3.25714286 84.4944,3.17142857 C84.7248,3.05714286 84.9552,3 85.2144,3 Z M86.7696,4.8 C86.7696,4.57142857 86.7408,4.37142857 86.6544,4.2 C86.568,4 86.4816,3.85714286 86.3376,3.71428571 C86.1936,3.57142857 86.0208,3.45714286 85.8192,3.37142857 C85.6176,3.28571429 85.416,3.25714286 85.2144,3.25714286 C85.0128,3.25714286 84.8112,3.28571429 84.6096,3.37142857 C84.408,3.45714286 84.264,3.54285714 84.12,3.68571429 C83.976,3.82857143 83.8608,4 83.7744,4.2 C83.688,4.4 83.6592,4.6 83.6592,4.8 C83.6592,5 83.688,5.2 83.7744,5.37142857 C83.8608,5.54285714 83.976,5.71428571 84.12,5.85714286 C84.264,6 84.4368,6.11428571 84.6096,6.2 C84.8112,6.28571429 84.984,6.31428571 85.1856,6.31428571 C85.3872,6.31428571 85.5888,6.28571429 85.7904,6.2 C85.992,6.11428571 86.1648,6 86.3088,5.85714286 C86.4528,5.71428571 86.568,5.54285714 86.6544,5.37142857 C86.7408,5.2 86.7696,5 86.7696,4.8 Z M85.2432,3.74285714 C85.5312,3.74285714 85.7328,3.8 85.8768,3.88571429 C86.0208,3.97142857 86.0784,4.11428571 86.0784,4.28571429 C86.0784,4.42857143 86.0496,4.54285714 85.9632,4.62857143 C85.8768,4.71428571 85.7616,4.77142857 85.6176,4.8 L86.0784,5.71428571 L85.6464,5.71428571 L85.2432,4.85714286 L84.8688,4.85714286 L84.8688,5.71428571 L84.4944,5.71428571 L84.4944,3.71428571 L85.2432,3.71428571 L85.2432,3.74285714 Z M85.1856,3.97142857 L84.8688,3.97142857 L84.8688,4.62857143 L85.1856,4.62857143 C85.3584,4.62857143 85.5024,4.6 85.5888,4.54285714 C85.6752,4.48571429 85.704,4.4 85.704,4.28571429 C85.704,4.17142857 85.6752,4.08571429 85.5888,4.02857143 C85.5024,4 85.3584,3.97142857 85.1856,3.97142857 Z" id="Shape" fill="#FFFFFF"></path>
        </g>
    </g>
</svg>