<?xml version="1.0" encoding="UTF-8" standalone="no"?>
<svg width="137px" height="26px" viewBox="0 0 137 26" version="1.1" xmlns="http://www.w3.org/2000/svg" xmlns:xlink="http://www.w3.org/1999/xlink">
    <!-- Generator: Sketch 50 (54983) - http://www.bohemiancoding.com/sketch -->
    <title>ideato</title>
    <desc>Created with Sketch.</desc>
    <defs></defs>
    <g id="Page-1" stroke="none" stroke-width="1" fill="none" fill-rule="evenodd">
        <g id="Homepage" transform="translate(-473.000000, -4871.000000)" fill="#FFFFFF" fill-rule="nonzero">
            <g id="Footer" transform="translate(0.000000, 4833.000000)">
                <g id="ideato" transform="translate(473.000000, 37.882943)">
                    <g id="Group" transform="translate(34.822742, 0.000000)">
                        <path d="M4.21538462,25.4297659 L0.549832776,25.4297659 L0.549832776,7.88093645 L4.21538462,7.88093645 L4.21538462,25.4297659 Z M0.045819398,2.74916388 C0.045819398,2.10769231 0.274916388,1.55785953 0.733110368,1.09966555 C1.19130435,0.641471572 1.74113712,0.412374582 2.3826087,0.412374582 C3.02408027,0.412374582 3.57391304,0.641471572 4.03210702,1.09966555 C4.490301,1.55785953 4.71939799,2.10769231 4.71939799,2.74916388 C4.71939799,3.39063545 4.490301,3.94046823 4.03210702,4.39866221 C3.57391304,4.85685619 3.02408027,5.08595318 2.3826087,5.08595318 C1.74113712,5.08595318 1.19130435,4.85685619 0.733110368,4.39866221 C0.274916388,3.94046823 0.045819398,3.39063545 0.045819398,2.74916388 Z" id="Shape"></path>
                        <path d="M10.8591973,23.1846154 C9.209699,21.5351171 8.38494983,19.335786 8.38494983,16.5866221 C8.38494983,13.8832776 9.209699,11.6839465 10.9050167,10.0802676 C12.6003344,8.47658863 14.616388,7.65183946 16.9531773,7.65183946 C19.2899666,7.65183946 21.1685619,8.65986622 22.5889632,10.6301003 L22.5889632,0.962207358 L26.2545151,0.962207358 L26.2545151,25.3839465 L22.5889632,25.3839465 L22.5889632,22.7264214 C21.2143813,24.6508361 19.2441472,25.6130435 16.6324415,25.6130435 C14.4789298,25.6588629 12.5086957,24.8341137 10.8591973,23.1846154 Z M13.7,20.8478261 C14.7538462,21.9016722 16.0367893,22.4056856 17.50301,22.4056856 C18.9692308,22.4056856 20.1605351,21.8558528 21.1685619,20.8020067 C22.1765886,19.7481605 22.680602,18.3735786 22.680602,16.7240803 C22.680602,15.0745819 22.1765886,13.6541806 21.1685619,12.5545151 C20.1605351,11.4548495 18.9234114,10.8591973 17.4571906,10.8591973 C15.9909699,10.8591973 14.7080268,11.4090301 13.6541806,12.5545151 C12.6003344,13.6541806 12.0505017,15.0745819 12.0505017,16.7698997 C12.0963211,18.419398 12.6461538,19.7939799 13.7,20.8478261 Z" id="Shape"></path>
                        <path d="M47.9729097,18.2819398 L34.2270903,18.2819398 C34.3187291,19.5648829 34.9143813,20.5729097 35.9682274,21.3518395 C37.0220736,22.1307692 38.2591973,22.4973244 39.6337793,22.4973244 C41.8331104,22.4973244 43.4826087,21.8100334 44.6280936,20.4354515 L46.735786,22.7264214 C44.8571906,24.6966555 42.3829431,25.6588629 39.3588629,25.6588629 C36.8846154,25.6588629 34.8227425,24.8341137 33.0816054,23.1846154 C31.3404682,21.5351171 30.5157191,19.335786 30.5157191,16.5866221 C30.5157191,13.8374582 31.3862876,11.6381271 33.1274247,10.0344482 C34.8685619,8.43076923 36.9762542,7.60602007 39.3130435,7.60602007 C41.6956522,7.60602007 43.7117057,8.33913043 45.4070234,9.75953177 C47.0565217,11.1799331 47.9270903,13.1959866 47.9270903,15.7160535 L47.9270903,18.2819398 L47.9729097,18.2819398 Z M34.2270903,15.3494983 L44.2615385,15.3494983 C44.2615385,13.8832776 43.8033445,12.7377926 42.8869565,11.9588629 C41.9705686,11.1799331 40.8250836,10.7675585 39.4963211,10.7675585 C38.1675585,10.7675585 36.9304348,11.1799331 35.8765886,12.0046823 C34.7769231,12.8752508 34.2270903,13.9749164 34.2270903,15.3494983 Z" id="Shape"></path>
                        <path d="M66.2090301,25.4297659 L62.864214,25.4297659 L62.864214,23.0929766 C61.3979933,24.8341137 59.4735786,25.7046823 57.0451505,25.7046823 C55.2123746,25.7046823 53.7003344,25.2006689 52.5090301,24.1468227 C51.3177258,23.0929766 50.7220736,21.7183946 50.7220736,20.0230769 C50.7220736,18.2819398 51.3635452,16.9989967 52.6464883,16.1742475 C53.9294314,15.3036789 55.6247492,14.8913043 57.8240803,14.8913043 L62.5892977,14.8913043 L62.5892977,14.2498328 C62.5892977,11.9130435 61.3063545,10.7675585 58.6946488,10.7675585 C57.0909699,10.7675585 55.3956522,11.3632107 53.6086957,12.5545151 L51.9591973,10.2635452 C54.0668896,8.56822742 56.4953177,7.74347826 59.1986622,7.74347826 C61.2605351,7.74347826 62.9558528,8.24749164 64.238796,9.30133779 C65.5217391,10.3551839 66.2090301,12.0046823 66.2090301,14.2040134 L66.2090301,25.4297659 Z M62.4976589,18.877592 L62.4976589,17.4113712 L58.3280936,17.4113712 C55.6705686,17.4113712 54.341806,18.2361204 54.341806,19.9314381 C54.341806,20.8020067 54.6625418,21.4434783 55.3498328,21.9016722 C55.9913043,22.3598662 56.9076923,22.5889632 58.0989967,22.5889632 C59.290301,22.5889632 60.2983278,22.2682274 61.1688963,21.5809365 C62.0852843,20.8936455 62.4976589,20.0230769 62.4976589,18.877592 Z" id="Shape"></path>
                        <path d="M75.6936455,10.8591973 L75.6936455,19.7481605 C75.6936455,20.5729097 75.9227425,21.2602007 76.3351171,21.7183946 C76.793311,22.222408 77.3889632,22.451505 78.167893,22.451505 C78.9468227,22.451505 79.7257525,22.0849498 80.4588629,21.3060201 L81.970903,23.9177258 C80.6879599,25.0632107 79.2217391,25.6588629 77.6638796,25.6588629 C76.1060201,25.6588629 74.7772575,25.1090301 73.6317726,24.0093645 C72.532107,22.909699 71.9822742,21.4434783 71.9822742,19.6107023 L71.9822742,10.8591973 L69.7829431,10.8591973 L69.7829431,7.88093645 L71.9822742,7.88093645 L71.9822742,2.3826087 L75.6478261,2.3826087 L75.6478261,7.88093645 L80.2755853,7.88093645 L80.2755853,10.8591973 L75.6936455,10.8591973 Z" id="Shape"></path>
                        <path d="M92.8301003,22.4056856 C94.4337793,22.4056856 95.7625418,21.8558528 96.816388,20.8020067 C97.8702341,19.7481605 98.3742475,18.3735786 98.3742475,16.6782609 C98.3742475,14.9829431 97.8702341,13.6083612 96.816388,12.5545151 C95.7625418,11.5006689 94.4337793,10.9508361 92.8301003,10.9508361 C91.2264214,10.9508361 89.8976589,11.5006689 88.8438127,12.5545151 C87.7899666,13.6083612 87.2859532,14.9829431 87.2859532,16.6782609 C87.2859532,18.3735786 87.7899666,19.7481605 88.8438127,20.8020067 C89.8976589,21.8558528 91.2264214,22.4056856 92.8301003,22.4056856 Z M92.8301003,25.6588629 C90.1725753,25.6588629 88.0190635,24.7882943 86.232107,23.0471572 C84.4909699,21.3060201 83.5745819,19.1525084 83.5745819,16.6324415 C83.5745819,14.1123746 84.4451505,11.9588629 86.232107,10.2177258 C87.9732441,8.47658863 90.1725753,7.60602007 92.8301003,7.60602007 C95.441806,7.60602007 97.6411371,8.47658863 99.4280936,10.2177258 C101.169231,11.9588629 102.039799,14.1123746 102.039799,16.6324415 C102.039799,19.1525084 101.169231,21.3060201 99.4280936,23.0471572 C97.6411371,24.7882943 95.4876254,25.6588629 92.8301003,25.6588629 Z" id="Shape"></path>
                    </g>
                    <polygon id="Shape" points="8.93478261 14.6622074 9.53043478 14.8454849 9.1638796 15.3494983 3.43645485 22.4973244 7.78929766 25.6588629 12.783612 18.0528428 13.1501672 17.5488294 13.5167224 18.0528428 18.5110368 25.6588629 22.8638796 22.4973244 17.2280936 15.3953177 16.8615385 14.8913043 17.4571906 14.7080268 26.2545151 12.2795987 24.6050167 7.14782609 16.0826087 10.3551839 15.4411371 10.5384615 15.4411371 9.89698997 15.8993311 0.824749164 10.4926421 0.824749164 10.9050167 9.94280936 10.9050167 10.5842809 10.3093645 10.4010033 1.78695652 7.19364548 0.137458194 12.3254181"></polygon>
                </g>
            </g>
        </g>
    </g>
</svg>