<?xml version="1.0" encoding="UTF-8" standalone="no"?>
<svg width="229px" height="45px" viewBox="0 0 229 45" version="1.1" xmlns="http://www.w3.org/2000/svg" xmlns:xlink="http://www.w3.org/1999/xlink">
    <!-- Generator: Sketch 50.2 (55047) - http://www.bohemiancoding.com/sketch -->
    <title>logo</title>
    <desc>Created with Sketch.</desc>
    <defs></defs>
    <g id="Page-1" stroke="none" stroke-width="1" fill="none" fill-rule="evenodd">
        <g id="Homepage" transform="translate(-42.000000, -20.000000)" fill="#FFFFFF">
            <g id="Header">
                <g id="logo" transform="translate(42.000000, 20.000000)">
                    <path d="M6.1955873,14.4237963 L0,14.4237963 L0,0.371344349 L6.25422062,0.371344349 C7.59627883,0.371344349 8.68424175,0.671022757 9.518142,1.27038856 C10.3520423,1.86975437 10.9644286,2.67106837 11.3553193,3.67435461 C11.7331804,4.69067054 11.9221081,5.73954497 11.9221081,6.82100936 C11.9221081,8.15003789 11.7396951,9.37481051 11.3748637,10.495364 C10.9970027,11.6550065 10.3846164,12.5931302 9.53768644,13.3097632 C8.67772681,14.0524557 7.5637049,14.4237963 6.1955873,14.4237963 Z M2.8730326,12.0198302 L5.76560963,12.0198302 C6.86010371,12.0198302 7.66141771,11.5442536 8.16957568,10.5930862 C8.67773365,9.65494839 8.93180882,8.50183799 8.93180882,7.13372039 C8.93180882,6.67768119 8.90574983,6.28679631 8.85363106,5.96105403 C8.77545291,5.49198513 8.70379068,5.14670349 8.63864223,4.92519874 C8.46925624,4.29977355 8.15654833,3.7916232 7.70050913,3.40073246 C7.25749963,3.00984172 6.61253957,2.81439928 5.76560963,2.81439928 L2.8730326,2.81439928 L2.8730326,12.0198302 Z M13.0947744,9.00998658 C13.0947744,8.11093787 13.2641579,7.25099113 13.6029298,6.43012057 C13.9417018,5.60925001 14.4889407,4.95777521 15.2446628,4.47567663 C16.0134145,3.98054835 16.9645678,3.73298793 18.0981509,3.73298793 C19.2968825,3.73298793 20.2545505,3.99357785 20.9711835,4.51476551 C21.6878165,5.03595317 22.2024816,5.7330312 22.5151942,6.60602053 C22.8279068,7.47900985 22.9842608,8.43016306 22.9842608,9.45950868 L22.9842608,9.94811967 L15.8114515,9.94811967 C15.8114515,10.7820199 16.0329529,11.4139505 16.4759624,11.8439303 C16.9059423,12.2869398 17.5118138,12.5084412 18.2935953,12.5084412 C18.6975157,12.5084412 19.0688564,12.3976905 19.4076284,12.1761858 C19.7464003,11.954681 19.961387,11.6875763 20.0525949,11.3748637 L22.8669941,11.3748637 C22.6454894,12.1045265 22.319752,12.7038833 21.8897722,13.1729522 C21.4467626,13.6680804 20.9190681,14.0459358 20.3066726,14.3065297 C19.6682177,14.5671235 18.9971986,14.6974184 18.2935953,14.6974184 C14.8276974,14.6974184 13.0947744,12.8016268 13.0947744,9.00998658 Z M15.9287181,8.20866456 L20.1698615,8.20866456 C20.1177427,7.5441503 19.8962413,6.99691146 19.5053505,6.56693165 C19.1144598,6.1760409 18.6323685,5.98059846 18.059062,5.98059846 C16.834271,5.98059846 16.1241635,6.72327974 15.9287181,8.20866456 Z M24.0982938,11.1012416 L26.9322375,11.1012416 C26.9322375,12.1175575 27.6814336,12.6257079 29.1798481,12.6257079 C29.7661842,12.6257079 30.209187,12.5149572 30.5088699,12.2934524 C30.7955232,12.0849773 30.9388476,11.8439317 30.9388476,11.5703081 C30.9388476,11.1794174 30.5544775,10.8862537 29.7857257,10.6908084 L27.4208485,10.1240196 C26.6260373,9.92857425 25.9419888,9.61586635 25.3686824,9.18588653 C24.7823463,8.75590671 24.4891826,8.09791717 24.4891826,7.21189815 C24.4891826,6.57344327 24.6390218,5.98711595 24.9387047,5.4528986 C25.2253579,4.94474063 25.7009345,4.52779676 26.3654488,4.20205448 C27.0169334,3.88934188 27.8052179,3.73298793 28.730326,3.73298793 C29.994206,3.73298793 30.9649035,3.91540087 31.6424474,4.28023223 C32.3330211,4.64506359 32.7825387,5.09458121 32.9910138,5.62879856 C33.1213107,5.91545177 33.2190319,6.17604169 33.2841803,6.41057613 C33.3493288,6.69722934 33.3819025,6.95130452 33.3819025,7.17280927 L30.6652255,7.17280927 C30.6131067,6.71677007 30.4567527,6.38451792 30.1961589,6.17604286 C29.9355651,5.9545381 29.4795327,5.84378739 28.8280482,5.84378739 C27.7205244,5.84378739 27.1667708,6.16952479 27.1667708,6.82100936 C27.1667708,7.17281103 27.5381114,7.4399157 28.2808039,7.62233138 L30.6652255,8.20866456 C31.4730663,8.40410993 32.1831739,8.71681783 32.7955694,9.14679765 C33.3949352,9.57677747 33.6946136,10.2282523 33.6946136,11.1012416 C33.6946136,11.8569637 33.5122006,12.495409 33.1473693,13.0165967 C32.7695082,13.550814 32.2483284,13.9612431 31.5838141,14.2478963 C30.8802108,14.5475792 30.0658673,14.6974184 29.1407592,14.6974184 C28.8150169,14.6974184 28.4827648,14.6778742 28.1439928,14.6387851 C27.8573396,14.5996961 27.5381169,14.5475781 27.1863152,14.4824296 C26.5739197,14.339103 26.0397104,14.1176016 25.5836712,13.8179187 C25.1146023,13.5052061 24.7497764,13.1208359 24.4891826,12.6647967 C24.2285888,12.2087575 24.0982938,11.6875777 24.0982938,11.1012416 Z M35.7467797,14.4237963 L35.7467797,4.00661008 L38.5025457,4.00661008 L38.5025457,14.4237963 L35.7467797,14.4237963 Z M35.7467797,2.7753104 L35.7467797,0.214988834 L38.5025457,0.214988834 L38.5025457,2.7753104 L35.7467797,2.7753104 Z M40.5938007,9.08816433 C40.5938007,8.16305624 40.7501546,7.30310951 41.0628672,6.50829833 C41.3755798,5.70045746 41.8641859,5.03595317 42.5287002,4.51476551 C43.1671551,3.99357785 43.9749838,3.73298793 44.9522107,3.73298793 C45.6297546,3.73298793 46.2486557,3.89585663 46.8089324,4.22159892 C47.3431498,4.5473412 47.7405494,4.99685881 48.0011432,5.57016524 L48.0402321,4.00661008 L50.6396426,4.00661008 L50.6396426,13.8960964 C50.6396426,14.9254421 50.4898034,15.7919035 50.1901204,16.4955069 C49.8774079,17.1860805 49.330169,17.7202899 48.5483875,18.0981509 C47.7535764,18.476012 46.6786429,18.6649397 45.323555,18.6649397 C44.7893377,18.6649397 44.1769514,18.5737332 43.4863777,18.3913175 C42.7958041,18.2219315 42.1964473,17.8961941 41.6882893,17.4140955 C41.4276955,17.1795611 41.232253,16.8994269 41.1019561,16.5736846 C40.9455998,16.2479423 40.8674228,15.9026607 40.8674228,15.5378293 L43.7990888,15.5378293 C43.9033263,15.889631 44.0857392,16.1502209 44.3463331,16.3196069 C44.6329863,16.5020226 45.0759891,16.5932291 45.6753549,16.5932291 C46.3007801,16.5932291 46.7828715,16.4824784 47.1216435,16.2609736 C47.4343561,16.0134095 47.6363132,15.7397901 47.7275211,15.4401071 C47.7796398,15.3098102 47.8252431,15.1273973 47.8643322,14.8928628 C47.9034212,14.6974175 47.9229655,14.4628865 47.9229655,14.189263 L47.9229655,12.9775078 L47.8838766,12.89933 C47.2845108,13.9677647 46.3659313,14.5019741 45.1281106,14.5019741 C44.3463292,14.5019741 43.6101626,14.3260759 42.919589,13.9742742 C42.2290153,13.6224725 41.668747,13.0361452 41.2387672,12.2152746 C40.8087874,11.4074338 40.5938007,10.3650741 40.5938007,9.08816433 Z M43.4668333,9.26406429 C43.4668333,9.7070738 43.5384955,10.1631062 43.6818221,10.632175 C43.812119,11.0751846 44.0336205,11.4400104 44.3463331,11.7266637 C44.6720753,12.0263466 45.0890192,12.1761858 45.5971772,12.1761858 C47.1477105,12.1761858 47.9229655,11.1663998 47.9229655,9.14679765 C47.9229655,8.24774894 47.7210083,7.51809717 47.3170879,6.95782044 C46.9001377,6.38451401 46.3268399,6.0978651 45.5971772,6.0978651 C45.0108411,6.0978651 44.5092055,6.35194027 44.0922553,6.86009824 C43.6753052,7.3812859 43.4668333,8.1825999 43.4668333,9.26406429 Z M53.0240642,14.4237963 L53.0240642,4.00661008 L55.6625635,4.00661008 L55.6625635,5.53107636 C56.3661668,4.33234475 57.421556,3.73298793 58.8287627,3.73298793 C59.5714551,3.73298793 60.2229299,3.86979764 60.7832066,4.14342116 C61.3304537,4.43007437 61.7473975,4.827474 62.0340507,5.33563196 C62.320704,5.85681962 62.4640284,6.48223543 62.4640284,7.21189815 L62.4640284,14.4237963 L59.7082625,14.4237963 L59.7082625,8.1304868 C59.7082625,7.47900223 59.6040265,6.97085189 59.3955514,6.60602053 C59.1870764,6.24118917 58.6919555,6.05877622 57.910174,6.05877622 C57.1674816,6.05877622 56.6267575,6.29330715 56.2879856,6.76237604 C55.9492136,7.24447462 55.7798301,7.8112577 55.7798301,8.46274227 L55.7798301,14.4237963 L53.0240642,14.4237963 Z M69.8909154,10.1044752 L72.7248591,10.1044752 C72.7248591,10.6126331 72.8616688,11.0360918 73.1352923,11.3748637 C73.3828565,11.7136357 73.7216234,11.9677109 74.1516032,12.1370969 C74.5685533,12.2934532 75.0180709,12.3716302 75.5001695,12.3716302 C77.5588608,12.3716302 78.5881909,11.7983323 78.5881909,10.6517195 C78.5881909,10.2217397 78.483955,9.90251702 78.2754799,9.69404196 C78.0539752,9.4725372 77.8064147,9.31618325 77.5327912,9.22497541 L76.0474138,8.81454218 L74.6988475,8.50183115 C73.7867691,8.33244516 72.9854551,8.09139949 72.2948814,7.77868689 C71.6303672,7.47900399 71.1091873,7.05554537 70.7313263,6.50829833 C70.3274059,5.9480216 70.1254487,5.19882558 70.1254487,4.2606878 C70.1254487,3.43981723 70.3404353,2.69062122 70.7704152,2.01307726 C71.1873653,1.33553331 71.7932369,0.833897711 72.588048,0.508155425 C73.3828592,0.169383448 74.3274977,0 75.4219917,0 C76.4513374,0 77.3243136,0.136809708 78.0409466,0.410433228 C78.7966687,0.697086439 79.3699666,1.05539758 79.7608573,1.4853774 C80.1647777,1.92838691 80.4644561,2.416993 80.6599015,2.95121035 C80.7901984,3.31604171 80.8748902,3.58966113 80.9139792,3.77207681 C80.966098,4.01964095 80.992157,4.27371612 80.992157,4.53430995 L78.1777577,4.53430995 C78.0474608,3.14013296 77.0702486,2.44305493 75.2460918,2.44305493 C74.6206666,2.44305493 74.0603983,2.57986464 73.56527,2.85348816 C73.0701417,3.12711168 72.8225813,3.5245113 72.8225813,4.04569896 C72.8225813,4.77536168 73.1939219,5.25745303 73.9366144,5.49198748 L75.9301472,5.98059846 L77.2982579,6.33239837 C78.3666926,6.57996251 79.1810361,6.84706718 79.7413129,7.13372039 C80.2885599,7.43340329 80.7055038,7.81777343 80.992157,8.28684232 C81.2788102,8.7689409 81.4221347,9.41390095 81.4221347,10.2217418 C81.4221347,11.1729093 81.2136627,11.9677086 80.7967126,12.6061634 C80.3667328,13.2315886 79.8325234,13.7071652 79.1940686,14.0329075 C78.5816731,14.3456201 78.0018605,14.554092 77.4546135,14.6583296 C77.1809899,14.7104483 76.9334295,14.7495368 76.7119248,14.7755962 L76.6532914,14.7755962 C76.3666382,14.8016556 76.164681,14.8146851 76.0474138,14.8146851 C74.0278116,14.8146851 72.5033606,14.4172855 71.474015,13.6224743 C70.41861,12.8146334 69.8909154,11.6419788 69.8909154,10.1044752 Z M86.2300668,14.8342295 L82.6729788,4.88610986 L82.3798122,4.00661008 L85.4287447,4.00661008 L87.6372664,11.6680303 L89.8262436,4.00661008 L92.7188206,4.00661008 L89.2399104,14.0133631 L88.3017773,16.5932291 C88.0672429,17.1404761 87.8196825,17.5639347 87.5590886,17.8636176 C87.2854651,18.1763302 86.9727572,18.3782874 86.6209555,18.4694953 C86.2300648,18.5737328 85.7284292,18.6258508 85.1160337,18.6258508 L84.4319783,18.6063063 L83.9042785,18.5867619 L83.9042785,16.3782402 L84.3928894,16.4173291 C84.7446911,16.4173291 85.0378548,16.3847554 85.2723892,16.3196069 C85.493894,16.2544585 85.6893364,16.111134 85.8587224,15.8896293 C85.9369006,15.7593323 86.002048,15.6160079 86.0541668,15.4596516 C86.1193153,15.2511765 86.177948,15.0427046 86.2300668,14.8342295 Z M93.6374093,11.1012416 L96.471353,11.1012416 C96.471353,12.1175575 97.220549,12.6257079 98.7189635,12.6257079 C99.3052997,12.6257079 99.7483025,12.5149572 100.047985,12.2934524 C100.334639,12.0849773 100.477963,11.8439317 100.477963,11.5703081 C100.477963,11.1794174 100.093593,10.8862537 99.3248412,10.6908084 L96.959964,10.1240196 C96.1651528,9.92857425 95.4811043,9.61586635 94.9077979,9.18588653 C94.3214617,8.75590671 94.0282981,8.09791717 94.0282981,7.21189815 C94.0282981,6.57344327 94.1781373,5.98711595 94.4778202,5.4528986 C94.7644734,4.94474063 95.24005,4.52779676 95.9045643,4.20205448 C96.5560488,3.88934188 97.3443333,3.73298793 98.2694414,3.73298793 C99.5333215,3.73298793 100.504019,3.91540087 101.181563,4.28023223 C101.872137,4.64506359 102.321654,5.09458121 102.530129,5.62879856 C102.660426,5.91545177 102.758147,6.17604169 102.823296,6.41057613 C102.888444,6.69722934 102.921018,6.95130452 102.921018,7.17280927 L100.204341,7.17280927 C100.152222,6.71677007 99.9958682,6.38451792 99.7352744,6.17604286 C99.4746806,5.9545381 99.0186482,5.84378739 98.3671636,5.84378739 C97.2596399,5.84378739 96.7058863,6.16952479 96.7058863,6.82100936 C96.7058863,7.17281103 97.0772269,7.4399157 97.8199193,7.62233138 L100.204341,8.20866456 C101.012182,8.40410993 101.722289,8.71681783 102.334685,9.14679765 C102.934051,9.57677747 103.233729,10.2282523 103.233729,11.1012416 C103.233729,11.8569637 103.051316,12.495409 102.686485,13.0165967 C102.308624,13.550814 101.787444,13.9612431 101.12293,14.2478963 C100.419326,14.5475792 99.6049828,14.6974184 98.6798747,14.6974184 C98.3541324,14.6974184 98.0218802,14.6778742 97.6831083,14.6387851 C97.396455,14.5996961 97.0772324,14.5475781 96.7254307,14.4824296 C96.1130352,14.339103 95.5788259,14.1176016 95.1227867,13.8179187 C94.6537178,13.5052061 94.2888919,13.1208359 94.0282981,12.6647967 C93.7677043,12.2087575 93.6374093,11.6875777 93.6374093,11.1012416 Z M105.559517,12.2934524 L105.559517,5.98059846 L104.152318,5.98059846 L104.152318,4.00661008 L105.559517,4.00661008 L105.559517,1.21175524 L108.315283,1.21175524 L108.315283,4.00661008 L109.996105,4.00661008 L109.996105,5.98059846 L108.315283,5.98059846 L108.315283,11.6289415 C108.315283,11.9807431 108.373916,12.2087593 108.491183,12.3129968 C108.62148,12.4172344 108.927673,12.4693524 109.409772,12.4693524 L109.722483,12.4498079 L109.996105,12.4302635 L109.996105,14.5019741 L109.370683,14.5215185 L108.725717,14.5410629 L108.354372,14.5410629 C107.624709,14.5410629 107.044897,14.4498565 106.614917,14.2674408 C106.184937,14.0850251 105.904803,13.8309499 105.774506,13.5052076 C105.63118,13.153406 105.559517,12.7494916 105.559517,12.2934524 Z M110.895149,9.00998658 C110.895149,8.11093787 111.064533,7.25099113 111.403305,6.43012057 C111.742077,5.60925001 112.289316,4.95777521 113.045038,4.47567663 C113.813789,3.98054835 114.764943,3.73298793 115.898526,3.73298793 C117.097257,3.73298793 118.054925,3.99357785 118.771558,4.51476551 C119.488191,5.03595317 120.002857,5.7330312 120.315569,6.60602053 C120.628282,7.47900985 120.784636,8.43016306 120.784636,9.45950868 L120.784636,9.94811967 L113.611826,9.94811967 C113.611826,10.7820199 113.833328,11.4139505 114.276337,11.8439303 C114.706317,12.2869398 115.312189,12.5084412 116.09397,12.5084412 C116.497891,12.5084412 116.869231,12.3976905 117.208003,12.1761858 C117.546775,11.954681 117.761762,11.6875763 117.85297,11.3748637 L120.667369,11.3748637 C120.445864,12.1045265 120.120127,12.7038833 119.690147,13.1729522 C119.247138,13.6680804 118.719443,14.0459358 118.107047,14.3065297 C117.468593,14.5671235 116.797574,14.6974184 116.09397,14.6974184 C112.628072,14.6974184 110.895149,12.8016268 110.895149,9.00998658 Z M113.729093,8.20866456 L117.970236,8.20866456 C117.918118,7.5441503 117.696616,6.99691146 117.305725,6.56693165 C116.914835,6.1760409 116.432743,5.98059846 115.859437,5.98059846 C114.634646,5.98059846 113.924538,6.72327974 113.729093,8.20866456 Z M122.582724,14.4237963 L122.582724,4.00661008 L125.182135,4.00661008 L125.182135,5.57016524 L125.221223,5.53107636 C125.872708,4.33234475 126.869464,3.73298793 128.211523,3.73298793 C128.967245,3.73298793 129.547057,3.86979764 129.950978,4.14342116 C130.367928,4.41704468 130.752298,4.8405033 131.1041,5.41380972 C131.455901,4.87959237 131.846786,4.46916325 132.276766,4.18251004 C132.693716,3.88282713 133.23444,3.73298793 133.898955,3.73298793 C134.732855,3.73298793 135.416903,3.89585663 135.951121,4.22159892 C136.485338,4.5473412 136.869708,4.98382932 137.104243,5.53107636 C137.351807,6.02620463 137.475587,6.58647296 137.475587,7.21189815 L137.475587,14.4237963 L134.778454,14.4237963 L134.778454,8.1304868 C134.778454,6.74933951 134.263789,6.05877622 133.234444,6.05877622 C132.022682,6.05877622 131.416811,6.7753985 131.416811,8.20866456 L131.416811,14.4237963 L128.661045,14.4237963 L128.661045,8.16957568 C128.661045,7.71353648 128.634986,7.35522534 128.582867,7.09463151 C128.530748,6.79494861 128.374394,6.54087344 128.1138,6.33239837 C127.853207,6.14998269 127.488381,6.05877622 127.019312,6.05877622 C125.898758,6.05877622 125.33849,6.73631001 125.33849,8.09139792 L125.33849,14.4237963 L122.582724,14.4237963 Z M139.273675,11.1012416 L142.107619,11.1012416 C142.107619,12.1175575 142.856815,12.6257079 144.35523,12.6257079 C144.941566,12.6257079 145.384569,12.5149572 145.684251,12.2934524 C145.970905,12.0849773 146.114229,11.8439317 146.114229,11.5703081 C146.114229,11.1794174 145.729859,10.8862537 144.961107,10.6908084 L142.59623,10.1240196 C141.801419,9.92857425 141.11737,9.61586635 140.544064,9.18588653 C139.957728,8.75590671 139.664564,8.09791717 139.664564,7.21189815 C139.664564,6.57344327 139.814403,5.98711595 140.114086,5.4528986 C140.400739,4.94474063 140.876316,4.52779676 141.54083,4.20205448 C142.192315,3.88934188 142.980599,3.73298793 143.905708,3.73298793 C145.169588,3.73298793 146.140285,3.91540087 146.817829,4.28023223 C147.508403,4.64506359 147.95792,5.09458121 148.166395,5.62879856 C148.296692,5.91545177 148.394413,6.17604169 148.459562,6.41057613 C148.52471,6.69722934 148.557284,6.95130452 148.557284,7.17280927 L145.840607,7.17280927 C145.788488,6.71677007 145.632134,6.38451792 145.37154,6.17604286 C145.110947,5.9545381 144.654914,5.84378739 144.00343,5.84378739 C142.895906,5.84378739 142.342152,6.16952479 142.342152,6.82100936 C142.342152,7.17281103 142.713493,7.4399157 143.456185,7.62233138 L145.840607,8.20866456 C146.648448,8.40410993 147.358555,8.71681783 147.970951,9.14679765 C148.570317,9.57677747 148.869995,10.2282523 148.869995,11.1012416 C148.869995,11.8569637 148.687582,12.495409 148.322751,13.0165967 C147.94489,13.550814 147.42371,13.9612431 146.759196,14.2478963 C146.055592,14.5475792 145.241249,14.6974184 144.316141,14.6974184 C143.990398,14.6974184 143.658146,14.6778742 143.319374,14.6387851 C143.032721,14.5996961 142.713498,14.5475781 142.361697,14.4824296 C141.749301,14.339103 141.215092,14.1176016 140.759053,13.8179187 C140.289984,13.5052061 139.925158,13.1208359 139.664564,12.6647967 C139.40397,12.2087575 139.273675,11.6875777 139.273675,11.1012416 Z" id="Design-Systems"></path>
                    <path d="M3.6875,37.0625 L3.8984375,38.484375 L3.9453125,38.4921875 L4.25,37.0625 L6.3359375,29.625 L7.6953125,29.625 L9.796875,37.0625 L10.109375,38.5234375 L10.15625,38.5234375 L10.3828125,37.0625 L12.078125,29.625 L13.6171875,29.625 L10.875,41 L9.5,41 L7.2578125,33.109375 L7.0546875,32.0859375 L7.0078125,32.0859375 L6.8125,33.109375 L4.53125,41 L3.15625,41 L0.421875,29.625 L1.953125,29.625 L3.6875,37.0625 Z M14.890625,36.6953125 C14.890625,35.4453063 15.2291633,34.4153686 15.90625,33.6054688 C16.5833367,32.7955689 17.5025984,32.390625 18.6640625,32.390625 C19.8359434,32.390625 20.7617154,32.7942668 21.4414062,33.6015625 C22.1210971,34.4088582 22.4609375,35.4400979 22.4609375,36.6953125 L22.4609375,36.8671875 C22.4609375,38.1276105 22.1223992,39.1588502 21.4453125,39.9609375 C20.7682258,40.7630248 19.84636,41.1640625 18.6796875,41.1640625 C17.513015,41.1640625 16.5898471,40.7617228 15.9101562,39.9570312 C15.2304654,39.1523397 14.890625,38.1224021 14.890625,36.8671875 L14.890625,36.6953125 Z M16.4296875,36.8671875 C16.4296875,37.7630253 16.6184877,38.5026012 16.9960938,39.0859375 C17.3736998,39.6692738 17.9348921,39.9609375 18.6796875,39.9609375 C19.4140662,39.9609375 19.9713523,39.6692738 20.3515625,39.0859375 C20.7317727,38.5026012 20.921875,37.7630253 20.921875,36.8671875 L20.921875,36.6953125 C20.921875,35.8098914 20.7304707,35.0729196 20.3476562,34.484375 C19.9648418,33.8958304 19.4036495,33.6015625 18.6640625,33.6015625 C17.9296838,33.6015625 17.3736998,33.8958304 16.9960938,34.484375 C16.6184877,35.0729196 16.4296875,35.8098914 16.4296875,36.6953125 L16.4296875,36.8671875 Z M28.34375,33.90625 L27.5546875,33.859375 C27.1484355,33.859375 26.805991,33.9557282 26.5273438,34.1484375 C26.2486965,34.3411468 26.0338549,34.6119774 25.8828125,34.9609375 L25.8828125,41 L24.34375,41 L24.34375,32.546875 L25.71875,32.546875 L25.8671875,33.78125 C26.106772,33.3437478 26.402342,33.0026054 26.7539062,32.7578125 C27.1054705,32.5130196 27.5104144,32.390625 27.96875,32.390625 C28.0833339,32.390625 28.1927078,32.3997395 28.296875,32.4179688 C28.4010422,32.436198 28.4869788,32.4557291 28.5546875,32.4765625 L28.34375,33.90625 Z M32.375,37.1015625 L31.375,37.1015625 L31.375,41 L29.8359375,41 L29.8359375,28.8125 L31.375,28.8125 L31.375,35.875 L32.359375,35.875 L34.671875,32.546875 L36.515625,32.546875 L33.625,36.390625 L36.9296875,41 L35.1171875,41 L32.375,37.1015625 Z M42.9453125,38.7578125 C42.9453125,38.4192691 42.8164075,38.1406261 42.5585938,37.921875 C42.30078,37.7031239 41.8125036,37.5130216 41.09375,37.3515625 C40.0677032,37.127603 39.2955755,36.8242207 38.7773438,36.4414062 C38.259112,36.0585918 38,35.5364616 38,34.875 C38,34.1874966 38.2916638,33.6015649 38.875,33.1171875 C39.4583363,32.6328101 40.2187453,32.390625 41.15625,32.390625 C42.1406299,32.390625 42.9231742,32.6432266 43.5039063,33.1484375 C44.0846383,33.6536484 44.3619793,34.2682255 44.3359375,34.9921875 L44.3203125,35.0390625 L42.8515625,35.0390625 C42.8515625,34.669269 42.6966161,34.3372411 42.3867188,34.0429688 C42.0768214,33.7486964 41.6666692,33.6015625 41.15625,33.6015625 C40.6093723,33.6015625 40.2031263,33.721353 39.9375,33.9609375 C39.6718737,34.200522 39.5390625,34.4895816 39.5390625,34.828125 C39.5390625,35.16146 39.6562488,35.4244782 39.890625,35.6171875 C40.1250012,35.8098968 40.6015589,35.9817701 41.3203125,36.1328125 C42.3880262,36.3619803 43.1822891,36.6731751 43.703125,37.0664062 C44.2239609,37.4596374 44.484375,37.9869759 44.484375,38.6484375 C44.484375,39.3984412 44.1809926,40.005206 43.5742188,40.46875 C42.9674449,40.932294 42.1744841,41.1640625 41.1953125,41.1640625 C40.1171821,41.1640625 39.2682323,40.8906277 38.6484375,40.34375 C38.0286427,39.7968723 37.7343748,39.1588578 37.765625,38.4296875 L37.78125,38.3828125 L39.25,38.3828125 C39.2760418,38.9296902 39.4791648,39.3294258 39.859375,39.5820312 C40.2395852,39.8346367 40.6848933,39.9609375 41.1953125,39.9609375 C41.7421902,39.9609375 42.1705714,39.8502615 42.4804688,39.6289062 C42.7903661,39.407551 42.9453125,39.1171893 42.9453125,38.7578125 Z M47.9375,33.6796875 C48.2291681,33.2734355 48.5872375,32.9570324 49.0117188,32.7304688 C49.4362,32.5039051 49.9062474,32.390625 50.421875,32.390625 C51.3229212,32.390625 52.0247371,32.6614556 52.5273438,33.203125 C53.0299504,33.7447944 53.28125,34.5781194 53.28125,35.703125 L53.28125,41 L51.7421875,41 L51.7421875,35.6875 C51.7421875,34.9895798 51.5924494,34.47396 51.2929688,34.140625 C50.9934881,33.80729 50.546878,33.640625 49.953125,33.640625 C49.5260395,33.640625 49.1393246,33.7408844 48.7929688,33.9414062 C48.4466129,34.1419281 48.1614595,34.4140608 47.9375,34.7578125 L47.9375,41 L46.3984375,41 L46.3984375,28.8125 L47.9375,28.8125 L47.9375,33.6796875 Z M55.1328125,36.6953125 C55.1328125,35.4453063 55.4713508,34.4153686 56.1484375,33.6054688 C56.8255242,32.7955689 57.7447859,32.390625 58.90625,32.390625 C60.0781309,32.390625 61.0039029,32.7942668 61.6835938,33.6015625 C62.3632846,34.4088582 62.703125,35.4400979 62.703125,36.6953125 L62.703125,36.8671875 C62.703125,38.1276105 62.3645867,39.1588502 61.6875,39.9609375 C61.0104133,40.7630248 60.0885475,41.1640625 58.921875,41.1640625 C57.7552025,41.1640625 56.8320346,40.7617228 56.1523438,39.9570312 C55.4726529,39.1523397 55.1328125,38.1224021 55.1328125,36.8671875 L55.1328125,36.6953125 Z M56.671875,36.8671875 C56.671875,37.7630253 56.8606752,38.5026012 57.2382812,39.0859375 C57.6158873,39.6692738 58.1770796,39.9609375 58.921875,39.9609375 C59.6562537,39.9609375 60.2135398,39.6692738 60.59375,39.0859375 C60.9739602,38.5026012 61.1640625,37.7630253 61.1640625,36.8671875 L61.1640625,36.6953125 C61.1640625,35.8098914 60.9726582,35.0729196 60.5898438,34.484375 C60.2070293,33.8958304 59.645837,33.6015625 58.90625,33.6015625 C58.1718713,33.6015625 57.6158873,33.8958304 57.2382812,34.484375 C56.8606752,35.0729196 56.671875,35.8098914 56.671875,36.6953125 L56.671875,36.8671875 Z M71.7890625,37.09375 C71.7890625,38.3125061 71.4973988,39.2955692 70.9140625,40.0429688 C70.3307262,40.7903683 69.5260468,41.1640625 68.5,41.1640625 C67.9791641,41.1640625 67.5221374,41.0768238 67.1289062,40.9023438 C66.7356751,40.7278637 66.401043,40.4661476 66.125,40.1171875 L66.125,44.25 L64.5859375,44.25 L64.5859375,32.546875 L65.765625,32.546875 L66.0078125,33.640625 C66.2838555,33.234373 66.6276021,32.9244802 67.0390625,32.7109375 C67.4505229,32.4973948 67.9296848,32.390625 68.4765625,32.390625 C69.5234427,32.390625 70.3372367,32.8059854 70.9179688,33.6367188 C71.4987008,34.4674521 71.7890625,35.5650973 71.7890625,36.9296875 L71.7890625,37.09375 Z M70.25,36.9296875 C70.25,35.9713494 70.0611998,35.1835968 69.6835938,34.5664062 C69.3059877,33.9492157 68.7500037,33.640625 68.015625,33.640625 C67.5729145,33.640625 67.1953141,33.7408844 66.8828125,33.9414062 C66.5703109,34.1419281 66.3177093,34.4166649 66.125,34.765625 L66.125,38.8515625 C66.3177093,39.2005226 66.5703109,39.4726553 66.8828125,39.6679688 C67.1953141,39.8632822 67.5781227,39.9609375 68.03125,39.9609375 C68.7604203,39.9609375 69.3124981,39.6940131 69.6875,39.1601562 C70.0625019,38.6262994 70.25,37.9375042 70.25,37.09375 L70.25,36.9296875 Z M79.8203125,37.921875 L80,38.9453125 L80.046875,38.9453125 L80.265625,37.921875 L81.953125,32.546875 L83.1875,32.546875 L84.8828125,37.921875 L85.125,39.0625 L85.171875,39.0625 L85.3984375,37.921875 L86.7265625,32.546875 L88.2578125,32.546875 L85.8046875,41 L84.5625,41 L82.9296875,35.8515625 L82.578125,34.4140625 L82.53125,34.421875 L82.1953125,35.8515625 L80.5859375,41 L79.34375,41 L76.890625,32.546875 L78.421875,32.546875 L79.8203125,37.921875 Z M91.4296875,41 L89.890625,41 L89.890625,32.546875 L91.4296875,32.546875 L91.4296875,41 Z M91.4296875,30.3828125 L89.890625,30.3828125 L89.890625,28.8125 L91.4296875,28.8125 L91.4296875,30.3828125 Z M95.828125,30.5078125 L95.828125,32.546875 L97.4296875,32.546875 L97.4296875,33.6875 L95.828125,33.6875 L95.828125,38.8203125 C95.828125,39.2161478 95.9101554,39.4947909 96.0742188,39.65625 C96.2382821,39.8177091 96.4557278,39.8984375 96.7265625,39.8984375 C96.8151046,39.8984375 96.9127599,39.8880209 97.0195312,39.8671875 C97.1263026,39.8463541 97.2213537,39.8203127 97.3046875,39.7890625 L97.5078125,40.84375 C97.3932286,40.9375005 97.2252615,41.0143226 97.0039062,41.0742188 C96.782551,41.1341149 96.559897,41.1640625 96.3359375,41.1640625 C95.7109344,41.1640625 95.2135435,40.9752623 94.84375,40.5976562 C94.4739565,40.2200502 94.2890625,39.6276082 94.2890625,38.8203125 L94.2890625,33.6875 L92.9453125,33.6875 L92.9453125,32.546875 L94.2890625,32.546875 L94.2890625,30.5078125 L95.828125,30.5078125 Z M100.867188,33.6796875 C101.158856,33.2734355 101.516925,32.9570324 101.941406,32.7304688 C102.365888,32.5039051 102.835935,32.390625 103.351562,32.390625 C104.252609,32.390625 104.954425,32.6614556 105.457031,33.203125 C105.959638,33.7447944 106.210938,34.5781194 106.210938,35.703125 L106.210938,41 L104.671875,41 L104.671875,35.6875 C104.671875,34.9895798 104.522137,34.47396 104.222656,34.140625 C103.923176,33.80729 103.476565,33.640625 102.882812,33.640625 C102.455727,33.640625 102.069012,33.7408844 101.722656,33.9414062 C101.3763,34.1419281 101.091147,34.4140608 100.867188,34.7578125 L100.867188,41 L99.328125,41 L99.328125,28.8125 L100.867188,28.8125 L100.867188,33.6796875 Z M118.851562,38.0703125 L114.085938,38.0703125 L113.007812,41 L111.4375,41 L115.835938,29.625 L117.15625,29.625 L121.484375,41 L119.914062,41 L118.851562,38.0703125 Z M114.5625,36.78125 L118.390625,36.78125 L116.515625,31.6015625 L116.46875,31.6015625 L114.5625,36.78125 Z M124.421875,41 L122.882812,41 L122.882812,28.8125 L124.421875,28.8125 L124.421875,41 Z M128.453125,41 L126.914062,41 L126.914062,28.8125 L128.453125,28.8125 L128.453125,41 Z M136.015625,41 C135.963541,40.7447904 135.923177,40.5195322 135.894531,40.3242188 C135.865885,40.1289053 135.848958,39.9322927 135.84375,39.734375 C135.55729,40.140627 135.183596,40.4804674 134.722656,40.7539062 C134.261716,41.0273451 133.765628,41.1640625 133.234375,41.1640625 C132.354162,41.1640625 131.683596,40.9388043 131.222656,40.4882812 C130.761716,40.0377582 130.53125,39.4166706 130.53125,38.625 C130.53125,37.8177043 130.85807,37.1862002 131.511719,36.7304688 C132.165368,36.2747373 133.052078,36.046875 134.171875,36.046875 L135.84375,36.046875 L135.84375,35.2109375 C135.84375,34.7161434 135.69271,34.3242202 135.390625,34.0351562 C135.08854,33.7460923 134.661461,33.6015625 134.109375,33.6015625 C133.614581,33.6015625 133.212241,33.7278633 132.902344,33.9804688 C132.592446,34.2330742 132.4375,34.5364566 132.4375,34.890625 L130.96875,34.890625 L130.953125,34.84375 C130.921875,34.2291636 131.212237,33.6666692 131.824219,33.15625 C132.436201,32.6458308 133.226558,32.390625 134.195312,32.390625 C135.153651,32.390625 135.924476,32.6341121 136.507812,33.1210938 C137.091149,33.6080754 137.382812,34.3098912 137.382812,35.2265625 L137.382812,39.296875 C137.382812,39.5989598 137.398437,39.8906236 137.429688,40.171875 C137.460938,40.4531264 137.518229,40.7291653 137.601562,41 L136.015625,41 Z M133.460938,39.875 C134.018232,39.875 134.520831,39.7317723 134.96875,39.4453125 C135.416669,39.1588527 135.708333,38.830731 135.84375,38.4609375 L135.84375,37.0859375 L134.117188,37.0859375 C133.497393,37.0859375 133.001304,37.2421859 132.628906,37.5546875 C132.256509,37.8671891 132.070312,38.2343729 132.070312,38.65625 C132.070312,39.0312519 132.187499,39.3281239 132.421875,39.546875 C132.656251,39.7656261 133.002602,39.875 133.460938,39.875 Z M146.75,35.8671875 L145.421875,35.8671875 L145.421875,41 L143.882812,41 L143.882812,29.625 L145.421875,29.625 L145.421875,34.65625 L146.609375,34.65625 L150.679688,29.625 L152.382812,29.625 L152.40625,29.6640625 L147.992188,35.125 L152.726562,40.9609375 L152.703125,41 L150.867188,41 L146.75,35.8671875 Z M155.421875,33.6796875 C155.713543,33.2734355 156.071612,32.9570324 156.496094,32.7304688 C156.920575,32.5039051 157.390622,32.390625 157.90625,32.390625 C158.807296,32.390625 159.509112,32.6614556 160.011719,33.203125 C160.514325,33.7447944 160.765625,34.5781194 160.765625,35.703125 L160.765625,41 L159.226562,41 L159.226562,35.6875 C159.226562,34.9895798 159.076824,34.47396 158.777344,34.140625 C158.477863,33.80729 158.031253,33.640625 157.4375,33.640625 C157.010415,33.640625 156.6237,33.7408844 156.277344,33.9414062 C155.930988,34.1419281 155.645834,34.4140608 155.421875,34.7578125 L155.421875,41 L153.882812,41 L153.882812,28.8125 L155.421875,28.8125 L155.421875,33.6796875 Z M162.617188,36.6953125 C162.617188,35.4453063 162.955726,34.4153686 163.632812,33.6054688 C164.309899,32.7955689 165.229161,32.390625 166.390625,32.390625 C167.562506,32.390625 168.488278,32.7942668 169.167969,33.6015625 C169.84766,34.4088582 170.1875,35.4400979 170.1875,36.6953125 L170.1875,36.8671875 C170.1875,38.1276105 169.848962,39.1588502 169.171875,39.9609375 C168.494788,40.7630248 167.572923,41.1640625 166.40625,41.1640625 C165.239577,41.1640625 164.31641,40.7617228 163.636719,39.9570312 C162.957028,39.1523397 162.617188,38.1224021 162.617188,36.8671875 L162.617188,36.6953125 Z M164.15625,36.8671875 C164.15625,37.7630253 164.34505,38.5026012 164.722656,39.0859375 C165.100262,39.6692738 165.661455,39.9609375 166.40625,39.9609375 C167.140629,39.9609375 167.697915,39.6692738 168.078125,39.0859375 C168.458335,38.5026012 168.648438,37.7630253 168.648438,36.8671875 L168.648438,36.6953125 C168.648438,35.8098914 168.457033,35.0729196 168.074219,34.484375 C167.691404,33.8958304 167.130212,33.6015625 166.390625,33.6015625 C165.656246,33.6015625 165.100262,33.8958304 164.722656,34.484375 C164.34505,35.0729196 164.15625,35.8098914 164.15625,36.6953125 L164.15625,36.8671875 Z M173.734375,41 L172.195312,41 L172.195312,28.8125 L173.734375,28.8125 L173.734375,41 Z M177.476562,32.546875 L177.585938,33.65625 C177.861981,33.2552063 178.212237,32.9440115 178.636719,32.7226562 C179.0612,32.501301 179.554685,32.390625 180.117188,32.390625 C180.67969,32.390625 181.162758,32.520832 181.566406,32.78125 C181.970054,33.041668 182.273436,33.4322891 182.476562,33.953125 C182.742189,33.4739559 183.093748,33.0937514 183.53125,32.8125 C183.968752,32.5312486 184.479164,32.390625 185.0625,32.390625 C185.921879,32.390625 186.60156,32.686195 187.101562,33.2773438 C187.601565,33.8684925 187.851562,34.7578066 187.851562,35.9453125 L187.851562,41 L186.3125,41 L186.3125,35.9296875 C186.3125,35.09635 186.169272,34.5065121 185.882812,34.1601562 C185.596353,33.8138004 185.169274,33.640625 184.601562,33.640625 C184.075518,33.640625 183.649741,33.8229148 183.324219,34.1875 C182.998696,34.5520852 182.807292,35.013018 182.75,35.5703125 L182.75,41 L181.203125,41 L181.203125,35.9296875 C181.203125,35.1380169 181.055991,34.5585956 180.761719,34.1914062 C180.467446,33.8242169 180.044274,33.640625 179.492188,33.640625 C179.023435,33.640625 178.638022,33.7369782 178.335938,33.9296875 C178.033853,34.1223968 177.802084,34.3932274 177.640625,34.7421875 L177.640625,41 L176.101562,41 L176.101562,32.546875 L177.476562,32.546875 Z M195.28125,41 C195.229166,40.7447904 195.188802,40.5195322 195.160156,40.3242188 C195.13151,40.1289053 195.114583,39.9322927 195.109375,39.734375 C194.822915,40.140627 194.449221,40.4804674 193.988281,40.7539062 C193.527341,41.0273451 193.031253,41.1640625 192.5,41.1640625 C191.619787,41.1640625 190.949221,40.9388043 190.488281,40.4882812 C190.027341,40.0377582 189.796875,39.4166706 189.796875,38.625 C189.796875,37.8177043 190.123695,37.1862002 190.777344,36.7304688 C191.430993,36.2747373 192.317703,36.046875 193.4375,36.046875 L195.109375,36.046875 L195.109375,35.2109375 C195.109375,34.7161434 194.958335,34.3242202 194.65625,34.0351562 C194.354165,33.7460923 193.927086,33.6015625 193.375,33.6015625 C192.880206,33.6015625 192.477866,33.7278633 192.167969,33.9804688 C191.858071,34.2330742 191.703125,34.5364566 191.703125,34.890625 L190.234375,34.890625 L190.21875,34.84375 C190.1875,34.2291636 190.477862,33.6666692 191.089844,33.15625 C191.701826,32.6458308 192.492183,32.390625 193.460938,32.390625 C194.419276,32.390625 195.190101,32.6341121 195.773438,33.1210938 C196.356774,33.6080754 196.648438,34.3098912 196.648438,35.2265625 L196.648438,39.296875 C196.648438,39.5989598 196.664062,39.8906236 196.695312,40.171875 C196.726563,40.4531264 196.783854,40.7291653 196.867188,41 L195.28125,41 Z M192.726562,39.875 C193.283857,39.875 193.786456,39.7317723 194.234375,39.4453125 C194.682294,39.1588527 194.973958,38.830731 195.109375,38.4609375 L195.109375,37.0859375 L193.382812,37.0859375 C192.763018,37.0859375 192.266929,37.2421859 191.894531,37.5546875 C191.522134,37.8671891 191.335938,38.2343729 191.335938,38.65625 C191.335938,39.0312519 191.453124,39.3281239 191.6875,39.546875 C191.921876,39.7656261 192.268227,39.875 192.726562,39.875 Z M200.914062,30.5078125 L200.914062,32.546875 L202.515625,32.546875 L202.515625,33.6875 L200.914062,33.6875 L200.914062,38.8203125 C200.914062,39.2161478 200.996093,39.4947909 201.160156,39.65625 C201.32422,39.8177091 201.541665,39.8984375 201.8125,39.8984375 C201.901042,39.8984375 201.998697,39.8880209 202.105469,39.8671875 C202.21224,39.8463541 202.307291,39.8203127 202.390625,39.7890625 L202.59375,40.84375 C202.479166,40.9375005 202.311199,41.0143226 202.089844,41.0742188 C201.868488,41.1341149 201.645834,41.1640625 201.421875,41.1640625 C200.796872,41.1640625 200.299481,40.9752623 199.929688,40.5976562 C199.559894,40.2200502 199.375,39.6276082 199.375,38.8203125 L199.375,33.6875 L198.03125,33.6875 L198.03125,32.546875 L199.375,32.546875 L199.375,30.5078125 L200.914062,30.5078125 Z M204.054688,36.6953125 C204.054688,35.4453063 204.393226,34.4153686 205.070312,33.6054688 C205.747399,32.7955689 206.666661,32.390625 207.828125,32.390625 C209.000006,32.390625 209.925778,32.7942668 210.605469,33.6015625 C211.28516,34.4088582 211.625,35.4400979 211.625,36.6953125 L211.625,36.8671875 C211.625,38.1276105 211.286462,39.1588502 210.609375,39.9609375 C209.932288,40.7630248 209.010423,41.1640625 207.84375,41.1640625 C206.677077,41.1640625 205.75391,40.7617228 205.074219,39.9570312 C204.394528,39.1523397 204.054688,38.1224021 204.054688,36.8671875 L204.054688,36.6953125 Z M205.59375,36.8671875 C205.59375,37.7630253 205.78255,38.5026012 206.160156,39.0859375 C206.537762,39.6692738 207.098955,39.9609375 207.84375,39.9609375 C208.578129,39.9609375 209.135415,39.6692738 209.515625,39.0859375 C209.895835,38.5026012 210.085938,37.7630253 210.085938,36.8671875 L210.085938,36.6953125 C210.085938,35.8098914 209.894533,35.0729196 209.511719,34.484375 C209.128904,33.8958304 208.567712,33.6015625 207.828125,33.6015625 C207.093746,33.6015625 206.537762,33.8958304 206.160156,34.484375 C205.78255,35.0729196 205.59375,35.8098914 205.59375,36.6953125 L205.59375,36.8671875 Z M216.328125,38.5078125 L216.460938,39.1015625 L216.507812,39.1015625 L216.65625,38.5078125 L218.601562,32.546875 L220.171875,32.546875 L217.0625,41 L215.898438,41 L212.75,32.546875 L214.328125,32.546875 L216.328125,38.5078125 Z M226.75,41 C226.697916,40.7447904 226.657552,40.5195322 226.628906,40.3242188 C226.60026,40.1289053 226.583333,39.9322927 226.578125,39.734375 C226.291665,40.140627 225.917971,40.4804674 225.457031,40.7539062 C224.996091,41.0273451 224.500003,41.1640625 223.96875,41.1640625 C223.088537,41.1640625 222.417971,40.9388043 221.957031,40.4882812 C221.496091,40.0377582 221.265625,39.4166706 221.265625,38.625 C221.265625,37.8177043 221.592445,37.1862002 222.246094,36.7304688 C222.899743,36.2747373 223.786453,36.046875 224.90625,36.046875 L226.578125,36.046875 L226.578125,35.2109375 C226.578125,34.7161434 226.427085,34.3242202 226.125,34.0351562 C225.822915,33.7460923 225.395836,33.6015625 224.84375,33.6015625 C224.348956,33.6015625 223.946616,33.7278633 223.636719,33.9804688 C223.326821,34.2330742 223.171875,34.5364566 223.171875,34.890625 L221.703125,34.890625 L221.6875,34.84375 C221.65625,34.2291636 221.946612,33.6666692 222.558594,33.15625 C223.170576,32.6458308 223.960933,32.390625 224.929688,32.390625 C225.888026,32.390625 226.658851,32.6341121 227.242188,33.1210938 C227.825524,33.6080754 228.117188,34.3098912 228.117188,35.2265625 L228.117188,39.296875 C228.117188,39.5989598 228.132812,39.8906236 228.164062,40.171875 C228.195313,40.4531264 228.252604,40.7291653 228.335938,41 L226.75,41 Z M224.195312,39.875 C224.752607,39.875 225.255206,39.7317723 225.703125,39.4453125 C226.151044,39.1588527 226.442708,38.830731 226.578125,38.4609375 L226.578125,37.0859375 L224.851562,37.0859375 C224.231768,37.0859375 223.735679,37.2421859 223.363281,37.5546875 C222.990884,37.8671891 222.804688,38.2343729 222.804688,38.65625 C222.804688,39.0312519 222.921874,39.3281239 223.15625,39.546875 C223.390626,39.7656261 223.736977,39.875 224.195312,39.875 Z" id="Workshop-with-Alla-K"></path>
                </g>
            </g>
        </g>
    </g>
</svg>