<?xml version="1.0" encoding="UTF-8" standalone="no"?>
<svg width="219px" height="40px" viewBox="0 0 219 40" version="1.1" xmlns="http://www.w3.org/2000/svg" xmlns:xlink="http://www.w3.org/1999/xlink">
    <!-- Generator: Sketch 49.3 (51167) - http://www.bohemiancoding.com/sketch -->
    <title>logo</title>
    <desc>Created with Sketch.</desc>
    <defs></defs>
    <g id="Page-1" stroke="none" stroke-width="1" fill="none" fill-rule="evenodd">
        <g id="Homepage" transform="translate(-42.000000, -19.000000)">
            <g id="Header">
                <g id="logo" transform="translate(42.000000, 19.000000)">
                    <path d="M6.21922093,14.6827225 L0,14.6827225 L0,0.378010471 L6.27807791,0.378010471 C7.62525553,0.378010471 8.71736858,0.683068503 9.55444982,1.29319372 C10.3915311,1.90331893 11.0062534,2.71901758 11.3986352,3.74031414 C11.7779376,4.77487428 11.967586,5.84257739 11.967586,6.9434555 C11.967586,8.29634184 11.7844772,9.54310075 11.4182542,10.6837696 C11.0389518,11.8642293 10.4242294,12.8191936 9.57406881,13.5486911 C8.71082878,14.3047158 7.59255734,14.6827225 6.21922093,14.6827225 Z M2.88399204,12.2356021 L5.78760307,12.2356021 C6.8862722,12.2356021 7.69064289,11.7514883 8.20073927,10.7832461 C8.71083565,9.82826748 8.96588001,8.65445723 8.96588001,7.2617801 C8.96588001,6.7975544 8.93972162,6.39965262 8.88740404,6.06806283 C8.80892767,5.59057353 8.73699208,5.23909362 8.67159511,5.01361257 C8.50156298,4.37696017 8.18766223,3.85968785 7.72988342,3.4617801 C7.28518401,3.06387236 6.6377637,2.86492147 5.78760307,2.86492147 L2.88399204,2.86492147 L2.88399204,12.2356021 Z M13.1447256,9.17172775 C13.1447256,8.25653993 13.3147552,7.38115601 13.6548194,6.54554974 C13.9948837,5.70994347 14.54421,5.04677383 15.3028149,4.55602094 C16.0744992,4.05200446 17.0292806,3.8 18.1671879,3.8 C19.3704922,3.8 20.3318133,4.06526785 21.05118,4.59581152 C21.7705467,5.12635518 22.287175,5.83594669 22.6010805,6.72460733 C22.9149859,7.61326797 23.0719363,8.58149563 23.0719363,9.62931937 L23.0719363,10.1267016 L15.8717657,10.1267016 C15.8717657,10.9755714 16.0941121,11.618846 16.5388115,12.0565445 C16.9704315,12.5075066 17.5786142,12.7329843 18.3633779,12.7329843 C18.7688391,12.7329843 19.1415963,12.6202455 19.4816605,12.3947644 C19.8217248,12.1692833 20.0375315,11.8973838 20.1290873,11.5790576 L22.9542223,11.5790576 C22.7318726,12.3218187 22.4048927,12.9319348 21.9732727,13.4094241 C21.5285733,13.9134406 20.9988657,14.298079 20.3841342,14.5633508 C19.7432439,14.8286226 19.0696652,14.9612565 18.3633779,14.9612565 C14.884259,14.9612565 13.1447256,13.0314329 13.1447256,9.17172775 Z M15.9894797,8.35602094 L20.2468013,8.35602094 C20.1944837,7.67957777 19.9721373,7.12251528 19.5797555,6.68481675 C19.1873736,6.28690901 18.7034433,6.08795812 18.12795,6.08795812 C16.8984869,6.08795812 16.1856706,6.8439715 15.9894797,8.35602094 Z M24.1902189,11.3005236 L27.034973,11.3005236 C27.034973,12.3350837 27.7870269,12.852356 29.2911572,12.852356 C29.87973,12.852356 30.3244227,12.7396172 30.6252488,12.5141361 C30.9129955,12.3019187 31.0568666,12.0565459 31.0568666,11.7780105 C31.0568666,11.3801027 30.6710303,11.0816764 29.899346,10.8827225 L27.5254478,10.3057592 C26.7276048,10.1068053 26.0409469,9.78848386 25.4654535,9.35078534 C24.8768808,8.91308682 24.5825988,8.24328549 24.5825988,7.34136126 C24.5825988,6.69144527 24.7330096,6.0945926 25.0338357,5.55078534 C25.3215823,5.03350527 25.7989731,4.6090767 26.4660222,4.27748691 C27.1199919,3.95916071 27.9112834,3.8 28.8399204,3.8 C30.1086216,3.8 31.0830219,3.9856875 31.7631504,4.35706806 C32.4563583,4.72844863 32.9075907,5.18603568 33.116861,5.72984293 C33.2476549,6.02164195 33.3457489,6.2869098 33.4111459,6.52565445 C33.4765428,6.81745347 33.5092408,7.07608962 33.5092408,7.30157068 L30.7822007,7.30157068 C30.7298832,6.83734497 30.5729328,6.49912846 30.3113449,6.28691099 C30.049757,6.06142994 29.5919851,5.9486911 28.9380154,5.9486911 C27.8262668,5.9486911 27.2704009,6.28027592 27.2704009,6.9434555 C27.2704009,7.30157247 27.6431581,7.57347202 28.3886835,7.7591623 L30.7822007,8.35602094 C31.5931232,8.55497482 32.3059395,8.87329624 32.920671,9.31099476 C33.5223232,9.74869329 33.8231447,10.4118629 33.8231447,11.3005236 C33.8231447,12.0698119 33.640036,12.7197181 33.2738129,13.2502618 C32.8945105,13.794069 32.3713425,14.2118659 31.7042934,14.5036649 C30.9980061,14.8087275 30.1805562,14.9612565 29.2519192,14.9612565 C28.9249344,14.9612565 28.5914148,14.9413615 28.2513506,14.9015707 C27.9636039,14.8617799 27.6431636,14.8087263 27.2900199,14.7424084 C26.6752884,14.5965089 26.1390412,14.3710312 25.6812624,14.0659686 C25.2104042,13.7476424 24.8441867,13.3563723 24.5825988,12.8921466 C24.3210109,12.4279209 24.1902189,11.8973852 24.1902189,11.3005236 Z M35.883139,14.6827225 L35.883139,4.07853403 L38.6494171,4.07853403 L38.6494171,14.6827225 L35.883139,14.6827225 Z M35.883139,2.82513089 L35.883139,0.218848168 L38.6494171,0.218848168 L38.6494171,2.82513089 L35.883139,2.82513089 Z M40.7486494,9.2513089 C40.7486494,8.3095939 40.9055998,7.43420998 41.2195053,6.62513089 C41.5334107,5.80278821 42.0238807,5.12635518 42.6909298,4.59581152 C43.3318201,4.06526785 44.1427304,3.8 45.123685,3.8 C45.8038135,3.8 46.4250754,3.96579241 46.9874893,4.2973822 C47.5237445,4.62897199 47.9226601,5.08655904 48.1842479,5.67015707 L48.2234859,4.07853403 L50.8328121,4.07853403 L50.8328121,14.1455497 C50.8328121,15.1933735 50.6824013,16.0753891 50.3815752,16.791623 C50.0676697,17.4945934 49.5183434,18.0383925 48.7335798,18.4230366 C47.9357367,18.8076808 46.8567028,19 45.4964458,19 C44.9601907,19 44.3454684,18.9071563 43.6522604,18.721466 C42.9590525,18.5490393 42.3574094,18.2174545 41.8473131,17.7267016 C41.5857252,17.4879569 41.3895372,17.202794 41.2587432,16.8712042 C41.1017905,16.5396144 41.0233153,16.1881345 41.0233153,15.8167539 L43.9661643,15.8167539 C44.0707995,16.1748709 44.2539083,16.4401388 44.5154962,16.6125654 C44.8032428,16.7982557 45.2479356,16.8910995 45.8495877,16.8910995 C46.4773986,16.8910995 46.961329,16.7783606 47.3013932,16.5528796 C47.6152987,16.3008713 47.8180263,16.0223401 47.909582,15.7172775 C47.9618996,15.5846416 48.0076768,15.3989541 48.046915,15.1602094 C48.0861532,14.9612555 48.105772,14.7225145 48.105772,14.4439791 L48.105772,13.2104712 L48.066534,13.1308901 C47.4648818,14.2185046 46.5427984,14.7623037 45.3002559,14.7623037 C44.5154922,14.7623037 43.7765175,14.5832479 43.0833096,14.2251309 C42.3901017,13.8670139 41.8276962,13.2701612 41.3960762,12.434555 C40.9644562,11.6122123 40.7486494,10.5511409 40.7486494,9.2513089 Z M43.6326415,9.43036649 C43.6326415,9.88132861 43.704577,10.3455474 43.8484504,10.8230366 C43.9792443,11.2739988 44.2015907,11.6453738 44.5154962,11.9371728 C44.842481,12.2422354 45.2610154,12.3947644 45.7711117,12.3947644 C47.3275597,12.3947644 48.105772,11.3668515 48.105772,9.31099476 C48.105772,8.39580694 47.9030444,7.65305695 47.4975832,7.08272251 C47.0790425,6.49912448 46.5035578,6.20732984 45.7711117,6.20732984 C45.182539,6.20732984 44.6789899,6.465966 44.2604492,6.98324607 C43.8419086,7.51378974 43.6326415,8.32948839 43.6326415,9.43036649 Z M53.2263293,14.6827225 L53.2263293,4.07853403 L55.8748934,4.07853403 L55.8748934,5.63036649 C56.5811807,4.41011606 57.6405957,3.8 59.0531703,3.8 C59.7986958,3.8 60.4526557,3.93926562 61.0150697,4.21780105 C61.5644042,4.50960006 61.9829386,4.91413354 62.2706852,5.43141361 C62.5584319,5.96195728 62.7023031,6.59860013 62.7023031,7.34136126 L62.7023031,14.6827225 L59.936025,14.6827225 L59.936025,8.27643979 C59.936025,7.61326021 59.8313914,7.0959879 59.6221211,6.72460733 C59.4128508,6.35322676 58.9158413,6.16753927 58.1310776,6.16753927 C57.3855521,6.16753927 56.8427654,6.40628034 56.5027012,6.88376963 C56.1626369,7.37452252 55.9926073,7.9514801 55.9926073,8.61465969 L55.9926073,14.6827225 L53.2263293,14.6827225 Z M70.1575206,10.2858639 L73.0022747,10.2858639 C73.0022747,10.8031439 73.1396062,11.2342042 73.4142735,11.5790576 C73.662782,11.923911 74.0028412,12.1825471 74.4344612,12.3549738 C74.8530018,12.5141369 75.3042341,12.5937173 75.7881717,12.5937173 C77.854716,12.5937173 78.8879727,12.010128 78.8879727,10.8429319 C78.8879727,10.4052334 78.7833391,10.0802803 78.5740688,9.86806283 C78.3517191,9.64258177 78.1032143,9.48342106 77.8285471,9.39057592 L76.3375036,8.97277487 L74.983793,8.65445026 C74.0682354,8.48202357 73.2638647,8.23665081 72.5706568,7.91832461 C71.9036077,7.613262 71.3804398,7.18220174 71.0011373,6.62513089 C70.5956761,6.05479645 70.3929485,5.29215137 70.3929485,4.33717277 C70.3929485,3.5015665 70.6087553,2.73892142 71.0403753,2.04921466 C71.4589159,1.3595079 72.0670987,0.848867277 72.8649417,0.517277487 C73.6627848,0.172424105 74.6110266,0 75.7096958,0 C76.7429679,0 77.6192742,0.139265623 78.3386409,0.417801047 C79.0972458,0.709600063 79.6727305,1.07434336 80.0651123,1.51204188 C80.4705735,1.963004 80.7713951,2.46038123 80.967586,3.00418848 C81.09838,3.37556905 81.1833947,3.65410029 81.2226329,3.83979058 C81.2749505,4.09179882 81.3011089,4.35043497 81.3011089,4.61570681 L78.4759738,4.61570681 C78.3451799,3.1965025 77.36424,2.48691099 75.5331248,2.48691099 C74.9053139,2.48691099 74.3429084,2.62617662 73.8458914,2.90471204 C73.3488744,3.18324747 73.1003696,3.58778094 73.1003696,4.11832461 C73.1003696,4.86108574 73.4731268,5.35183127 74.2186523,5.59057592 L76.2197896,6.08795812 L77.5931191,6.4460733 C78.6656295,6.69808154 79.4830794,6.96998109 80.0454933,7.2617801 C80.5948279,7.56684271 81.0133622,7.9581128 81.3011089,8.43560209 C81.5888556,8.92635498 81.7327268,9.58289292 81.7327268,10.4052356 C81.7327268,11.3734778 81.5234596,12.1825447 81.104919,12.8324607 C80.673299,13.4691131 80.1370518,13.953227 79.4961615,14.2848168 C78.88143,14.603143 78.2994056,14.8153572 77.7500711,14.921466 C77.4754038,14.9745203 77.226899,15.0143105 77.0045493,15.0408377 L76.9456924,15.0408377 C76.6579457,15.0673649 76.4552181,15.0806283 76.3375036,15.0806283 C74.3101974,15.0806283 72.7799312,14.6760948 71.7466591,13.8670157 C70.6872281,13.044673 70.1575206,11.8509677 70.1575206,10.2858639 Z M86.5589991,15.1005236 L82.9883423,4.97382199 L82.6940574,4.07853403 L85.7546204,4.07853403 L87.9715667,11.8774869 L90.1688939,4.07853403 L93.072505,4.07853403 L89.5803241,14.2649215 L88.6386125,16.8910995 C88.4031834,17.4481703 88.1546786,17.8792306 87.8930907,18.1842932 C87.6184234,18.5026194 87.3045227,18.708202 86.951379,18.8010471 C86.5589972,18.9071559 86.0554481,18.9602094 85.4407165,18.9602094 L84.7540517,18.9403141 L84.2243389,18.9204188 L84.2243389,16.6722513 L84.7148138,16.7120419 C85.0679574,16.7120419 85.3622394,16.6788834 85.5976685,16.6125654 C85.8200182,16.5462475 86.0162061,16.4003502 86.1862383,16.1748691 C86.2647146,16.0422332 86.3301106,15.8963359 86.3824282,15.7371728 C86.4478252,15.5249553 86.5066816,15.312741 86.5589991,15.1005236 Z M93.9945977,11.3005236 L96.8393517,11.3005236 C96.8393517,12.3350837 97.5914056,12.852356 99.095536,12.852356 C99.6841087,12.852356 100.128801,12.7396172 100.429628,12.5141361 C100.717374,12.3019187 100.861245,12.0565459 100.861245,11.7780105 C100.861245,11.3801027 100.475409,11.0816764 99.7037248,10.8827225 L97.3298266,10.3057592 C96.5319835,10.1068053 95.8453256,9.78848386 95.2698322,9.35078534 C94.6812595,8.91308682 94.3869775,8.24328549 94.3869775,7.34136126 C94.3869775,6.69144527 94.5373883,6.0945926 94.8382144,5.55078534 C95.1259611,5.03350527 95.6033518,4.6090767 96.2704009,4.27748691 C96.9243706,3.95916071 97.7156621,3.8 98.6442991,3.8 C99.9130004,3.8 100.887401,3.9856875 101.567529,4.35706806 C102.260737,4.72844863 102.711969,5.18603568 102.92124,5.72984293 C103.052034,6.02164195 103.150128,6.2869098 103.215525,6.52565445 C103.280922,6.81745347 103.31362,7.07608962 103.31362,7.30157068 L100.586579,7.30157068 C100.534262,6.83734497 100.377312,6.49912846 100.115724,6.28691099 C99.8541357,6.06142994 99.3963638,5.9486911 98.7423941,5.9486911 C97.6306456,5.9486911 97.0747796,6.28027592 97.0747796,6.9434555 C97.0747796,7.30157247 97.4475368,7.57347202 98.1930623,7.7591623 L100.586579,8.35602094 C101.397502,8.55497482 102.110318,8.87329624 102.72505,9.31099476 C103.326702,9.74869329 103.627523,10.4118629 103.627523,11.3005236 C103.627523,12.0698119 103.444415,12.7197181 103.078192,13.2502618 C102.698889,13.794069 102.175721,14.2118659 101.508672,14.5036649 C100.802385,14.8087275 99.984935,14.9612565 99.056298,14.9612565 C98.7293131,14.9612565 98.3957936,14.9413615 98.0557293,14.9015707 C97.7679826,14.8617799 97.4475423,14.8087263 97.0943986,14.7424084 C96.4796671,14.5965089 95.94342,14.3710312 95.4856412,14.0659686 C95.014783,13.7476424 94.6485654,13.3563723 94.3869775,12.8921466 C94.1253897,12.4279209 93.9945977,11.8973852 93.9945977,11.3005236 Z M105.962184,12.5141361 L105.962184,6.08795812 L104.549616,6.08795812 L104.549616,4.07853403 L105.962184,4.07853403 L105.962184,1.23350785 L108.728462,1.23350785 L108.728462,4.07853403 L110.415695,4.07853403 L110.415695,6.08795812 L108.728462,6.08795812 L108.728462,11.8376963 C108.728462,12.1958133 108.787318,12.4279227 108.905033,12.5340314 C109.035827,12.6401401 109.343188,12.6931937 109.827125,12.6931937 L110.141029,12.6732984 L110.415695,12.6534031 L110.415695,14.7623037 L109.787887,14.782199 L109.140461,14.8020942 L108.7677,14.8020942 C108.035254,14.8020942 107.453229,14.7092505 107.021609,14.5235602 C106.589989,14.3378699 106.308787,14.0792338 106.177993,13.747644 C106.034119,13.389527 105.962184,12.9783618 105.962184,12.5141361 Z M111.318169,9.17172775 C111.318169,8.25653993 111.488198,7.38115601 111.828263,6.54554974 C112.168327,5.70994347 112.717653,5.04677383 113.476258,4.55602094 C114.247942,4.05200446 115.202724,3.8 116.340631,3.8 C117.543936,3.8 118.505257,4.06526785 119.224623,4.59581152 C119.94399,5.12635518 120.460618,5.83594669 120.774524,6.72460733 C121.088429,7.61326797 121.24538,8.58149563 121.24538,9.62931937 L121.24538,10.1267016 L114.045209,10.1267016 C114.045209,10.9755714 114.267555,11.618846 114.712255,12.0565445 C115.143875,12.5075066 115.752057,12.7329843 116.536821,12.7329843 C116.942282,12.7329843 117.31504,12.6202455 117.655104,12.3947644 C117.995168,12.1692833 118.210975,11.8973838 118.302531,11.5790576 L121.127666,11.5790576 C120.905316,12.3218187 120.578336,12.9319348 120.146716,13.4094241 C119.702017,13.9134406 119.172309,14.298079 118.557577,14.5633508 C117.916687,14.8286226 117.243108,14.9612565 116.536821,14.9612565 C113.057702,14.9612565 111.318169,13.0314329 111.318169,9.17172775 Z M114.162923,8.35602094 L118.420245,8.35602094 C118.367927,7.67957777 118.145581,7.12251528 117.753199,6.68481675 C117.360817,6.28690901 116.876887,6.08795812 116.301393,6.08795812 C115.07193,6.08795812 114.359114,6.8439715 114.162923,8.35602094 Z M123.050327,14.6827225 L123.050327,4.07853403 L125.659653,4.07853403 L125.659653,5.67015707 L125.698891,5.63036649 C126.352861,4.41011606 127.353419,3.8 128.700597,3.8 C129.459202,3.8 130.041226,3.93926562 130.446688,4.21780105 C130.865228,4.49633647 131.251064,4.92739673 131.604208,5.51099476 C131.957352,4.96718751 132.349728,4.54939064 132.781348,4.25759162 C133.199888,3.95252902 133.742675,3.8 134.409724,3.8 C135.246805,3.8 135.933463,3.96579241 136.469719,4.2973822 C137.005974,4.62897199 137.39181,5.07329564 137.627239,5.63036649 C137.875748,6.13438297 138,6.70470886 138,7.34136126 L138,14.6827225 L135.292579,14.6827225 L135.292579,8.27643979 C135.292579,6.87049908 134.775951,6.16753927 133.742678,6.16753927 C132.526295,6.16753927 131.918112,6.89702586 131.918112,8.35602094 L131.918112,14.6827225 L129.151834,14.6827225 L129.151834,8.31623037 C129.151834,7.85200466 129.125676,7.48726136 129.073358,7.22198953 C129.02104,6.91692692 128.86409,6.65829076 128.602502,6.4460733 C128.340914,6.26038302 127.974697,6.16753927 127.503838,6.16753927 C126.379011,6.16753927 125.816605,6.85723569 125.816605,8.23664921 L125.816605,14.6827225 L123.050327,14.6827225 Z" id="Design-System" fill="#FFFFFE"></path>
                    <path d="M5.64712644,35.9762419 L3.65402299,35.9762419 L0,22 L2.05172414,22 L4.65057471,33.3909287 L7.85517241,22 L9.90689655,22 L13.1310345,33.3909287 L15.7103448,22 L17.8206897,22 L14.108046,35.9762419 L12.1344828,35.9762419 L8.92988506,24.3909287 L5.64712644,35.9762419 Z M16.8827586,30.8833693 C16.8827586,29.9632783 17.0586189,29.0950365 17.4103448,28.2786177 C17.736017,27.488117 18.2701112,26.8272165 19.0126437,26.2958963 C19.7421492,25.7904942 20.6084241,25.537797 21.6114943,25.537797 C22.6536451,25.537797 23.5329466,25.7904942 24.2494253,26.2958963 C24.965904,26.8142575 25.4999982,27.475158 25.8517241,28.2786177 C26.20345,29.0950365 26.3793103,29.9632783 26.3793103,30.8833693 C26.3793103,31.7775423 26.20345,32.6457841 25.8517241,33.488121 C25.4999982,34.3174987 24.965904,34.9913581 24.2494253,35.5097192 C23.5329466,36.0280803 22.6536451,36.287257 21.6114943,36.287257 C20.5823703,36.287257 19.7095821,36.0280803 18.9931034,35.5097192 C18.250571,34.9913581 17.7164767,34.3174987 17.3908046,33.488121 C17.0521056,32.6328251 16.8827586,31.7645832 16.8827586,30.8833693 Z M18.6413793,30.8833693 C18.6413793,31.4406075 18.7325661,32.0237551 18.9149425,32.6328294 C19.0973189,33.2548627 19.4034461,33.7602572 19.8333333,34.1490281 C20.2892743,34.576676 20.8819887,34.7904968 21.6114943,34.7904968 C22.3670536,34.7904968 22.9662813,34.576676 23.4091954,34.1490281 C23.8651364,33.7343392 24.1777769,33.2289447 24.3471264,32.6328294 C24.5164759,32.0496731 24.6011494,31.4665256 24.6011494,30.8833693 C24.6011494,30.287254 24.5164759,29.6976271 24.3471264,29.1144708 C24.16475,28.5183556 23.8521095,28.0194405 23.4091954,27.6177106 C22.9662813,27.2159807 22.3670536,27.0151188 21.6114943,27.0151188 C20.5432897,27.0151188 19.7812283,27.4168426 19.3252874,28.2203024 C18.8693464,29.0496802 18.6413793,29.9373603 18.6413793,30.8833693 Z M28.5678161,35.9762419 L28.5678161,25.8099352 L30.2091954,25.8099352 L30.2091954,27.5399568 C30.6130288,26.8660873 31.0494229,26.3736517 31.5183908,26.062635 C32.0003856,25.7386593 32.6842868,25.5766739 33.5701149,25.5766739 L33.5701149,27.3650108 C32.6061254,27.3650108 31.8180107,27.5917904 31.2057471,28.0453564 C30.5934835,28.4989224 30.2873563,29.114467 30.2873563,29.8920086 L30.2873563,35.9762419 L28.5678161,35.9762419 Z M36.5402299,35.9762419 L34.8597701,35.9762419 L34.8597701,22 L36.5402299,22 L36.5402299,30.12527 L40.8977011,25.8099352 L43.1057471,25.8099352 L39.2172414,29.600432 L43.3402299,35.9762419 L41.1321839,35.9762419 L37.9666667,30.8444924 L36.5402299,32.1468683 L36.5402299,35.9762419 Z M52.0747126,28.7257019 L50.3942529,28.7257019 C50.3942529,27.5853075 49.5931115,27.0151188 47.9908046,27.0151188 C47.8214551,27.0151188 47.5413813,27.0475159 47.1505747,27.112311 C46.8509564,27.1900652 46.5773959,27.3326124 46.3298851,27.5399568 C46.0693474,27.7602603 45.9390805,28.0647929 45.9390805,28.4535637 C45.9390805,28.7257033 45.9977006,28.9395241 46.1149425,29.0950324 C46.2452114,29.2375817 46.4340984,29.36717 46.6816092,29.4838013 C46.8509587,29.5615555 47.2287327,29.6652261 47.8149425,29.7948164 L49.2609195,30.1447084 C49.4172422,30.1835855 49.6191559,30.2354208 49.8666667,30.300216 C49.944828,30.326134 50.0099614,30.3455723 50.062069,30.3585313 C50.2053647,30.3974084 50.4658985,30.5075585 50.8436782,30.6889849 C51.2996191,30.8963293 51.6773931,31.1814237 51.9770115,31.5442765 C52.2505761,31.9071292 52.3873563,32.3606884 52.3873563,32.9049676 C52.3873563,33.5917961 52.211496,34.1879024 51.8597701,34.6933045 C51.534098,35.1987066 51.0651372,35.5874716 50.4528736,35.8596112 C49.84061,36.1447098 49.1371687,36.287257 48.3425287,36.287257 C47.1180015,36.287257 46.1865932,36.0863951 45.5482759,35.6846652 C44.8969316,35.2958944 44.4800775,34.855294 44.2977011,34.362851 L44.1022989,33.7796976 C43.9980838,33.4038858 43.945977,33.0475179 43.945977,32.7105832 L45.6264368,32.7105832 C45.6264368,33.2548623 45.8218371,33.7408186 46.2126437,34.1684665 C46.5643696,34.5831554 47.2743242,34.7904968 48.3425287,34.7904968 C49.0068999,34.7904968 49.5605342,34.654429 50.0034483,34.3822894 C50.4463624,34.1101498 50.6678161,33.7149054 50.6678161,33.1965443 C50.6678161,32.7688963 50.5245225,32.4708432 50.237931,32.3023758 C49.9383127,32.1209494 49.4042184,31.9265669 48.6356322,31.7192225 L47.1310345,31.3693305 C46.6490397,31.2656582 46.1931056,31.1166316 45.7632184,30.9222462 C45.3333312,30.7278608 44.9816106,30.4557253 44.708046,30.1058315 C44.4344814,29.7559378 44.2977011,29.308858 44.2977011,28.7645788 C44.2977011,28.0388733 44.4735615,27.4362875 44.8252874,26.9568035 C45.1509595,26.4773194 45.6199203,26.1209515 46.2321839,25.887689 C46.8183937,25.6544265 47.4567015,25.537797 48.1471264,25.537797 C49.215331,25.537797 50.0555525,25.7451383 50.6678161,26.1598272 C51.2540259,26.5485981 51.6383133,26.9891984 51.8206897,27.4816415 C51.9900392,27.9481665 52.0747126,28.3628492 52.0747126,28.7257019 Z M62.6850575,29.075594 L62.6850575,35.9762419 L60.9655172,35.9762419 L60.9655172,29.3282937 C60.9655172,28.5507521 60.8222237,27.9805634 60.5356322,27.6177106 C60.2360138,27.2418988 59.7084329,27.0539957 58.9528736,27.0539957 C58.1452067,27.0539957 57.4678188,27.3261312 56.9206897,27.8704104 C56.3605336,28.4017305 56.0804598,29.2570135 56.0804598,30.4362851 L56.0804598,35.9762419 L54.3609195,35.9762419 L54.3609195,22 L56.0804598,22 L56.0804598,27.1706263 L56.9597701,26.1987041 C57.1421465,26.0172777 57.396167,25.8617717 57.7218391,25.7321814 C58.0344843,25.6025911 58.4969318,25.537797 59.1091954,25.537797 C59.7605397,25.537797 60.333714,25.6414676 60.8287356,25.8488121 C61.3628379,26.0431975 61.8057454,26.4060449 62.1574713,26.937365 C62.5091972,27.4557261 62.6850575,28.168462 62.6850575,29.075594 Z M64.6781609,30.8833693 C64.6781609,29.9632783 64.8540212,29.0950365 65.2057471,28.2786177 C65.5314193,27.488117 66.0655135,26.8272165 66.808046,26.2958963 C67.5375515,25.7904942 68.4038264,25.537797 69.4068966,25.537797 C70.4490474,25.537797 71.3283489,25.7904942 72.0448276,26.2958963 C72.7613063,26.8142575 73.2954005,27.475158 73.6471264,28.2786177 C73.9988523,29.0950365 74.1747126,29.9632783 74.1747126,30.8833693 C74.1747126,31.7775423 73.9988523,32.6457841 73.6471264,33.488121 C73.2954005,34.3174987 72.7613063,34.9913581 72.0448276,35.5097192 C71.3283489,36.0280803 70.4490474,36.287257 69.4068966,36.287257 C68.3777726,36.287257 67.5049844,36.0280803 66.7885057,35.5097192 C66.0459733,34.9913581 65.511879,34.3174987 65.1862069,33.488121 C64.8475079,32.6328251 64.6781609,31.7645832 64.6781609,30.8833693 Z M66.4367816,30.8833693 C66.4367816,31.4406075 66.5279684,32.0237551 66.7103448,32.6328294 C66.8927212,33.2548627 67.1988484,33.7602572 67.6287356,34.1490281 C68.0846766,34.576676 68.677391,34.7904968 69.4068966,34.7904968 C70.1624559,34.7904968 70.7616836,34.576676 71.2045977,34.1490281 C71.6605387,33.7343392 71.9731792,33.2289447 72.1425287,32.6328294 C72.3118782,32.0496731 72.3965517,31.4665256 72.3965517,30.8833693 C72.3965517,30.287254 72.3118782,29.6976271 72.1425287,29.1144708 C71.9601523,28.5183556 71.6475118,28.0194405 71.2045977,27.6177106 C70.7616836,27.2159807 70.1624559,27.0151188 69.4068966,27.0151188 C68.338692,27.0151188 67.5766306,27.4168426 67.1206897,28.2203024 C66.6647487,29.0496802 66.4367816,29.9373603 66.4367816,30.8833693 Z M75.991954,40 L75.991954,25.8099352 L77.6333333,25.8099352 L77.6333333,27.287257 C77.7766291,26.9891994 78.0045961,26.6911462 78.3172414,26.3930886 C78.6298866,26.120949 78.9946339,25.8941694 79.4114943,25.712743 C79.8023008,25.5442756 80.2517216,25.4600432 80.7597701,25.4600432 C81.6455983,25.4600432 82.414173,25.7256993 83.0655172,26.2570194 C83.7038346,26.7753806 84.1923355,27.4492399 84.5310345,28.2786177 C84.8436797,29.1079955 85,29.9632785 85,30.8444924 C85,31.6997883 84.830653,32.5550713 84.491954,33.4103672 C84.1662819,34.265663 83.658241,34.96544 82.9678161,35.5097192 C82.2904181,36.0539984 81.4892767,36.3261339 80.5643678,36.3261339 C79.9521042,36.3261339 79.4310366,36.2159838 79.0011494,35.9956803 C78.5842891,35.7883359 78.1609217,35.4125297 77.7310345,34.8682505 L77.7310345,40 L75.991954,40 Z M77.6333333,31.3110151 C77.6333333,31.8941714 77.7114935,32.4125247 77.8678161,32.8660907 C77.9980849,33.2937386 78.2130253,33.656586 78.5126437,33.9546436 C79.0597729,34.5118818 79.7306474,34.7904968 80.5252874,34.7904968 C81.0333359,34.7904968 81.4957834,34.6220319 81.9126437,34.2850972 C82.3425309,33.9352034 82.6616848,33.4492472 82.8701149,32.8272138 C83.091572,32.1792624 83.2022989,31.4470883 83.2022989,30.6306695 C83.2022989,29.9956772 83.1371654,29.464365 83.0068966,29.0367171 C82.8636008,28.5701921 82.6747138,28.2008653 82.4402299,27.9287257 C81.971262,27.3455694 81.2808475,27.0539957 80.3689655,27.0539957 C79.743675,27.0539957 79.2226074,27.2483782 78.8057471,27.637149 C78.3758599,28.0388789 78.0762461,28.5572322 77.9068966,29.1922246 C77.7245202,29.8531351 77.6333333,30.5593915 77.6333333,31.3110151 Z" id="Workshop" fill="#FFFFFE"></path>
                    <text id="with-Alla-Kholmatova" font-family="Mytupi" font-size="13" font-weight="normal" fill="#FFFFFF">
                        <tspan x="98" y="36">with Alla Kholmatova</tspan>
                    </text>
                </g>
            </g>
        </g>
    </g>
</svg>