<?xml version="1.0" encoding="UTF-8" standalone="no"?>
<svg width="87px" height="22px" viewBox="0 0 87 22" version="1.1" xmlns="http://www.w3.org/2000/svg" xmlns:xlink="http://www.w3.org/1999/xlink">
    <!-- Generator: Sketch 49.3 (51167) - http://www.bohemiancoding.com/sketch -->
    <title>extrategy</title>
    <desc>Created with Sketch.</desc>
    <defs></defs>
    <g id="Page-1" stroke="none" stroke-width="1" fill="none" fill-rule="evenodd">
        <g id="Homepage" transform="translate(-281.000000, -133.000000)" fill-rule="nonzero">
            <g id="Workshop" transform="translate(40.000000, 77.000000)">
                <g id="Main-block">
                    <g id="title" transform="translate(129.000000, 49.000000)">
                        <g id="Group-2" transform="translate(2.000000, 0.000000)">
                            <g id="extrategy" transform="translate(110.000000, 7.000000)">
                                <g id="Group">
                                    <g id="Shape">
                                        <g>
                                            <polygon fill="#FFFFFF" points="19.1359375 2.82857143 16.1585938 2.82857143 10.1460938 12.4285714 13.0945313 12.4285714"></polygon>
                                            <path d="M8.8453125,11.2571429 C8.29609375,11.7428571 6.9953125,12.6857143 5.00078125,12.6857143 C4.36484375,12.6857143 2.8328125,12.6 1.53203125,11.4 C0.43359375,10.3714286 0.02890625,9.02857143 0.02890625,7.54285714 C0.02890625,6.74285714 0.14453125,5.97142857 0.4625,5.22857143 C0.89609375,4.25714286 2.08125,2.51428571 4.9140625,2.51428571 C7.08203125,2.51428571 8.23828125,3.62857143 8.7296875,4.37142857 C9.16328125,5.05714286 9.62578125,6.22857143 9.68359375,8.08571429 L2.45703125,8.08571429 C2.4859375,8.37142857 2.6015625,8.97142857 3.09296875,9.54285714 C3.4109375,9.94285714 4.01796875,10.4571429 5.203125,10.4571429 C6.4171875,10.4571429 7.1109375,9.88571429 7.42890625,9.57142857 C7.515625,9.48571429 7.63125,9.34285714 7.746875,9.14285714 L9.74140625,10.2857143 C9.56796875,10.4857143 9.3078125,10.8571429 8.8453125,11.2571429 M6.90859375,5.6 C6.70625,5.14285714 6.1859375,4.37142857 4.9140625,4.37142857 C4.42265625,4.37142857 4.13359375,4.45714286 3.93125,4.54285714 C2.8328125,4.97142857 2.6015625,6.05714286 2.54375,6.4 L7.08203125,6.4 C7.08203125,6.4 7.02421875,5.94285714 6.90859375,5.6" fill="#FFFFFF"></path>
                                            <path d="M24.628125,12.5142857 C23.35625,12.5142857 22.6914062,12.2 22.2867188,11.7428571 C22.084375,11.5142857 22.0265625,11.2857143 21.9976563,11.1714286 C21.9109375,10.8571429 21.8820313,10.2 21.8820313,9.34285714 L21.8820313,4.45714286 L20.465625,4.45714286 L20.465625,2.82857143 L21.8820313,2.82857143 L21.8820313,0.171428571 L24.2234375,0.171428571 L24.2234375,2.82857143 L26.3046875,2.82857143 L26.3046875,4.45714286 L24.2234375,4.45714286 L24.2234375,8.82857143 C24.2234375,9.2 24.165625,9.94285714 24.4546875,10.2571429 C24.7148438,10.5714286 25.2929688,10.5428571 25.3507813,10.5428571 C25.66875,10.5428571 26.015625,10.5142857 26.3046875,10.4285714 L26.3046875,12.3714286 C25.9867188,12.3714286 25.4085938,12.5142857 24.628125,12.5142857" fill="#FFFFFF"></path>
                                            <path d="M30.7273438,6.74285714 C30.5539063,7.28571429 30.5539063,7.77142857 30.5539063,8.31428571 L30.5539063,12.4285714 L28.2992188,12.4285714 L28.2992188,2.82857143 L30.5539063,2.82857143 L30.5539063,4.2 C30.6984375,3.91428571 30.9007813,3.62857143 31.1320313,3.4 C31.9125,2.65714286 33.184375,2.6 33.4445313,2.6 L33.646875,2.6 L33.646875,4.97142857 C33.1554688,4.97142857 31.2765625,4.97142857 30.7273438,6.74285714" fill="#FFFFFF"></path>
                                            <path d="M40.9023438,12.4285714 L40.8445313,11.6857143 C40.46875,12 40.1507813,12.1428571 39.9484375,12.2285714 C39.3125,12.5142857 38.7054688,12.6571429 37.9828125,12.6571429 C37.5203125,12.6571429 35.7570313,12.6 34.8609375,11.1714286 C34.7164063,10.9142857 34.4273438,10.4 34.4273438,9.62857143 C34.4273438,9.08571429 34.571875,8.02857143 35.7570313,7.22857143 C36.5664063,6.68571429 37.3179688,6.57142857 38.2140625,6.4 C39.659375,6.11428571 40.1796875,6 40.9023438,5.74285714 C40.9023438,5.48571429 40.8734375,5.17142857 40.7578125,4.94285714 C40.5554688,4.57142857 40.0640625,4.28571429 39.2257813,4.28571429 C38.3296875,4.28571429 37.7804688,4.54285714 37.5203125,4.88571429 C37.2601563,5.2 37.2601563,5.6 37.2601563,5.74285714 L34.8898438,5.6 C34.91875,5.17142857 34.9765625,4.17142857 35.9304688,3.4 C36.5375,2.91428571 37.4335938,2.51428571 39.1390625,2.51428571 C40.7289063,2.51428571 41.6539063,2.82857143 42.2609375,3.25714286 C42.665625,3.54285714 42.896875,3.88571429 42.9546875,4.02857143 C43.2148438,4.51428571 43.2148438,5.2 43.2148438,5.74285714 L43.2148438,10.8571429 C43.2148438,11.6 43.24375,11.8 43.6484375,12.4 L40.9023438,12.4 L40.9023438,12.4285714 Z M40.9023438,7.62857143 C40.5265625,7.82857143 40.00625,8 39.0523438,8.17142857 C38.5320313,8.25714286 37.9539063,8.28571429 37.4914063,8.57142857 C37.1734375,8.77142857 36.9132813,9.11428571 36.9132813,9.54285714 C36.9132813,10.1142857 37.346875,10.6857143 38.503125,10.6857143 C39.775,10.6857143 40.5554688,10.0285714 40.7578125,9.6 C40.9023438,9.28571429 40.9023438,9.02857143 40.9023438,8.71428571 L40.9023438,7.62857143 Z" fill="#FFFFFF"></path>
                                            <path d="M48.7070313,12.5142857 C47.4351563,12.5142857 46.7703125,12.2 46.365625,11.7428571 C46.1632813,11.5142857 46.1054688,11.2857143 46.0765625,11.1714286 C45.9898438,10.8571429 45.9609375,10.2 45.9609375,9.34285714 L45.9609375,4.45714286 L44.5445313,4.45714286 L44.5445313,2.82857143 L45.9609375,2.82857143 L45.9609375,0.171428571 L48.3023438,0.171428571 L48.3023438,2.82857143 L50.3835938,2.82857143 L50.3835938,4.45714286 L48.3023438,4.45714286 L48.3023438,8.82857143 C48.3023438,9.2 48.2445313,9.94285714 48.5335938,10.2571429 C48.79375,10.5714286 49.371875,10.5428571 49.4296875,10.5428571 C49.7476563,10.5428571 50.0945313,10.5142857 50.3835938,10.4285714 L50.3835938,12.3714286 C50.065625,12.3714286 49.4875,12.5142857 48.7070313,12.5142857" fill="#FFFFFF"></path>
                                            <path d="M60.0671875,11.2571429 C59.5179688,11.7428571 58.2171875,12.6857143 56.2226563,12.6857143 C55.5867188,12.6857143 54.0546875,12.6 52.7539063,11.4 C51.6554688,10.3714286 51.2507813,9.02857143 51.2507813,7.54285714 C51.2507813,6.74285714 51.3664063,5.97142857 51.684375,5.22857143 C52.1179688,4.25714286 53.303125,2.51428571 56.1359375,2.51428571 C58.3039063,2.51428571 59.4601563,3.62857143 59.9515625,4.37142857 C60.3851563,5.05714286 60.8476563,6.22857143 60.9054688,8.08571429 L53.7078125,8.08571429 C53.7367188,8.37142857 53.8523438,8.97142857 54.34375,9.54285714 C54.6617188,9.94285714 55.26875,10.4571429 56.4539063,10.4571429 C57.6679688,10.4571429 58.3617188,9.88571429 58.6796875,9.57142857 C58.7664063,9.48571429 58.8820313,9.34285714 58.9976563,9.14285714 L60.9921875,10.2857143 C60.7898438,10.4857143 60.5296875,10.8571429 60.0671875,11.2571429 M58.1015625,5.6 C57.8992188,5.14285714 57.3789063,4.37142857 56.1070313,4.37142857 C55.615625,4.37142857 55.3265625,4.45714286 55.1242188,4.54285714 C54.0257813,4.97142857 53.7945313,6.05714286 53.7367188,6.4 L58.275,6.4 C58.3039063,6.4 58.2460938,5.94285714 58.1015625,5.6" fill="#FFFFFF"></path>
                                            <path d="M70.9648438,14.1714286 C70.3578125,14.9714286 69.0859375,15.6285714 66.8890625,15.6285714 C64.7210938,15.6285714 63.6515625,15.0285714 63.0445313,14.2 C62.8132813,13.8571429 62.6398438,13.4571429 62.4375,12.6285714 L65.0101563,12.6571429 C65.0679688,12.8571429 65.096875,12.9714286 65.2414063,13.1428571 C65.7328125,13.8857143 66.8023438,13.8571429 67.0046875,13.8571429 C68.1609375,13.8571429 68.7679688,13.4285714 69.028125,12.9428571 C69.2882813,12.4571429 69.2882813,11.9428571 69.2882813,10.8571429 C68.1898438,11.8285714 66.83125,11.8857143 66.3398438,11.8857143 C65.7617188,11.8857143 65.1257813,11.8 64.5765625,11.5428571 C63.5359375,11.1142857 62.1484375,9.94285714 62.1484375,7.31428571 C62.1484375,7 62.1484375,6.11428571 62.4664063,5.25714286 C63.13125,3.57142857 64.6921875,2.54285714 66.5421875,2.54285714 C66.8601563,2.54285714 67.8140625,2.57142857 68.5945313,3.17142857 C68.9414063,3.42857143 69.2015625,3.74285714 69.2882813,3.85714286 L69.2882813,2.82857143 L71.6007813,2.82857143 L71.6007813,10.7142857 C71.571875,11.8285714 71.6875,13.2 70.9648438,14.1714286 M69.1726563,6.22857143 C69.028125,5.71428571 68.4789063,4.57142857 66.9179688,4.57142857 C66.6,4.57142857 65.8195313,4.62857143 65.1835938,5.31428571 C64.4898438,6.05714286 64.51875,6.91428571 64.51875,7.22857143 C64.51875,7.54285714 64.51875,8.37142857 65.1546875,9.05714286 C65.2414063,9.14285714 65.4726563,9.37142857 65.790625,9.51428571 C65.9929688,9.6 66.36875,9.77142857 66.946875,9.77142857 C67.871875,9.77142857 68.3921875,9.4 68.68125,9.11428571 C69.3460938,8.45714286 69.3460938,7.62857143 69.3460938,7.31428571 C69.3171875,6.77142857 69.259375,6.45714286 69.1726563,6.22857143" fill="#FFFFFF"></path>
                                            <path d="M79.4632813,11.2 C79.1164063,12.4 78.5960938,14.4285714 77.7,15.1714286 C77.0929688,15.6571429 76.4859375,15.7428571 75.7054688,15.7428571 C74.9539063,15.7428571 74.69375,15.6857143 74.3179688,15.6 L74.3179688,13.6 C75.2429688,13.7142857 75.7632813,13.6 76.1390625,13.3142857 C76.428125,13.0571429 76.5148438,12.7428571 76.54375,12.6285714 L73.0171875,2.82857143 L75.5320313,2.82857143 L77.7,10 L79.5210938,2.82857143 L81.9203125,2.82857143 L79.4632813,11.2 Z" fill="#FFFFFF"></path>
                                            <polygon fill="#DEDC00" points="12.140625 0.142857143 9.16328125 0.142857143 18.846875 15.6 21.7664063 15.6"></polygon>
                                        </g>
                                        <g transform="translate(23.414063, 17.142857)" fill="#FFFFFF">
                                            <path d="M1.9078125,2.71428571 L2.34140625,2.71428571 C2.28359375,3.02857143 2.11015625,3.28571429 1.9078125,3.48571429 C1.6765625,3.68571429 1.41640625,3.77142857 1.0984375,3.77142857 C0.7515625,3.77142857 0.49140625,3.68571429 0.31796875,3.48571429 C0.14453125,3.28571429 0.0578125,3 0.0578125,2.62857143 C0.0578125,2.4 0.08671875,2.2 0.1734375,2 C0.23125,1.8 0.346875,1.62857143 0.49140625,1.45714286 C0.6359375,1.31428571 0.78046875,1.2 0.95390625,1.11428571 C1.12734375,1.02857143 1.30078125,1 1.503125,1 C1.82109375,1 2.05234375,1.08571429 2.22578125,1.25714286 C2.39921875,1.42857143 2.4859375,1.65714286 2.4859375,1.97142857 L2.05234375,1.97142857 C2.05234375,1.8 1.99453125,1.65714286 1.9078125,1.54285714 C1.7921875,1.42857143 1.64765625,1.4 1.47421875,1.4 C1.2140625,1.4 1.01171875,1.51428571 0.809375,1.77142857 C0.6359375,2.02857143 0.5203125,2.31428571 0.5203125,2.65714286 C0.5203125,2.88571429 0.578125,3.05714286 0.69375,3.2 C0.809375,3.31428571 0.95390625,3.37142857 1.15625,3.37142857 C1.3296875,3.37142857 1.47421875,3.31428571 1.61875,3.2 C1.734375,3.08571429 1.85,2.91428571 1.9078125,2.71428571 Z"></path>
                                            <path d="M3.00625,2.65714286 C3.00625,2.17142857 3.15078125,1.77142857 3.4109375,1.45714286 C3.67109375,1.14285714 4.01796875,1 4.4515625,1 C4.7984375,1 5.05859375,1.08571429 5.23203125,1.28571429 C5.434375,1.48571429 5.52109375,1.74285714 5.52109375,2.08571429 C5.52109375,2.57142857 5.3765625,2.97142857 5.11640625,3.25714286 C4.85625,3.57142857 4.509375,3.71428571 4.07578125,3.71428571 C3.72890625,3.71428571 3.46875,3.62857143 3.26640625,3.42857143 C3.09296875,3.28571429 3.00625,3 3.00625,2.65714286 Z M4.39375,1.4 C4.24921875,1.4 4.13359375,1.42857143 4.01796875,1.48571429 C3.90234375,1.54285714 3.815625,1.62857143 3.72890625,1.77142857 C3.6421875,1.88571429 3.584375,2.02857143 3.5265625,2.2 C3.46875,2.37142857 3.43984375,2.54285714 3.43984375,2.68571429 C3.43984375,2.91428571 3.49765625,3.08571429 3.61328125,3.2 C3.72890625,3.31428571 3.8734375,3.37142857 4.07578125,3.37142857 C4.36484375,3.37142857 4.59609375,3.25714286 4.76953125,3 C4.94296875,2.74285714 5.0296875,2.42857143 5.0296875,2.05714286 C5.0296875,1.82857143 4.971875,1.68571429 4.85625,1.57142857 C4.76953125,1.45714286 4.625,1.4 4.39375,1.4 Z"></path>
                                            <path d="M7.83359375,3.68571429 L7.89140625,3.37142857 C7.77578125,3.51428571 7.63125,3.6 7.48671875,3.68571429 C7.3421875,3.74285714 7.19765625,3.77142857 7.02421875,3.77142857 C6.70625,3.77142857 6.475,3.68571429 6.3015625,3.48571429 C6.128125,3.28571429 6.04140625,3.02857143 6.04140625,2.68571429 C6.04140625,2.45714286 6.0703125,2.25714286 6.15703125,2.05714286 C6.21484375,1.85714286 6.33046875,1.68571429 6.44609375,1.51428571 C6.56171875,1.37142857 6.73515625,1.22857143 6.8796875,1.14285714 C7.053125,1.05714286 7.2265625,1.02857143 7.4,1.02857143 C7.5734375,1.02857143 7.746875,1.05714286 7.89140625,1.14285714 C8.0359375,1.22857143 8.1515625,1.34285714 8.23828125,1.51428571 L8.52734375,0.114285714 L8.9609375,0.114285714 L8.209375,3.68571429 L7.83359375,3.68571429 Z M8.09375,2.08571429 C8.09375,1.85714286 8.0359375,1.68571429 7.9203125,1.57142857 C7.8046875,1.45714286 7.66015625,1.37142857 7.4578125,1.37142857 C7.19765625,1.37142857 6.96640625,1.48571429 6.79296875,1.74285714 C6.61953125,2 6.50390625,2.31428571 6.50390625,2.68571429 C6.50390625,2.91428571 6.56171875,3.08571429 6.67734375,3.2 C6.79296875,3.31428571 6.9375,3.4 7.1109375,3.4 C7.4,3.4 7.63125,3.28571429 7.8046875,3.02857143 C8.00703125,2.8 8.09375,2.48571429 8.09375,2.08571429 Z"></path>
                                            <path d="M9.0765625,3.68571429 L9.62578125,1.08571429 L10.059375,1.08571429 L9.51015625,3.68571429 L9.0765625,3.68571429 Z M9.74140625,0.628571429 L9.85703125,0.114285714 L10.290625,0.114285714 L10.175,0.628571429 L9.74140625,0.628571429 Z"></path>
                                            <path d="M10.40625,3.68571429 L10.9554688,1.08571429 L11.3601563,1.08571429 L11.2734375,1.48571429 C11.4179688,1.34285714 11.5625,1.22857143 11.7359375,1.17142857 C11.8804688,1.11428571 12.0539063,1.05714286 12.2273438,1.05714286 C12.4585938,1.05714286 12.6320313,1.11428571 12.7476563,1.2 C12.8632813,1.28571429 12.9210938,1.42857143 12.9210938,1.62857143 C12.9210938,1.65714286 12.9210938,1.71428571 12.9210938,1.77142857 C12.9210938,1.82857143 12.8921875,1.88571429 12.8921875,1.94285714 L12.5164063,3.68571429 L12.0828125,3.68571429 L12.4296875,2 C12.4296875,1.94285714 12.4585938,1.88571429 12.4585938,1.82857143 C12.4585938,1.77142857 12.4585938,1.74285714 12.4585938,1.71428571 C12.4585938,1.62857143 12.4296875,1.54285714 12.3429688,1.48571429 C12.2851563,1.42857143 12.1695313,1.4 12.0539063,1.4 C11.79375,1.4 11.5914063,1.48571429 11.4179688,1.65714286 C11.2445313,1.82857143 11.1289063,2.05714286 11.0710938,2.37142857 L10.7820313,3.68571429 L10.40625,3.68571429 Z"></path>
                                            <path d="M13.3257813,3.94285714 L13.759375,3.94285714 L13.759375,3.97142857 C13.759375,4.08571429 13.8171875,4.2 13.9039063,4.25714286 C14.0195313,4.34285714 14.1640625,4.37142857 14.3375,4.37142857 C14.6265625,4.37142857 14.8289063,4.31428571 14.9445313,4.17142857 C15.0601563,4.02857143 15.1757813,3.77142857 15.2335938,3.37142857 C15.146875,3.48571429 15.03125,3.57142857 14.8867188,3.62857143 C14.7710938,3.68571429 14.6265625,3.71428571 14.453125,3.71428571 C14.1351563,3.71428571 13.875,3.62857143 13.7015625,3.42857143 C13.528125,3.22857143 13.4414063,2.97142857 13.4414063,2.62857143 C13.4414063,2.17142857 13.5859375,1.77142857 13.8460938,1.48571429 C14.10625,1.17142857 14.4242188,1.02857143 14.8289063,1.02857143 C15.03125,1.02857143 15.2046875,1.08571429 15.3203125,1.17142857 C15.4648438,1.25714286 15.5515625,1.37142857 15.6382813,1.54285714 L15.725,1.11428571 L16.1585938,1.11428571 L15.609375,3.74285714 C15.5226563,4.08571429 15.4070313,4.37142857 15.1757813,4.51428571 C14.9734375,4.68571429 14.684375,4.77142857 14.3085938,4.77142857 C13.990625,4.77142857 13.759375,4.71428571 13.5570313,4.57142857 C13.4125,4.4 13.3257813,4.2 13.3257813,3.94285714 Z M14.8289063,1.37142857 C14.56875,1.37142857 14.3375,1.48571429 14.1640625,1.71428571 C13.990625,1.94285714 13.9039063,2.25714286 13.9039063,2.62857143 C13.9039063,2.85714286 13.9617188,3.02857143 14.0773438,3.14285714 C14.1929688,3.25714286 14.3375,3.31428571 14.5398438,3.31428571 C14.8289063,3.31428571 15.0601563,3.2 15.2335938,2.94285714 C15.4070313,2.71428571 15.49375,2.4 15.49375,2 C15.49375,1.8 15.4359375,1.62857143 15.3203125,1.51428571 C15.2046875,1.42857143 15.03125,1.37142857 14.8289063,1.37142857 Z"></path>
                                            <path d="M18.9625,3.68571429 C18.9046875,3.71428571 18.846875,3.71428571 18.7890625,3.71428571 C18.73125,3.71428571 18.7023438,3.71428571 18.6445313,3.71428571 C18.4710938,3.71428571 18.3265625,3.68571429 18.2398438,3.6 C18.153125,3.54285714 18.0953125,3.42857143 18.0953125,3.28571429 C18.0953125,3.25714286 18.0953125,3.2 18.0953125,3.17142857 C18.0953125,3.11428571 18.1242188,3.05714286 18.1242188,2.97142857 L18.4710938,1.4 L18.0953125,1.4 L18.1820313,1.05714286 L18.5578125,1.05714286 L18.7023438,0.342857143 L19.1359375,0.342857143 L18.9914063,1.05714286 L19.4539062,1.05714286 L19.3671875,1.4 L18.9046875,1.4 L18.5578125,3 C18.5578125,3.02857143 18.5289063,3.08571429 18.5289063,3.11428571 C18.5289063,3.14285714 18.5289063,3.17142857 18.5289063,3.2 C18.5289063,3.25714286 18.5578125,3.28571429 18.5867188,3.31428571 C18.615625,3.34285714 18.6734375,3.34285714 18.73125,3.34285714 C18.7601563,3.34285714 18.8179688,3.34285714 18.8757813,3.34285714 C18.9335937,3.34285714 18.9625,3.34285714 19.0203125,3.31428571 L18.9625,3.68571429 Z"></path>
                                            <path d="M19.5984375,2.65714286 C19.5984375,2.17142857 19.7429688,1.77142857 20.003125,1.45714286 C20.2632813,1.14285714 20.6101563,1 21.04375,1 C21.390625,1 21.6507813,1.08571429 21.8242188,1.28571429 C22.0265625,1.48571429 22.1132813,1.74285714 22.1132813,2.08571429 C22.1132813,2.57142857 21.96875,2.97142857 21.7085938,3.25714286 C21.4484375,3.57142857 21.1015625,3.71428571 20.6679688,3.71428571 C20.3210938,3.71428571 20.0609375,3.62857143 19.8585938,3.42857143 C19.6851563,3.28571429 19.5984375,3 19.5984375,2.65714286 Z M20.9859375,1.4 C20.8414063,1.4 20.7257813,1.42857143 20.6101563,1.48571429 C20.4945313,1.54285714 20.4078125,1.62857143 20.3210938,1.77142857 C20.234375,1.88571429 20.1765625,2.02857143 20.11875,2.2 C20.0609375,2.37142857 20.0320313,2.54285714 20.0320313,2.68571429 C20.0320313,2.91428571 20.0898438,3.08571429 20.2054688,3.2 C20.3210938,3.31428571 20.465625,3.37142857 20.6679688,3.37142857 C20.9570312,3.37142857 21.1882813,3.25714286 21.3617188,3 C21.5351562,2.74285714 21.621875,2.42857143 21.621875,2.05714286 C21.621875,1.82857143 21.5640625,1.68571429 21.4484375,1.57142857 C21.390625,1.45714286 21.2171875,1.4 20.9859375,1.4 Z"></path>
                                            <path d="M24.0789063,2.77142857 L24.4835938,2.77142857 C24.4835938,2.77142857 24.4835938,2.8 24.4835938,2.8 C24.4835938,2.8 24.4835938,2.82857143 24.4835938,2.85714286 C24.4835938,3.02857143 24.5414063,3.17142857 24.6570313,3.25714286 C24.7726563,3.34285714 24.9460938,3.4 25.1773438,3.4 C25.3507813,3.4 25.4664063,3.37142857 25.5820313,3.28571429 C25.66875,3.22857143 25.7265625,3.11428571 25.7265625,3 C25.7265625,2.91428571 25.6976563,2.85714286 25.6398438,2.8 C25.5820313,2.74285714 25.4664063,2.65714286 25.2640625,2.57142857 C25.2351563,2.54285714 25.1773438,2.54285714 25.1195313,2.51428571 C24.628125,2.28571429 24.396875,2.02857143 24.396875,1.74285714 C24.396875,1.51428571 24.4835938,1.34285714 24.6570313,1.2 C24.8304688,1.05714286 25.0617188,1 25.3507813,1 C25.66875,1 25.9,1.08571429 26.0734375,1.22857143 C26.246875,1.37142857 26.3335938,1.6 26.3335938,1.85714286 L26.3335938,1.91428571 L25.9289063,1.91428571 L25.9289063,1.88571429 C25.9289063,1.71428571 25.8710938,1.57142857 25.784375,1.48571429 C25.6976563,1.4 25.553125,1.34285714 25.3507813,1.34285714 C25.1773438,1.34285714 25.0617188,1.37142857 24.975,1.42857143 C24.8882813,1.48571429 24.8304688,1.57142857 24.8304688,1.68571429 C24.8304688,1.82857143 24.975,1.94285714 25.2640625,2.08571429 C25.2640625,2.08571429 25.2929688,2.08571429 25.2929688,2.08571429 C25.66875,2.25714286 25.9289062,2.4 26.015625,2.51428571 C26.1023438,2.62857143 26.1601562,2.77142857 26.1601562,2.91428571 C26.1601562,3.17142857 26.0734375,3.37142857 25.8710938,3.51428571 C25.66875,3.65714286 25.4085938,3.74285714 25.090625,3.74285714 C24.7726563,3.74285714 24.5125,3.65714286 24.3390625,3.51428571 C24.165625,3.34285714 24.05,3.14285714 24.05,2.85714286 C24.05,2.82857143 24.05,2.8 24.05,2.8 C24.0789063,2.8 24.0789063,2.8 24.0789063,2.77142857 Z"></path>
                                            <path d="M26.7382812,3.68571429 L27.51875,0.114285714 L27.9523437,0.114285714 L27.6632812,1.45714286 C27.8078125,1.31428571 27.9523437,1.22857143 28.096875,1.14285714 C28.2414062,1.08571429 28.4148437,1.02857143 28.5882812,1.02857143 C28.8195312,1.02857143 28.9929687,1.08571429 29.1085937,1.17142857 C29.2242187,1.25714286 29.2820312,1.4 29.2820312,1.6 C29.2820312,1.65714286 29.2820312,1.68571429 29.2820312,1.74285714 C29.2820312,1.8 29.253125,1.85714286 29.253125,1.91428571 L28.8773437,3.68571429 L28.44375,3.68571429 L28.8195312,2 C28.8484375,1.94285714 28.8484375,1.88571429 28.8484375,1.82857143 C28.8484375,1.77142857 28.8484375,1.74285714 28.8484375,1.68571429 C28.8484375,1.6 28.8195312,1.54285714 28.7328125,1.48571429 C28.675,1.42857143 28.559375,1.4 28.44375,1.4 C28.1835937,1.4 27.98125,1.48571429 27.8078125,1.65714286 C27.634375,1.82857143 27.51875,2.05714286 27.4609375,2.37142857 L27.171875,3.68571429 L26.7382812,3.68571429 Z"></path>
                                            <path d="M31.334375,3.4 C31.21875,3.51428571 31.103125,3.62857143 30.9585937,3.68571429 C30.8140625,3.74285714 30.6695312,3.77142857 30.4960937,3.77142857 C30.2359375,3.77142857 30.0335937,3.71428571 29.8890625,3.57142857 C29.7445312,3.42857143 29.6867187,3.22857143 29.6867187,3 C29.6867187,2.71428571 29.7734375,2.51428571 29.946875,2.37142857 C30.1203125,2.22857143 30.4382812,2.17142857 30.8429687,2.14285714 C30.8429687,2.14285714 30.871875,2.14285714 30.871875,2.14285714 C31.334375,2.11428571 31.5945312,1.97142857 31.5945312,1.74285714 C31.5945312,1.62857143 31.565625,1.54285714 31.4789062,1.48571429 C31.3921875,1.42857143 31.2765625,1.4 31.103125,1.4 C30.871875,1.4 30.6984375,1.42857143 30.5828125,1.48571429 C30.4960937,1.54285714 30.409375,1.65714286 30.3804687,1.82857143 L29.946875,1.82857143 C30.0046875,1.54285714 30.1203125,1.34285714 30.29375,1.2 C30.4960937,1.05714286 30.75625,1 31.0742187,1 C31.3921875,1 31.6234375,1.05714286 31.7679687,1.17142857 C31.9414062,1.28571429 32.028125,1.42857143 32.028125,1.62857143 C32.028125,1.65714286 32.028125,1.68571429 32.028125,1.71428571 C32.028125,1.74285714 31.9992187,1.82857143 31.9992187,1.91428571 L31.7679687,3.02857143 C31.7679687,3.05714286 31.7390625,3.11428571 31.7390625,3.14285714 C31.7390625,3.17142857 31.7390625,3.2 31.7390625,3.25714286 C31.7390625,3.31428571 31.7679687,3.34285714 31.796875,3.37142857 C31.8257812,3.4 31.8835937,3.4 31.9414062,3.4 C31.9703125,3.4 31.9703125,3.4 31.9992187,3.4 C32.028125,3.4 32.028125,3.4 32.0570312,3.4 L31.9992187,3.71428571 C31.9703125,3.71428571 31.9125,3.74285714 31.8835937,3.74285714 C31.8257812,3.74285714 31.796875,3.74285714 31.7390625,3.74285714 C31.6234375,3.74285714 31.5367187,3.71428571 31.4789062,3.65714286 C31.3632812,3.57142857 31.334375,3.48571429 31.334375,3.4 Z M31.45,2.37142857 C31.3054687,2.42857143 31.1320312,2.45714286 30.9296875,2.45714286 C30.6984375,2.48571429 30.5828125,2.48571429 30.4960937,2.51428571 C30.3804687,2.54285714 30.2648437,2.6 30.2070312,2.65714286 C30.1492187,2.74285714 30.1203125,2.82857143 30.1203125,2.94285714 C30.1203125,3.05714286 30.1492187,3.17142857 30.2359375,3.25714286 C30.3226562,3.34285714 30.409375,3.37142857 30.5539062,3.37142857 C30.8140625,3.37142857 31.0164062,3.28571429 31.1609375,3.11428571 C31.334375,2.97142857 31.4210937,2.71428571 31.45,2.37142857 Z"></path>
                                            <path d="M32.5195313,3.68571429 L33.06875,1.08571429 L33.5023438,1.08571429 L33.3867188,1.57142857 C33.53125,1.37142857 33.6757813,1.22857143 33.7625,1.14285714 C33.878125,1.05714286 33.99375,1.02857143 34.109375,1.02857143 C34.1382813,1.02857143 34.1671875,1.02857143 34.1960938,1.02857143 C34.225,1.02857143 34.2539063,1.02857143 34.3117188,1.05714286 L34.1960938,1.54285714 C34.1960938,1.54285714 34.1960938,1.54285714 34.1960938,1.54285714 C34.1382813,1.54285714 34.0804688,1.54285714 34.0515625,1.54285714 C33.8203125,1.54285714 33.646875,1.62857143 33.53125,1.77142857 C33.3867188,1.91428571 33.3,2.14285714 33.2132813,2.45714286 L32.953125,3.71428571 L32.5195313,3.71428571 L32.5195313,3.68571429 Z"></path>
                                        </g>
                                    </g>
                                    <path d="M84.9265625,2.6 C85.1578125,2.6 85.3890625,2.65714286 85.6203125,2.74285714 C85.8515625,2.82857143 86.025,2.97142857 86.1984375,3.14285714 C86.371875,3.31428571 86.4875,3.51428571 86.5742188,3.71428571 C86.6609375,3.94285714 86.71875,4.14285714 86.71875,4.4 C86.71875,4.62857143 86.6609375,4.85714286 86.5742188,5.08571429 C86.4875,5.28571429 86.3429688,5.48571429 86.1984375,5.65714286 C86.025,5.82857143 85.8226563,5.94285714 85.5914063,6.05714286 C85.3601563,6.14285714 85.1578125,6.2 84.8976563,6.2 C84.6664063,6.2 84.4351563,6.14285714 84.2039063,6.05714286 C84.0015625,5.97142857 83.7992188,5.82857143 83.6257813,5.65714286 C83.4523438,5.48571429 83.3367188,5.28571429 83.25,5.08571429 C83.1632813,4.88571429 83.1054688,4.65714286 83.1054688,4.42857143 C83.1054688,4.2 83.1632813,3.97142857 83.25,3.74285714 C83.3367188,3.51428571 83.48125,3.31428571 83.6546875,3.14285714 C83.828125,2.97142857 84.0015625,2.85714286 84.2039063,2.77142857 C84.4351563,2.65714286 84.6664063,2.6 84.9265625,2.6 Z M86.4875,4.4 C86.4875,4.17142857 86.4585938,3.97142857 86.371875,3.8 C86.2851563,3.6 86.1984375,3.45714286 86.0539063,3.31428571 C85.909375,3.17142857 85.7359375,3.05714286 85.5335938,2.97142857 C85.33125,2.88571429 85.1289063,2.85714286 84.9265625,2.85714286 C84.7242188,2.85714286 84.521875,2.88571429 84.3195313,2.97142857 C84.1171875,3.05714286 83.9726563,3.14285714 83.828125,3.28571429 C83.6835938,3.42857143 83.5679688,3.6 83.48125,3.8 C83.3945313,4 83.365625,4.2 83.365625,4.4 C83.365625,4.6 83.3945313,4.8 83.48125,4.97142857 C83.5679688,5.14285714 83.6835938,5.31428571 83.828125,5.45714286 C83.9726563,5.6 84.1460938,5.71428571 84.3195313,5.8 C84.521875,5.88571429 84.6953125,5.91428571 84.8976563,5.91428571 C85.1,5.91428571 85.3023438,5.88571429 85.5046875,5.8 C85.7070313,5.71428571 85.8804688,5.6 86.025,5.45714286 C86.1695313,5.31428571 86.2851563,5.14285714 86.371875,4.97142857 C86.4585938,4.8 86.4875,4.6 86.4875,4.4 Z M84.9554688,3.34285714 C85.2445313,3.34285714 85.446875,3.4 85.5914063,3.48571429 C85.7359375,3.57142857 85.79375,3.71428571 85.79375,3.88571429 C85.79375,4.02857143 85.7648438,4.14285714 85.678125,4.22857143 C85.5914063,4.31428571 85.4757813,4.37142857 85.33125,4.4 L85.79375,5.31428571 L85.3601563,5.31428571 L84.9554688,4.45714286 L84.5796875,4.45714286 L84.5796875,5.31428571 L84.2039063,5.31428571 L84.2039063,3.31428571 L84.9554688,3.31428571 L84.9554688,3.34285714 Z M84.8976563,3.57142857 L84.5796875,3.57142857 L84.5796875,4.22857143 L84.8976563,4.22857143 C85.0710938,4.22857143 85.215625,4.2 85.3023438,4.14285714 C85.3890625,4.08571429 85.4179688,4 85.4179688,3.88571429 C85.4179688,3.77142857 85.3890625,3.68571429 85.3023438,3.62857143 C85.215625,3.6 85.0710938,3.57142857 84.8976563,3.57142857 Z" id="Shape" fill="#BDBCBC"></path>
                                </g>
                            </g>
                        </g>
                    </g>
                </g>
            </g>
        </g>
    </g>
</svg>