<?xml version="1.0" encoding="UTF-8" standalone="no"?>
<svg width="82px" height="15px" viewBox="0 0 82 15" version="1.1" xmlns="http://www.w3.org/2000/svg" xmlns:xlink="http://www.w3.org/1999/xlink">
    <!-- Generator: Sketch 49.3 (51167) - http://www.bohemiancoding.com/sketch -->
    <title>ideato</title>
    <desc>Created with Sketch.</desc>
    <defs></defs>
    <g id="Page-1" stroke="none" stroke-width="1" fill="none" fill-rule="evenodd">
        <g id="Homepage" transform="translate(-171.000000, -132.000000)" fill="#FFFFFF" fill-rule="nonzero">
            <g id="Workshop" transform="translate(40.000000, 77.000000)">
                <g id="Main-block">
                    <g id="title" transform="translate(129.000000, 49.000000)">
                        <g id="Group-2" transform="translate(2.000000, 0.000000)">
                            <g id="ideato" transform="translate(0.000000, 6.000000)">
                                <g id="Group">
                                    <g id="Group-3">
                                        <path d="M23.4807921,14.1176471 L21.4097189,14.1176471 L21.4097189,4.21460892 L23.4807921,4.21460892 L23.4807921,14.1176471 Z M21.1249463,1.31868132 C21.1249463,0.956690368 21.2543884,0.646412411 21.5132725,0.387847447 C21.7721567,0.129282482 22.0828177,0 22.4452555,0 C22.8076933,0 23.1183543,0.129282482 23.3772384,0.387847447 C23.6361225,0.646412411 23.7655646,0.956690368 23.7655646,1.31868132 C23.7655646,1.68067227 23.6361225,1.99095023 23.3772384,2.24951519 C23.1183543,2.50808016 22.8076933,2.63736264 22.4452555,2.63736264 C22.0828177,2.63736264 21.7721567,2.50808016 21.5132725,2.24951519 C21.2543884,1.99095023 21.1249463,1.68067227 21.1249463,1.31868132 Z" id="Shape"></path>
                                        <path d="M27.8686792,13.6082939 C26.8936817,12.663688 26.4061829,11.4042134 26.4061829,9.82987021 C26.4061829,8.28176605 26.8936817,7.02229148 27.8957625,6.1039246 C28.8978432,5.18555773 30.0895069,4.71325476 31.4707534,4.71325476 C32.8519999,4.71325476 33.9624137,5.29051394 34.8019949,6.41879325 L34.8019949,0.882352941 L36.9686561,0.882352941 L36.9686561,14.8677685 L34.8019949,14.8677685 L34.8019949,13.3459034 C33.989497,14.4479436 32.8249166,14.9989638 31.2811705,14.9989638 C30.0082571,15.0252028 28.8436767,14.5528999 27.8686792,13.6082939 Z M29.5478416,12.2701022 C30.1707567,12.8736004 30.9290881,13.16223 31.7957526,13.16223 C32.662417,13.16223 33.3665819,12.8473614 33.9624137,12.2438631 C34.5582455,11.6403649 34.8561614,10.8531933 34.8561614,9.90858737 C34.8561614,8.96398144 34.5582455,8.15057078 33.9624137,7.5208335 C33.3665819,6.89109621 32.6353338,6.54998852 31.7686693,6.54998852 C30.9020048,6.54998852 30.1436734,6.86485716 29.5207583,7.5208335 C28.8978432,8.15057078 28.5728441,8.96398144 28.5728441,9.93482643 C28.5999273,10.8794324 28.9249265,11.666604 29.5478416,12.2701022 Z" id="Shape"></path>
                                        <path d="M49.2915414,10.6733353 L40.9746334,10.6733353 C41.0300795,11.4257987 41.3904788,12.01702 42.0281084,12.4738728 C42.6657381,12.9307256 43.4142598,13.1457151 44.2459506,13.1457151 C45.5766559,13.1457151 46.5746848,12.7426097 47.2677605,11.9363989 L48.5430197,13.2800836 C47.4063756,14.4356524 45.9093322,15 44.0796124,15 C42.582569,15 41.3350328,14.5162735 40.2815578,13.5488205 C39.2280827,12.5813676 38.7290683,11.2914303 38.7290683,9.67900866 C38.7290683,8.06658704 39.2558058,6.77664975 40.3092808,5.83607047 C41.3627558,4.89549119 42.638015,4.41176471 44.0518894,4.41176471 C45.4934868,4.41176471 46.7133,4.8417438 47.7390519,5.67482831 C48.7370809,6.50791281 49.2638184,7.69035533 49.2638184,9.16840848 L49.2638184,10.6733353 L49.2915414,10.6733353 Z M40.9746334,8.95341893 L47.0459763,8.95341893 C47.0459763,8.09346073 46.768746,7.42161839 46.2142855,6.9647656 C45.6598249,6.50791281 44.9667493,6.26604957 44.1627815,6.26604957 C43.3588137,6.26604957 42.610292,6.50791281 41.9726624,6.9916393 C41.3073098,7.50223947 40.9746334,8.14720812 40.9746334,8.95341893 Z" id="Shape"></path>
                                        <path d="M60.7342207,14.8379352 L58.8331839,14.8379352 L58.8331839,13.4603842 C57.9998526,14.4867947 56.9061054,15 55.5259006,15 C54.4842366,15 53.6248638,14.7028812 52.9477821,14.0816327 C52.2707005,13.4603842 51.9321597,12.65006 51.9321597,11.6506603 C51.9321597,10.6242497 52.2967421,9.86794718 53.0259069,9.3817527 C53.7550718,8.86854742 54.718611,8.62545018 55.9686078,8.62545018 L58.6769343,8.62545018 L58.6769343,8.24729892 C58.6769343,6.8697479 57.9477694,6.19447779 56.4633982,6.19447779 C55.5519422,6.19447779 54.588403,6.54561825 53.5727806,7.24789916 L52.6352829,5.89735894 C53.8331966,4.89795918 55.2134014,4.41176471 56.7498558,4.41176471 C57.9217278,4.41176471 58.8852671,4.70888355 59.6144319,5.33013205 C60.3435967,5.95138055 60.7342207,6.92376951 60.7342207,8.22028812 L60.7342207,14.8379352 Z M58.6248511,10.9753902 L58.6248511,10.1110444 L56.2550654,10.1110444 C54.7446526,10.1110444 53.9894462,10.5972389 53.9894462,11.5966387 C53.9894462,12.1098439 54.1717374,12.4879952 54.5623614,12.7581032 C54.9269438,13.0282113 55.4477758,13.1632653 56.1248574,13.1632653 C56.801939,13.1632653 57.3748542,12.9741897 57.8696446,12.5690276 C58.3904767,12.1638655 58.6248511,11.6506603 58.6248511,10.9753902 Z" id="Shape"></path>
                                        <path d="M65.9095678,6.58464567 L65.9095678,11.639069 C65.9095678,12.1080361 66.0419296,12.4988421 66.2801809,12.7593793 C66.5449046,13.0459704 66.8890453,13.176239 67.3390755,13.176239 C67.7891057,13.176239 68.2391358,12.9678092 68.6626937,12.5248958 L69.5362817,14.0099583 C68.7950555,14.6613015 67.9479398,15 67.0478795,15 C66.1478191,15 65.3801205,14.6873553 64.7183115,14.0620658 C64.0829747,13.4367763 63.7653064,12.603057 63.7653064,11.5609078 L63.7653064,6.58464567 L62.4946329,6.58464567 L62.4946329,4.89115331 L63.7653064,4.89115331 L63.7653064,1.76470588 L65.8830955,1.76470588 L65.8830955,4.89115331 L68.5568042,4.89115331 L68.5568042,6.58464567 L65.9095678,6.58464567 Z" id="Shape"></path>
                                        <path d="M76.5910352,13.0919678 C77.5083716,13.0919678 78.2684503,12.7694834 78.8712714,12.1513885 C79.4740924,11.5332935 79.7623982,10.7270827 79.7623982,9.73275605 C79.7623982,8.73842938 79.4740924,7.93221857 78.8712714,7.31412362 C78.2684503,6.69602867 77.5083716,6.37354434 76.5910352,6.37354434 C75.6736989,6.37354434 74.9136202,6.69602867 74.3107991,7.31412362 C73.7079781,7.93221857 73.4196723,8.73842938 73.4196723,9.73275605 C73.4196723,10.7270827 73.7079781,11.5332935 74.3107991,12.1513885 C74.9136202,12.7694834 75.6736989,13.0919678 76.5910352,13.0919678 Z M76.5910352,15 C75.0708778,15 73.8390261,14.4893998 72.8168513,13.4681995 C71.8208861,12.4469991 71.2966939,11.1839355 71.2966939,9.70588235 C71.2966939,8.2278292 71.7946765,6.9647656 72.8168513,5.94356524 C73.8128165,4.92236489 75.0708778,4.41176471 76.5910352,4.41176471 C78.0849831,4.41176471 79.3430444,4.92236489 80.3652192,5.94356524 C81.3611844,6.9647656 81.859167,8.2278292 81.859167,9.70588235 C81.859167,11.1839355 81.3611844,12.4469991 80.3652192,13.4681995 C79.3430444,14.4893998 78.1111927,15 76.5910352,15 Z" id="Shape"></path>
                                        <polygon id="Shape" points="5.33682855 8.74864337 5.69817631 8.85283265 5.47580846 9.13935316 2.0013107 13.202735 4.641929 15 7.67169104 10.676145 7.89405889 10.3896245 8.11642675 10.676145 11.1461888 15 13.7868071 13.202735 10.3679013 9.16540048 10.1455334 8.87887997 10.5068812 8.77469069 15.8437097 7.39418277 14.8430544 4.476883 9.67300174 6.30019535 9.28385799 6.40438463 9.28385799 6.03972216 9.56181781 0.882352941 6.28189193 0.882352941 6.53205577 6.06576948 6.53205577 6.43043195 6.17070801 6.32624267 1.00065535 4.50293032 0 7.42023008"></polygon>
                                    </g>
                                </g>
                            </g>
                        </g>
                    </g>
                </g>
            </g>
        </g>
    </g>
</svg>