<?xml version="1.0" encoding="UTF-8" standalone="no"?>
<svg width="219px" height="39px" viewBox="0 0 219 39" version="1.1" xmlns="http://www.w3.org/2000/svg" xmlns:xlink="http://www.w3.org/1999/xlink">
    <!-- Generator: Sketch 49.3 (51167) - http://www.bohemiancoding.com/sketch -->
    <title>logo</title>
    <desc>Created with Sketch.</desc>
    <defs></defs>
    <g id="Page-1" stroke="none" stroke-width="1" fill="none" fill-rule="evenodd">
        <g id="Homepage" transform="translate(-42.000000, -20.000000)">
            <g id="Header">
                <g id="logo" transform="translate(42.000000, 20.000000)">
                    <path d="M6.1955873,14.4237963 L0,14.4237963 L0,0.371344349 L6.25422062,0.371344349 C7.59627883,0.371344349 8.68424175,0.671022757 9.518142,1.27038856 C10.3520423,1.86975437 10.9644286,2.67106837 11.3553193,3.67435461 C11.7331804,4.69067054 11.9221081,5.73954497 11.9221081,6.82100936 C11.9221081,8.15003789 11.7396951,9.37481051 11.3748637,10.495364 C10.9970027,11.6550065 10.3846164,12.5931302 9.53768644,13.3097632 C8.67772681,14.0524557 7.5637049,14.4237963 6.1955873,14.4237963 Z M2.8730326,12.0198302 L5.76560963,12.0198302 C6.86010371,12.0198302 7.66141771,11.5442536 8.16957568,10.5930862 C8.67773365,9.65494839 8.93180882,8.50183799 8.93180882,7.13372039 C8.93180882,6.67768119 8.90574983,6.28679631 8.85363106,5.96105403 C8.77545291,5.49198513 8.70379068,5.14670349 8.63864223,4.92519874 C8.46925624,4.29977355 8.15654833,3.7916232 7.70050913,3.40073246 C7.25749963,3.00984172 6.61253957,2.81439928 5.76560963,2.81439928 L2.8730326,2.81439928 L2.8730326,12.0198302 Z M13.0947744,9.00998658 C13.0947744,8.11093787 13.2641579,7.25099113 13.6029298,6.43012057 C13.9417018,5.60925001 14.4889407,4.95777521 15.2446628,4.47567663 C16.0134145,3.98054835 16.9645678,3.73298793 18.0981509,3.73298793 C19.2968825,3.73298793 20.2545505,3.99357785 20.9711835,4.51476551 C21.6878165,5.03595317 22.2024816,5.7330312 22.5151942,6.60602053 C22.8279068,7.47900985 22.9842608,8.43016306 22.9842608,9.45950868 L22.9842608,9.94811967 L15.8114515,9.94811967 C15.8114515,10.7820199 16.0329529,11.4139505 16.4759624,11.8439303 C16.9059423,12.2869398 17.5118138,12.5084412 18.2935953,12.5084412 C18.6975157,12.5084412 19.0688564,12.3976905 19.4076284,12.1761858 C19.7464003,11.954681 19.961387,11.6875763 20.0525949,11.3748637 L22.8669941,11.3748637 C22.6454894,12.1045265 22.319752,12.7038833 21.8897722,13.1729522 C21.4467626,13.6680804 20.9190681,14.0459358 20.3066726,14.3065297 C19.6682177,14.5671235 18.9971986,14.6974184 18.2935953,14.6974184 C14.8276974,14.6974184 13.0947744,12.8016268 13.0947744,9.00998658 Z M15.9287181,8.20866456 L20.1698615,8.20866456 C20.1177427,7.5441503 19.8962413,6.99691146 19.5053505,6.56693165 C19.1144598,6.1760409 18.6323685,5.98059846 18.059062,5.98059846 C16.834271,5.98059846 16.1241635,6.72327974 15.9287181,8.20866456 Z M24.0982938,11.1012416 L26.9322375,11.1012416 C26.9322375,12.1175575 27.6814336,12.6257079 29.1798481,12.6257079 C29.7661842,12.6257079 30.209187,12.5149572 30.5088699,12.2934524 C30.7955232,12.0849773 30.9388476,11.8439317 30.9388476,11.5703081 C30.9388476,11.1794174 30.5544775,10.8862537 29.7857257,10.6908084 L27.4208485,10.1240196 C26.6260373,9.92857425 25.9419888,9.61586635 25.3686824,9.18588653 C24.7823463,8.75590671 24.4891826,8.09791717 24.4891826,7.21189815 C24.4891826,6.57344327 24.6390218,5.98711595 24.9387047,5.4528986 C25.2253579,4.94474063 25.7009345,4.52779676 26.3654488,4.20205448 C27.0169334,3.88934188 27.8052179,3.73298793 28.730326,3.73298793 C29.994206,3.73298793 30.9649035,3.91540087 31.6424474,4.28023223 C32.3330211,4.64506359 32.7825387,5.09458121 32.9910138,5.62879856 C33.1213107,5.91545177 33.2190319,6.17604169 33.2841803,6.41057613 C33.3493288,6.69722934 33.3819025,6.95130452 33.3819025,7.17280927 L30.6652255,7.17280927 C30.6131067,6.71677007 30.4567527,6.38451792 30.1961589,6.17604286 C29.9355651,5.9545381 29.4795327,5.84378739 28.8280482,5.84378739 C27.7205244,5.84378739 27.1667708,6.16952479 27.1667708,6.82100936 C27.1667708,7.17281103 27.5381114,7.4399157 28.2808039,7.62233138 L30.6652255,8.20866456 C31.4730663,8.40410993 32.1831739,8.71681783 32.7955694,9.14679765 C33.3949352,9.57677747 33.6946136,10.2282523 33.6946136,11.1012416 C33.6946136,11.8569637 33.5122006,12.495409 33.1473693,13.0165967 C32.7695082,13.550814 32.2483284,13.9612431 31.5838141,14.2478963 C30.8802108,14.5475792 30.0658673,14.6974184 29.1407592,14.6974184 C28.8150169,14.6974184 28.4827648,14.6778742 28.1439928,14.6387851 C27.8573396,14.5996961 27.5381169,14.5475781 27.1863152,14.4824296 C26.5739197,14.339103 26.0397104,14.1176016 25.5836712,13.8179187 C25.1146023,13.5052061 24.7497764,13.1208359 24.4891826,12.6647967 C24.2285888,12.2087575 24.0982938,11.6875777 24.0982938,11.1012416 Z M35.7467797,14.4237963 L35.7467797,4.00661008 L38.5025457,4.00661008 L38.5025457,14.4237963 L35.7467797,14.4237963 Z M35.7467797,2.7753104 L35.7467797,0.214988834 L38.5025457,0.214988834 L38.5025457,2.7753104 L35.7467797,2.7753104 Z M40.5938007,9.08816433 C40.5938007,8.16305624 40.7501546,7.30310951 41.0628672,6.50829833 C41.3755798,5.70045746 41.8641859,5.03595317 42.5287002,4.51476551 C43.1671551,3.99357785 43.9749838,3.73298793 44.9522107,3.73298793 C45.6297546,3.73298793 46.2486557,3.89585663 46.8089324,4.22159892 C47.3431498,4.5473412 47.7405494,4.99685881 48.0011432,5.57016524 L48.0402321,4.00661008 L50.6396426,4.00661008 L50.6396426,13.8960964 C50.6396426,14.9254421 50.4898034,15.7919035 50.1901204,16.4955069 C49.8774079,17.1860805 49.330169,17.7202899 48.5483875,18.0981509 C47.7535764,18.476012 46.6786429,18.6649397 45.323555,18.6649397 C44.7893377,18.6649397 44.1769514,18.5737332 43.4863777,18.3913175 C42.7958041,18.2219315 42.1964473,17.8961941 41.6882893,17.4140955 C41.4276955,17.1795611 41.232253,16.8994269 41.1019561,16.5736846 C40.9455998,16.2479423 40.8674228,15.9026607 40.8674228,15.5378293 L43.7990888,15.5378293 C43.9033263,15.889631 44.0857392,16.1502209 44.3463331,16.3196069 C44.6329863,16.5020226 45.0759891,16.5932291 45.6753549,16.5932291 C46.3007801,16.5932291 46.7828715,16.4824784 47.1216435,16.2609736 C47.4343561,16.0134095 47.6363132,15.7397901 47.7275211,15.4401071 C47.7796398,15.3098102 47.8252431,15.1273973 47.8643322,14.8928628 C47.9034212,14.6974175 47.9229655,14.4628865 47.9229655,14.189263 L47.9229655,12.9775078 L47.8838766,12.89933 C47.2845108,13.9677647 46.3659313,14.5019741 45.1281106,14.5019741 C44.3463292,14.5019741 43.6101626,14.3260759 42.919589,13.9742742 C42.2290153,13.6224725 41.668747,13.0361452 41.2387672,12.2152746 C40.8087874,11.4074338 40.5938007,10.3650741 40.5938007,9.08816433 Z M43.4668333,9.26406429 C43.4668333,9.7070738 43.5384955,10.1631062 43.6818221,10.632175 C43.812119,11.0751846 44.0336205,11.4400104 44.3463331,11.7266637 C44.6720753,12.0263466 45.0890192,12.1761858 45.5971772,12.1761858 C47.1477105,12.1761858 47.9229655,11.1663998 47.9229655,9.14679765 C47.9229655,8.24774894 47.7210083,7.51809717 47.3170879,6.95782044 C46.9001377,6.38451401 46.3268399,6.0978651 45.5971772,6.0978651 C45.0108411,6.0978651 44.5092055,6.35194027 44.0922553,6.86009824 C43.6753052,7.3812859 43.4668333,8.1825999 43.4668333,9.26406429 Z M53.0240642,14.4237963 L53.0240642,4.00661008 L55.6625635,4.00661008 L55.6625635,5.53107636 C56.3661668,4.33234475 57.421556,3.73298793 58.8287627,3.73298793 C59.5714551,3.73298793 60.2229299,3.86979764 60.7832066,4.14342116 C61.3304537,4.43007437 61.7473975,4.827474 62.0340507,5.33563196 C62.320704,5.85681962 62.4640284,6.48223543 62.4640284,7.21189815 L62.4640284,14.4237963 L59.7082625,14.4237963 L59.7082625,8.1304868 C59.7082625,7.47900223 59.6040265,6.97085189 59.3955514,6.60602053 C59.1870764,6.24118917 58.6919555,6.05877622 57.910174,6.05877622 C57.1674816,6.05877622 56.6267575,6.29330715 56.2879856,6.76237604 C55.9492136,7.24447462 55.7798301,7.8112577 55.7798301,8.46274227 L55.7798301,14.4237963 L53.0240642,14.4237963 Z M69.8909154,10.1044752 L72.7248591,10.1044752 C72.7248591,10.6126331 72.8616688,11.0360918 73.1352923,11.3748637 C73.3828565,11.7136357 73.7216234,11.9677109 74.1516032,12.1370969 C74.5685533,12.2934532 75.0180709,12.3716302 75.5001695,12.3716302 C77.5588608,12.3716302 78.5881909,11.7983323 78.5881909,10.6517195 C78.5881909,10.2217397 78.483955,9.90251702 78.2754799,9.69404196 C78.0539752,9.4725372 77.8064147,9.31618325 77.5327912,9.22497541 L76.0474138,8.81454218 L74.6988475,8.50183115 C73.7867691,8.33244516 72.9854551,8.09139949 72.2948814,7.77868689 C71.6303672,7.47900399 71.1091873,7.05554537 70.7313263,6.50829833 C70.3274059,5.9480216 70.1254487,5.19882558 70.1254487,4.2606878 C70.1254487,3.43981723 70.3404353,2.69062122 70.7704152,2.01307726 C71.1873653,1.33553331 71.7932369,0.833897711 72.588048,0.508155425 C73.3828592,0.169383448 74.3274977,0 75.4219917,0 C76.4513374,0 77.3243136,0.136809708 78.0409466,0.410433228 C78.7966687,0.697086439 79.3699666,1.05539758 79.7608573,1.4853774 C80.1647777,1.92838691 80.4644561,2.416993 80.6599015,2.95121035 C80.7901984,3.31604171 80.8748902,3.58966113 80.9139792,3.77207681 C80.966098,4.01964095 80.992157,4.27371612 80.992157,4.53430995 L78.1777577,4.53430995 C78.0474608,3.14013296 77.0702486,2.44305493 75.2460918,2.44305493 C74.6206666,2.44305493 74.0603983,2.57986464 73.56527,2.85348816 C73.0701417,3.12711168 72.8225813,3.5245113 72.8225813,4.04569896 C72.8225813,4.77536168 73.1939219,5.25745303 73.9366144,5.49198748 L75.9301472,5.98059846 L77.2982579,6.33239837 C78.3666926,6.57996251 79.1810361,6.84706718 79.7413129,7.13372039 C80.2885599,7.43340329 80.7055038,7.81777343 80.992157,8.28684232 C81.2788102,8.7689409 81.4221347,9.41390095 81.4221347,10.2217418 C81.4221347,11.1729093 81.2136627,11.9677086 80.7967126,12.6061634 C80.3667328,13.2315886 79.8325234,13.7071652 79.1940686,14.0329075 C78.5816731,14.3456201 78.0018605,14.554092 77.4546135,14.6583296 C77.1809899,14.7104483 76.9334295,14.7495368 76.7119248,14.7755962 L76.6532914,14.7755962 C76.3666382,14.8016556 76.164681,14.8146851 76.0474138,14.8146851 C74.0278116,14.8146851 72.5033606,14.4172855 71.474015,13.6224743 C70.41861,12.8146334 69.8909154,11.6419788 69.8909154,10.1044752 Z M86.2300668,14.8342295 L82.6729788,4.88610986 L82.3798122,4.00661008 L85.4287447,4.00661008 L87.6372664,11.6680303 L89.8262436,4.00661008 L92.7188206,4.00661008 L89.2399104,14.0133631 L88.3017773,16.5932291 C88.0672429,17.1404761 87.8196825,17.5639347 87.5590886,17.8636176 C87.2854651,18.1763302 86.9727572,18.3782874 86.6209555,18.4694953 C86.2300648,18.5737328 85.7284292,18.6258508 85.1160337,18.6258508 L84.4319783,18.6063063 L83.9042785,18.5867619 L83.9042785,16.3782402 L84.3928894,16.4173291 C84.7446911,16.4173291 85.0378548,16.3847554 85.2723892,16.3196069 C85.493894,16.2544585 85.6893364,16.111134 85.8587224,15.8896293 C85.9369006,15.7593323 86.002048,15.6160079 86.0541668,15.4596516 C86.1193153,15.2511765 86.177948,15.0427046 86.2300668,14.8342295 Z M93.6374093,11.1012416 L96.471353,11.1012416 C96.471353,12.1175575 97.220549,12.6257079 98.7189635,12.6257079 C99.3052997,12.6257079 99.7483025,12.5149572 100.047985,12.2934524 C100.334639,12.0849773 100.477963,11.8439317 100.477963,11.5703081 C100.477963,11.1794174 100.093593,10.8862537 99.3248412,10.6908084 L96.959964,10.1240196 C96.1651528,9.92857425 95.4811043,9.61586635 94.9077979,9.18588653 C94.3214617,8.75590671 94.0282981,8.09791717 94.0282981,7.21189815 C94.0282981,6.57344327 94.1781373,5.98711595 94.4778202,5.4528986 C94.7644734,4.94474063 95.24005,4.52779676 95.9045643,4.20205448 C96.5560488,3.88934188 97.3443333,3.73298793 98.2694414,3.73298793 C99.5333215,3.73298793 100.504019,3.91540087 101.181563,4.28023223 C101.872137,4.64506359 102.321654,5.09458121 102.530129,5.62879856 C102.660426,5.91545177 102.758147,6.17604169 102.823296,6.41057613 C102.888444,6.69722934 102.921018,6.95130452 102.921018,7.17280927 L100.204341,7.17280927 C100.152222,6.71677007 99.9958682,6.38451792 99.7352744,6.17604286 C99.4746806,5.9545381 99.0186482,5.84378739 98.3671636,5.84378739 C97.2596399,5.84378739 96.7058863,6.16952479 96.7058863,6.82100936 C96.7058863,7.17281103 97.0772269,7.4399157 97.8199193,7.62233138 L100.204341,8.20866456 C101.012182,8.40410993 101.722289,8.71681783 102.334685,9.14679765 C102.934051,9.57677747 103.233729,10.2282523 103.233729,11.1012416 C103.233729,11.8569637 103.051316,12.495409 102.686485,13.0165967 C102.308624,13.550814 101.787444,13.9612431 101.12293,14.2478963 C100.419326,14.5475792 99.6049828,14.6974184 98.6798747,14.6974184 C98.3541324,14.6974184 98.0218802,14.6778742 97.6831083,14.6387851 C97.396455,14.5996961 97.0772324,14.5475781 96.7254307,14.4824296 C96.1130352,14.339103 95.5788259,14.1176016 95.1227867,13.8179187 C94.6537178,13.5052061 94.2888919,13.1208359 94.0282981,12.6647967 C93.7677043,12.2087575 93.6374093,11.6875777 93.6374093,11.1012416 Z M105.559517,12.2934524 L105.559517,5.98059846 L104.152318,5.98059846 L104.152318,4.00661008 L105.559517,4.00661008 L105.559517,1.21175524 L108.315283,1.21175524 L108.315283,4.00661008 L109.996105,4.00661008 L109.996105,5.98059846 L108.315283,5.98059846 L108.315283,11.6289415 C108.315283,11.9807431 108.373916,12.2087593 108.491183,12.3129968 C108.62148,12.4172344 108.927673,12.4693524 109.409772,12.4693524 L109.722483,12.4498079 L109.996105,12.4302635 L109.996105,14.5019741 L109.370683,14.5215185 L108.725717,14.5410629 L108.354372,14.5410629 C107.624709,14.5410629 107.044897,14.4498565 106.614917,14.2674408 C106.184937,14.0850251 105.904803,13.8309499 105.774506,13.5052076 C105.63118,13.153406 105.559517,12.7494916 105.559517,12.2934524 Z M110.895149,9.00998658 C110.895149,8.11093787 111.064533,7.25099113 111.403305,6.43012057 C111.742077,5.60925001 112.289316,4.95777521 113.045038,4.47567663 C113.813789,3.98054835 114.764943,3.73298793 115.898526,3.73298793 C117.097257,3.73298793 118.054925,3.99357785 118.771558,4.51476551 C119.488191,5.03595317 120.002857,5.7330312 120.315569,6.60602053 C120.628282,7.47900985 120.784636,8.43016306 120.784636,9.45950868 L120.784636,9.94811967 L113.611826,9.94811967 C113.611826,10.7820199 113.833328,11.4139505 114.276337,11.8439303 C114.706317,12.2869398 115.312189,12.5084412 116.09397,12.5084412 C116.497891,12.5084412 116.869231,12.3976905 117.208003,12.1761858 C117.546775,11.954681 117.761762,11.6875763 117.85297,11.3748637 L120.667369,11.3748637 C120.445864,12.1045265 120.120127,12.7038833 119.690147,13.1729522 C119.247138,13.6680804 118.719443,14.0459358 118.107047,14.3065297 C117.468593,14.5671235 116.797574,14.6974184 116.09397,14.6974184 C112.628072,14.6974184 110.895149,12.8016268 110.895149,9.00998658 Z M113.729093,8.20866456 L117.970236,8.20866456 C117.918118,7.5441503 117.696616,6.99691146 117.305725,6.56693165 C116.914835,6.1760409 116.432743,5.98059846 115.859437,5.98059846 C114.634646,5.98059846 113.924538,6.72327974 113.729093,8.20866456 Z M122.582724,14.4237963 L122.582724,4.00661008 L125.182135,4.00661008 L125.182135,5.57016524 L125.221223,5.53107636 C125.872708,4.33234475 126.869464,3.73298793 128.211523,3.73298793 C128.967245,3.73298793 129.547057,3.86979764 129.950978,4.14342116 C130.367928,4.41704468 130.752298,4.8405033 131.1041,5.41380972 C131.455901,4.87959237 131.846786,4.46916325 132.276766,4.18251004 C132.693716,3.88282713 133.23444,3.73298793 133.898955,3.73298793 C134.732855,3.73298793 135.416903,3.89585663 135.951121,4.22159892 C136.485338,4.5473412 136.869708,4.98382932 137.104243,5.53107636 C137.351807,6.02620463 137.475587,6.58647296 137.475587,7.21189815 L137.475587,14.4237963 L134.778454,14.4237963 L134.778454,8.1304868 C134.778454,6.74933951 134.263789,6.05877622 133.234444,6.05877622 C132.022682,6.05877622 131.416811,6.7753985 131.416811,8.20866456 L131.416811,14.4237963 L128.661045,14.4237963 L128.661045,8.16957568 C128.661045,7.71353648 128.634986,7.35522534 128.582867,7.09463151 C128.530748,6.79494861 128.374394,6.54087344 128.1138,6.33239837 C127.853207,6.14998269 127.488381,6.05877622 127.019312,6.05877622 C125.898758,6.05877622 125.33849,6.73631001 125.33849,8.09139792 L125.33849,14.4237963 L122.582724,14.4237963 Z M139.273675,11.1012416 L142.107619,11.1012416 C142.107619,12.1175575 142.856815,12.6257079 144.35523,12.6257079 C144.941566,12.6257079 145.384569,12.5149572 145.684251,12.2934524 C145.970905,12.0849773 146.114229,11.8439317 146.114229,11.5703081 C146.114229,11.1794174 145.729859,10.8862537 144.961107,10.6908084 L142.59623,10.1240196 C141.801419,9.92857425 141.11737,9.61586635 140.544064,9.18588653 C139.957728,8.75590671 139.664564,8.09791717 139.664564,7.21189815 C139.664564,6.57344327 139.814403,5.98711595 140.114086,5.4528986 C140.400739,4.94474063 140.876316,4.52779676 141.54083,4.20205448 C142.192315,3.88934188 142.980599,3.73298793 143.905708,3.73298793 C145.169588,3.73298793 146.140285,3.91540087 146.817829,4.28023223 C147.508403,4.64506359 147.95792,5.09458121 148.166395,5.62879856 C148.296692,5.91545177 148.394413,6.17604169 148.459562,6.41057613 C148.52471,6.69722934 148.557284,6.95130452 148.557284,7.17280927 L145.840607,7.17280927 C145.788488,6.71677007 145.632134,6.38451792 145.37154,6.17604286 C145.110947,5.9545381 144.654914,5.84378739 144.00343,5.84378739 C142.895906,5.84378739 142.342152,6.16952479 142.342152,6.82100936 C142.342152,7.17281103 142.713493,7.4399157 143.456185,7.62233138 L145.840607,8.20866456 C146.648448,8.40410993 147.358555,8.71681783 147.970951,9.14679765 C148.570317,9.57677747 148.869995,10.2282523 148.869995,11.1012416 C148.869995,11.8569637 148.687582,12.495409 148.322751,13.0165967 C147.94489,13.550814 147.42371,13.9612431 146.759196,14.2478963 C146.055592,14.5475792 145.241249,14.6974184 144.316141,14.6974184 C143.990398,14.6974184 143.658146,14.6778742 143.319374,14.6387851 C143.032721,14.5996961 142.713498,14.5475781 142.361697,14.4824296 C141.749301,14.339103 141.215092,14.1176016 140.759053,13.8179187 C140.289984,13.5052061 139.925158,13.1208359 139.664564,12.6647967 C139.40397,12.2087575 139.273675,11.6875777 139.273675,11.1012416 Z" id="Design-Systems" fill="#FFFFFF"></path>
                    <path d="M5.64712644,34.9762419 L3.65402299,34.9762419 L0,21 L2.05172414,21 L4.65057471,32.3909287 L7.85517241,21 L9.90689655,21 L13.1310345,32.3909287 L15.7103448,21 L17.8206897,21 L14.108046,34.9762419 L12.1344828,34.9762419 L8.92988506,23.3909287 L5.64712644,34.9762419 Z M16.8827586,29.8833693 C16.8827586,28.9632783 17.0586189,28.0950365 17.4103448,27.2786177 C17.736017,26.488117 18.2701112,25.8272165 19.0126437,25.2958963 C19.7421492,24.7904942 20.6084241,24.537797 21.6114943,24.537797 C22.6536451,24.537797 23.5329466,24.7904942 24.2494253,25.2958963 C24.965904,25.8142575 25.4999982,26.475158 25.8517241,27.2786177 C26.20345,28.0950365 26.3793103,28.9632783 26.3793103,29.8833693 C26.3793103,30.7775423 26.20345,31.6457841 25.8517241,32.488121 C25.4999982,33.3174987 24.965904,33.9913581 24.2494253,34.5097192 C23.5329466,35.0280803 22.6536451,35.287257 21.6114943,35.287257 C20.5823703,35.287257 19.7095821,35.0280803 18.9931034,34.5097192 C18.250571,33.9913581 17.7164767,33.3174987 17.3908046,32.488121 C17.0521056,31.6328251 16.8827586,30.7645832 16.8827586,29.8833693 Z M18.6413793,29.8833693 C18.6413793,30.4406075 18.7325661,31.0237551 18.9149425,31.6328294 C19.0973189,32.2548627 19.4034461,32.7602572 19.8333333,33.1490281 C20.2892743,33.576676 20.8819887,33.7904968 21.6114943,33.7904968 C22.3670536,33.7904968 22.9662813,33.576676 23.4091954,33.1490281 C23.8651364,32.7343392 24.1777769,32.2289447 24.3471264,31.6328294 C24.5164759,31.0496731 24.6011494,30.4665256 24.6011494,29.8833693 C24.6011494,29.287254 24.5164759,28.6976271 24.3471264,28.1144708 C24.16475,27.5183556 23.8521095,27.0194405 23.4091954,26.6177106 C22.9662813,26.2159807 22.3670536,26.0151188 21.6114943,26.0151188 C20.5432897,26.0151188 19.7812283,26.4168426 19.3252874,27.2203024 C18.8693464,28.0496802 18.6413793,28.9373603 18.6413793,29.8833693 Z M28.5678161,34.9762419 L28.5678161,24.8099352 L30.2091954,24.8099352 L30.2091954,26.5399568 C30.6130288,25.8660873 31.0494229,25.3736517 31.5183908,25.062635 C32.0003856,24.7386593 32.6842868,24.5766739 33.5701149,24.5766739 L33.5701149,26.3650108 C32.6061254,26.3650108 31.8180107,26.5917904 31.2057471,27.0453564 C30.5934835,27.4989224 30.2873563,28.114467 30.2873563,28.8920086 L30.2873563,34.9762419 L28.5678161,34.9762419 Z M36.5402299,34.9762419 L34.8597701,34.9762419 L34.8597701,21 L36.5402299,21 L36.5402299,29.12527 L40.8977011,24.8099352 L43.1057471,24.8099352 L39.2172414,28.600432 L43.3402299,34.9762419 L41.1321839,34.9762419 L37.9666667,29.8444924 L36.5402299,31.1468683 L36.5402299,34.9762419 Z M52.0747126,27.7257019 L50.3942529,27.7257019 C50.3942529,26.5853075 49.5931115,26.0151188 47.9908046,26.0151188 C47.8214551,26.0151188 47.5413813,26.0475159 47.1505747,26.112311 C46.8509564,26.1900652 46.5773959,26.3326124 46.3298851,26.5399568 C46.0693474,26.7602603 45.9390805,27.0647929 45.9390805,27.4535637 C45.9390805,27.7257033 45.9977006,27.9395241 46.1149425,28.0950324 C46.2452114,28.2375817 46.4340984,28.36717 46.6816092,28.4838013 C46.8509587,28.5615555 47.2287327,28.6652261 47.8149425,28.7948164 L49.2609195,29.1447084 C49.4172422,29.1835855 49.6191559,29.2354208 49.8666667,29.300216 C49.944828,29.326134 50.0099614,29.3455723 50.062069,29.3585313 C50.2053647,29.3974084 50.4658985,29.5075585 50.8436782,29.6889849 C51.2996191,29.8963293 51.6773931,30.1814237 51.9770115,30.5442765 C52.2505761,30.9071292 52.3873563,31.3606884 52.3873563,31.9049676 C52.3873563,32.5917961 52.211496,33.1879024 51.8597701,33.6933045 C51.534098,34.1987066 51.0651372,34.5874716 50.4528736,34.8596112 C49.84061,35.1447098 49.1371687,35.287257 48.3425287,35.287257 C47.1180015,35.287257 46.1865932,35.0863951 45.5482759,34.6846652 C44.8969316,34.2958944 44.4800775,33.855294 44.2977011,33.362851 L44.1022989,32.7796976 C43.9980838,32.4038858 43.945977,32.0475179 43.945977,31.7105832 L45.6264368,31.7105832 C45.6264368,32.2548623 45.8218371,32.7408186 46.2126437,33.1684665 C46.5643696,33.5831554 47.2743242,33.7904968 48.3425287,33.7904968 C49.0068999,33.7904968 49.5605342,33.654429 50.0034483,33.3822894 C50.4463624,33.1101498 50.6678161,32.7149054 50.6678161,32.1965443 C50.6678161,31.7688963 50.5245225,31.4708432 50.237931,31.3023758 C49.9383127,31.1209494 49.4042184,30.9265669 48.6356322,30.7192225 L47.1310345,30.3693305 C46.6490397,30.2656582 46.1931056,30.1166316 45.7632184,29.9222462 C45.3333312,29.7278608 44.9816106,29.4557253 44.708046,29.1058315 C44.4344814,28.7559378 44.2977011,28.308858 44.2977011,27.7645788 C44.2977011,27.0388733 44.4735615,26.4362875 44.8252874,25.9568035 C45.1509595,25.4773194 45.6199203,25.1209515 46.2321839,24.887689 C46.8183937,24.6544265 47.4567015,24.537797 48.1471264,24.537797 C49.215331,24.537797 50.0555525,24.7451383 50.6678161,25.1598272 C51.2540259,25.5485981 51.6383133,25.9891984 51.8206897,26.4816415 C51.9900392,26.9481665 52.0747126,27.3628492 52.0747126,27.7257019 Z M62.6850575,28.075594 L62.6850575,34.9762419 L60.9655172,34.9762419 L60.9655172,28.3282937 C60.9655172,27.5507521 60.8222237,26.9805634 60.5356322,26.6177106 C60.2360138,26.2418988 59.7084329,26.0539957 58.9528736,26.0539957 C58.1452067,26.0539957 57.4678188,26.3261312 56.9206897,26.8704104 C56.3605336,27.4017305 56.0804598,28.2570135 56.0804598,29.4362851 L56.0804598,34.9762419 L54.3609195,34.9762419 L54.3609195,21 L56.0804598,21 L56.0804598,26.1706263 L56.9597701,25.1987041 C57.1421465,25.0172777 57.396167,24.8617717 57.7218391,24.7321814 C58.0344843,24.6025911 58.4969318,24.537797 59.1091954,24.537797 C59.7605397,24.537797 60.333714,24.6414676 60.8287356,24.8488121 C61.3628379,25.0431975 61.8057454,25.4060449 62.1574713,25.937365 C62.5091972,26.4557261 62.6850575,27.168462 62.6850575,28.075594 Z M64.6781609,29.8833693 C64.6781609,28.9632783 64.8540212,28.0950365 65.2057471,27.2786177 C65.5314193,26.488117 66.0655135,25.8272165 66.808046,25.2958963 C67.5375515,24.7904942 68.4038264,24.537797 69.4068966,24.537797 C70.4490474,24.537797 71.3283489,24.7904942 72.0448276,25.2958963 C72.7613063,25.8142575 73.2954005,26.475158 73.6471264,27.2786177 C73.9988523,28.0950365 74.1747126,28.9632783 74.1747126,29.8833693 C74.1747126,30.7775423 73.9988523,31.6457841 73.6471264,32.488121 C73.2954005,33.3174987 72.7613063,33.9913581 72.0448276,34.5097192 C71.3283489,35.0280803 70.4490474,35.287257 69.4068966,35.287257 C68.3777726,35.287257 67.5049844,35.0280803 66.7885057,34.5097192 C66.0459733,33.9913581 65.511879,33.3174987 65.1862069,32.488121 C64.8475079,31.6328251 64.6781609,30.7645832 64.6781609,29.8833693 Z M66.4367816,29.8833693 C66.4367816,30.4406075 66.5279684,31.0237551 66.7103448,31.6328294 C66.8927212,32.2548627 67.1988484,32.7602572 67.6287356,33.1490281 C68.0846766,33.576676 68.677391,33.7904968 69.4068966,33.7904968 C70.1624559,33.7904968 70.7616836,33.576676 71.2045977,33.1490281 C71.6605387,32.7343392 71.9731792,32.2289447 72.1425287,31.6328294 C72.3118782,31.0496731 72.3965517,30.4665256 72.3965517,29.8833693 C72.3965517,29.287254 72.3118782,28.6976271 72.1425287,28.1144708 C71.9601523,27.5183556 71.6475118,27.0194405 71.2045977,26.6177106 C70.7616836,26.2159807 70.1624559,26.0151188 69.4068966,26.0151188 C68.338692,26.0151188 67.5766306,26.4168426 67.1206897,27.2203024 C66.6647487,28.0496802 66.4367816,28.9373603 66.4367816,29.8833693 Z M75.991954,39 L75.991954,24.8099352 L77.6333333,24.8099352 L77.6333333,26.287257 C77.7766291,25.9891994 78.0045961,25.6911462 78.3172414,25.3930886 C78.6298866,25.120949 78.9946339,24.8941694 79.4114943,24.712743 C79.8023008,24.5442756 80.2517216,24.4600432 80.7597701,24.4600432 C81.6455983,24.4600432 82.414173,24.7256993 83.0655172,25.2570194 C83.7038346,25.7753806 84.1923355,26.4492399 84.5310345,27.2786177 C84.8436797,28.1079955 85,28.9632785 85,29.8444924 C85,30.6997883 84.830653,31.5550713 84.491954,32.4103672 C84.1662819,33.265663 83.658241,33.96544 82.9678161,34.5097192 C82.2904181,35.0539984 81.4892767,35.3261339 80.5643678,35.3261339 C79.9521042,35.3261339 79.4310366,35.2159838 79.0011494,34.9956803 C78.5842891,34.7883359 78.1609217,34.4125297 77.7310345,33.8682505 L77.7310345,39 L75.991954,39 Z M77.6333333,30.3110151 C77.6333333,30.8941714 77.7114935,31.4125247 77.8678161,31.8660907 C77.9980849,32.2937386 78.2130253,32.656586 78.5126437,32.9546436 C79.0597729,33.5118818 79.7306474,33.7904968 80.5252874,33.7904968 C81.0333359,33.7904968 81.4957834,33.6220319 81.9126437,33.2850972 C82.3425309,32.9352034 82.6616848,32.4492472 82.8701149,31.8272138 C83.091572,31.1792624 83.2022989,30.4470883 83.2022989,29.6306695 C83.2022989,28.9956772 83.1371654,28.464365 83.0068966,28.0367171 C82.8636008,27.5701921 82.6747138,27.2008653 82.4402299,26.9287257 C81.971262,26.3455694 81.2808475,26.0539957 80.3689655,26.0539957 C79.743675,26.0539957 79.2226074,26.2483782 78.8057471,26.637149 C78.3758599,27.0388789 78.0762461,27.5572322 77.9068966,28.1922246 C77.7245202,28.8531351 77.6333333,29.5593915 77.6333333,30.3110151 Z" id="Workshop" fill="#FFFFFE"></path>
                    <path d="M101.328,35 L100.132,35 L98.182,28.201 L99.417,28.201 L100.717,33.557 L102.069,28.201 L103.33,28.201 L104.708,33.557 L106.073,28.201 L107.217,28.201 L105.241,35 L104.045,35 L102.667,29.748 L101.328,35 Z M108.231,25.679 L109.401,25.679 L109.401,26.979 L108.231,26.979 L108.231,25.679 Z M108.231,28.227 L109.401,28.227 L109.401,35 L108.231,35 L108.231,28.227 Z M111.312,34.181 L111.312,29.267 L110.402,29.267 L110.402,28.149 L111.312,28.149 L111.312,26.29 L112.456,26.29 L112.456,28.149 L113.574,28.149 L113.574,29.267 L112.456,29.267 L112.456,33.583 C112.482,33.8256679 112.542666,33.9946662 112.638,34.09 C112.733334,34.1853338 112.850333,34.233 112.989,34.233 L113.574,34.181 L113.574,35.208 L112.742,35.26 C112.325998,35.26 111.992335,35.1733342 111.741,35 C111.498332,34.8266658 111.355334,34.5536685 111.312,34.181 Z M120.269,30.385 L120.269,35 L119.125,35 L119.125,30.554 C119.125,30.0339974 119.029668,29.6526679 118.839,29.41 C118.639666,29.1586654 118.288669,29.033 117.786,29.033 C117.248664,29.033 116.798002,29.2149982 116.434,29.579 C116.061331,29.9343351 115.875,30.5063294 115.875,31.295 L115.875,35 L114.731,35 L114.731,25.653 L115.875,25.653 L115.875,29.111 L116.46,28.461 C116.581334,28.3396661 116.750332,28.2356671 116.967,28.149 C117.175001,28.0623329 117.482665,28.019 117.89,28.019 C118.323335,28.019 118.704665,28.0883326 119.034,28.227 C119.389335,28.3570006 119.683999,28.5996649 119.918,28.955 C120.152001,29.3016684 120.269,29.7783303 120.269,30.385 Z M124.923,35 L128.42,25.653 L129.876,25.653 L133.243,35 L131.852,35 L130.942,32.283 L127.185,32.283 L126.21,35 L124.923,35 Z M127.588,31.165 L130.474,31.165 L129.083,27.031 L127.588,31.165 Z M135.427,25.653 L135.427,35 L134.283,35 L134.283,25.653 L135.427,25.653 Z M138.326,25.653 L138.326,35 L137.182,35 L137.182,25.653 L138.326,25.653 Z M139.951,34.207 C139.656332,33.7909979 139.586999,33.2883363 139.743,32.699 C139.786334,32.5343325 139.842666,32.3783341 139.912,32.231 C140.050667,31.9449986 140.314998,31.6763346 140.705,31.425 C141.095002,31.1736654 141.740662,31.0263336 142.642,30.983 C143.543338,30.9396664 144.0395,30.850834 144.1305,30.7165 C144.2215,30.582166 144.254,30.3936679 144.228,30.151 C144.228,29.3536627 143.703672,28.955 142.655,28.955 C142.152331,28.955 141.766668,29.0633322 141.498,29.28 C141.220665,29.5053345 141.082,29.8389978 141.082,30.281 L140.016,30.281 C140.016,29.8996648 140.115666,29.5313351 140.315,29.176 C140.505668,28.8293316 140.808998,28.5476677 141.225,28.331 C141.632335,28.122999 142.12633,28.019 142.707,28.019 C143.175002,28.019 143.603998,28.0753328 143.994,28.188 C144.410002,28.3093339 144.739332,28.504332 144.982,28.773 C145.224668,29.041668 145.346,29.3839979 145.346,29.8 L145.346,33.674 C145.346,33.8560009 145.367666,33.9903329 145.411,34.077 C145.454334,34.1636671 145.540999,34.2156666 145.671,34.233 L146.1,34.168 L146.1,35 C145.961333,35.0866671 145.710002,35.13 145.346,35.13 C144.63533,35.13 144.28,34.7920034 144.28,34.116 C143.967998,34.4540017 143.604002,34.7226657 143.188,34.922 C142.780665,35.1126676 142.330002,35.208 141.836,35.208 C141.437331,35.208 141.073335,35.1170009 140.744,34.935 C140.414665,34.7616658 140.150334,34.5190016 139.951,34.207 Z M144.202,31.516 C143.725331,31.6633341 143.175003,31.7521665 142.551,31.7825 C141.926997,31.8128335 141.454668,32.0099982 141.134,32.374 C140.960666,32.5993345 140.874,32.8983315 140.874,33.271 C140.943334,33.9470034 141.341996,34.285 142.07,34.285 C142.321335,34.285 142.641998,34.2113341 143.032,34.064 C143.361335,33.9513328 143.638666,33.7780012 143.864,33.544 C144.089334,33.3186655 144.202,33.0500016 144.202,32.738 L144.202,31.516 Z M152.301,31.724 L152.301,35 L151.053,35 L151.053,25.653 L152.301,25.653 L152.301,30.203 L156.838,25.653 L158.567,25.653 L154.68,29.436 L158.671,35 L157.046,35 L153.77,30.333 L152.301,31.724 Z M165.119,30.385 L165.119,35 L163.975,35 L163.975,30.554 C163.975,30.0339974 163.879668,29.6526679 163.689,29.41 C163.489666,29.1586654 163.138669,29.033 162.636,29.033 C162.098664,29.033 161.648002,29.2149982 161.284,29.579 C160.911331,29.9343351 160.725,30.5063294 160.725,31.295 L160.725,35 L159.581,35 L159.581,25.653 L160.725,25.653 L160.725,29.111 L161.31,28.461 C161.431334,28.3396661 161.600332,28.2356671 161.817,28.149 C162.025001,28.0623329 162.332665,28.019 162.74,28.019 C163.173336,28.019 163.554665,28.0883326 163.884,28.227 C164.239335,28.3570006 164.533999,28.5996649 164.768,28.955 C165.002001,29.3016684 165.119,29.7783303 165.119,30.385 Z M166.445,31.594 C166.445,30.9786636 166.561999,30.3980027 166.796,29.852 C167.012668,29.3233307 167.367998,28.8813351 167.862,28.526 C168.347336,28.1879983 168.923663,28.019 169.591,28.019 C170.284337,28.019 170.869331,28.1879983 171.346,28.526 C171.822669,28.8726684 172.177999,29.314664 172.412,29.852 C172.646001,30.3980027 172.763,30.9786636 172.763,31.594 C172.763,32.192003 172.646001,32.7726639 172.412,33.336 C172.177999,33.8906694 171.822669,34.3413316 171.346,34.688 C170.869331,35.0346684 170.284337,35.208 169.591,35.208 C168.90633,35.208 168.325669,35.0346684 167.849,34.688 C167.354998,34.3413316 166.999668,33.8906694 166.783,33.336 C166.557666,32.7639971 166.445,32.1833363 166.445,31.594 Z M167.615,31.594 C167.615,31.9666685 167.675666,32.3566646 167.797,32.764 C167.918334,33.1800021 168.121999,33.5179987 168.408,33.778 C168.711335,34.0640014 169.105664,34.207 169.591,34.207 C170.093669,34.207 170.492332,34.0640014 170.787,33.778 C171.090335,33.5006653 171.298333,33.1626687 171.411,32.764 C171.523667,32.373998 171.58,31.9840019 171.58,31.594 C171.58,31.1953313 171.523667,30.8010019 171.411,30.411 C171.289666,30.0123313 171.081668,29.678668 170.787,29.41 C170.492332,29.141332 170.093669,29.007 169.591,29.007 C168.88033,29.007 168.373335,29.275664 168.07,29.813 C167.766665,30.3676694 167.615,30.9613302 167.615,31.594 Z M175.233,25.653 L175.233,35 L174.089,35 L174.089,25.653 L175.233,25.653 Z M176.962,35 L176.962,28.201 L178.028,28.201 L178.028,29.163 C178.600003,28.4003295 179.297663,28.019 180.121,28.019 C180.667003,28.019 181.065665,28.1273322 181.317,28.344 C181.577001,28.5606678 181.784999,28.8163319 181.941,29.111 C182.287668,28.7123313 182.599665,28.4306675 182.877,28.266 C183.154335,28.1013325 183.535664,28.019 184.021,28.019 C184.298335,28.019 184.610332,28.0796661 184.957,28.201 C185.277668,28.3310007 185.554999,28.5693316 185.789,28.916 C186.023001,29.2626684 186.14,29.7263304 186.14,30.307 L186.14,35 L184.996,35 L184.996,30.606 C184.996,29.5573281 184.571338,29.033 183.722,29.033 C183.427332,29.033 183.154335,29.1196658 182.903,29.293 C182.651665,29.4663342 182.461001,29.6959986 182.331,29.982 C182.192333,30.2420013 182.123,30.536665 182.123,30.866 L182.123,35 L180.979,35 L180.979,30.307 C180.979,29.9429982 180.896667,29.6396679 180.732,29.397 C180.567333,29.1543321 180.294335,29.033 179.913,29.033 C179.652999,29.033 179.384335,29.0979994 179.107,29.228 C178.838332,29.3666674 178.604334,29.6093316 178.405,29.956 C178.205666,30.3026684 178.106,30.7489973 178.106,31.295 L178.106,35 L176.962,35 Z M187.674,34.207 C187.379332,33.7909979 187.309999,33.2883363 187.466,32.699 C187.509334,32.5343325 187.565666,32.3783341 187.635,32.231 C187.773667,31.9449986 188.037998,31.6763346 188.428,31.425 C188.818002,31.1736654 189.463662,31.0263336 190.365,30.983 C191.266338,30.9396664 191.7625,30.850834 191.8535,30.7165 C191.9445,30.582166 191.977,30.3936679 191.951,30.151 C191.951,29.3536627 191.426672,28.955 190.378,28.955 C189.875331,28.955 189.489668,29.0633322 189.221,29.28 C188.943665,29.5053345 188.805,29.8389978 188.805,30.281 L187.739,30.281 C187.739,29.8996648 187.838666,29.5313351 188.038,29.176 C188.228668,28.8293316 188.531998,28.5476677 188.948,28.331 C189.355335,28.122999 189.84933,28.019 190.43,28.019 C190.898002,28.019 191.326998,28.0753328 191.717,28.188 C192.133002,28.3093339 192.462332,28.504332 192.705,28.773 C192.947668,29.041668 193.069,29.3839979 193.069,29.8 L193.069,33.674 C193.069,33.8560009 193.090666,33.9903329 193.134,34.077 C193.177334,34.1636671 193.263999,34.2156666 193.394,34.233 L193.823,34.168 L193.823,35 C193.684333,35.0866671 193.433002,35.13 193.069,35.13 C192.35833,35.13 192.003,34.7920034 192.003,34.116 C191.690998,34.4540017 191.327002,34.7226657 190.911,34.922 C190.503665,35.1126676 190.053002,35.208 189.559,35.208 C189.160331,35.208 188.796335,35.1170009 188.467,34.935 C188.137665,34.7616658 187.873334,34.5190016 187.674,34.207 Z M191.925,31.516 C191.448331,31.6633341 190.898003,31.7521665 190.274,31.7825 C189.649997,31.8128335 189.177668,32.0099982 188.857,32.374 C188.683666,32.5993345 188.597,32.8983315 188.597,33.271 C188.666334,33.9470034 189.064996,34.285 189.793,34.285 C190.044335,34.285 190.364998,34.2113341 190.755,34.064 C191.084335,33.9513328 191.361666,33.7780012 191.587,33.544 C191.812334,33.3186655 191.925,33.0500016 191.925,32.738 L191.925,31.516 Z M195.201,34.181 L195.201,29.267 L194.291,29.267 L194.291,28.149 L195.201,28.149 L195.201,26.29 L196.345,26.29 L196.345,28.149 L197.463,28.149 L197.463,29.267 L196.345,29.267 L196.345,33.583 C196.371,33.8256679 196.431666,33.9946662 196.527,34.09 C196.622334,34.1853338 196.739333,34.233 196.878,34.233 L197.463,34.181 L197.463,35.208 L196.631,35.26 C196.214998,35.26 195.881335,35.1733342 195.63,35 C195.387332,34.8266658 195.244334,34.5536685 195.201,34.181 Z M198.243,31.594 C198.243,30.9786636 198.359999,30.3980027 198.594,29.852 C198.810668,29.3233307 199.165998,28.8813351 199.66,28.526 C200.145336,28.1879983 200.721663,28.019 201.389,28.019 C202.082337,28.019 202.667331,28.1879983 203.144,28.526 C203.620669,28.8726684 203.975999,29.314664 204.21,29.852 C204.444001,30.3980027 204.561,30.9786636 204.561,31.594 C204.561,32.192003 204.444001,32.7726639 204.21,33.336 C203.975999,33.8906694 203.620669,34.3413316 203.144,34.688 C202.667331,35.0346684 202.082337,35.208 201.389,35.208 C200.70433,35.208 200.123669,35.0346684 199.647,34.688 C199.152998,34.3413316 198.797668,33.8906694 198.581,33.336 C198.355666,32.7639971 198.243,32.1833363 198.243,31.594 Z M199.413,31.594 C199.413,31.9666685 199.473666,32.3566646 199.595,32.764 C199.716334,33.1800021 199.919999,33.5179987 200.206,33.778 C200.509335,34.0640014 200.903664,34.207 201.389,34.207 C201.891669,34.207 202.290332,34.0640014 202.585,33.778 C202.888335,33.5006653 203.096333,33.1626687 203.209,32.764 C203.321667,32.373998 203.378,31.9840019 203.378,31.594 C203.378,31.1953313 203.321667,30.8010019 203.209,30.411 C203.087666,30.0123313 202.879668,29.678668 202.585,29.41 C202.290332,29.141332 201.891669,29.007 201.389,29.007 C200.67833,29.007 200.171335,29.275664 199.868,29.813 C199.564665,30.3676694 199.413,30.9613302 199.413,31.594 Z M207.616,35 L205.133,28.201 L206.446,28.201 L208.227,33.778 L210.177,28.201 L211.425,28.201 L208.838,35 L207.616,35 Z M212.257,34.207 C211.962332,33.7909979 211.892999,33.2883363 212.049,32.699 C212.092334,32.5343325 212.148666,32.3783341 212.218,32.231 C212.356667,31.9449986 212.620998,31.6763346 213.011,31.425 C213.401002,31.1736654 214.046662,31.0263336 214.948,30.983 C215.849338,30.9396664 216.3455,30.850834 216.4365,30.7165 C216.5275,30.582166 216.56,30.3936679 216.534,30.151 C216.534,29.3536627 216.009672,28.955 214.961,28.955 C214.458331,28.955 214.072668,29.0633322 213.804,29.28 C213.526665,29.5053345 213.388,29.8389978 213.388,30.281 L212.322,30.281 C212.322,29.8996648 212.421666,29.5313351 212.621,29.176 C212.811668,28.8293316 213.114998,28.5476677 213.531,28.331 C213.938335,28.122999 214.43233,28.019 215.013,28.019 C215.481002,28.019 215.909998,28.0753328 216.3,28.188 C216.716002,28.3093339 217.045332,28.504332 217.288,28.773 C217.530668,29.041668 217.652,29.3839979 217.652,29.8 L217.652,33.674 C217.652,33.8560009 217.673666,33.9903329 217.717,34.077 C217.760334,34.1636671 217.846999,34.2156666 217.977,34.233 L218.406,34.168 L218.406,35 C218.267333,35.0866671 218.016002,35.13 217.652,35.13 C216.94133,35.13 216.586,34.7920034 216.586,34.116 C216.273998,34.4540017 215.910002,34.7226657 215.494,34.922 C215.086665,35.1126676 214.636002,35.208 214.142,35.208 C213.743331,35.208 213.379335,35.1170009 213.05,34.935 C212.720665,34.7616658 212.456334,34.5190016 212.257,34.207 Z M216.508,31.516 C216.031331,31.6633341 215.481003,31.7521665 214.857,31.7825 C214.232997,31.8128335 213.760668,32.0099982 213.44,32.374 C213.266666,32.5993345 213.18,32.8983315 213.18,33.271 C213.249334,33.9470034 213.647996,34.285 214.376,34.285 C214.627335,34.285 214.947998,34.2113341 215.338,34.064 C215.667335,33.9513328 215.944666,33.7780012 216.17,33.544 C216.395334,33.3186655 216.508,33.0500016 216.508,32.738 L216.508,31.516 Z" id="with-Alla-Kholmatova" fill="#FFFFFF"></path>
                </g>
            </g>
        </g>
    </g>
</svg>