<?xml version="1.0" encoding="UTF-8" standalone="no"?>
<svg width="1136px" height="19px" viewBox="0 0 1136 19" version="1.1" xmlns="http://www.w3.org/2000/svg" xmlns:xlink="http://www.w3.org/1999/xlink">
    <!-- Generator: Sketch 49.3 (51167) - http://www.bohemiancoding.com/sketch -->
    <title>separator</title>
    <desc>Created with Sketch.</desc>
    <defs>
        <rect id="path-1" x="0" y="0" width="1136" height="20"></rect>
    </defs>
    <g id="Page-1" stroke="none" stroke-width="1" fill="none" fill-rule="evenodd" opacity="0.15">
        <g id="Homepage" transform="translate(-76.000000, -837.000000)">
            <g id="Workshop" transform="translate(40.000000, 77.000000)">
                <g id="Alla-Kholmatova" transform="translate(0.000000, 330.000000)">
                    <g id="separator" transform="translate(36.000000, 427.000000)">
                        <g transform="translate(0.000000, 2.000000)">
                            <mask id="mask-2" fill="white">
                                <use xlink:href="#path-1"></use>
                            </mask>
                            <use id="Mask" fill="#FFFFFF" opacity="0" xlink:href="#path-1"></use>
                            <g id="pattern" mask="url(#mask-2)">
                                <g transform="translate(547.500000, 10.500000) rotate(-90.000000) translate(-547.500000, -10.500000) translate(538.000000, -578.000000)" id="Group-2">
                                    <g transform="translate(-0.000000, 0.000000)">
                                        <ellipse id="Oval" fill="#3C3C3C" fill-rule="nonzero" cx="9.253" cy="184.510243" rx="4.807" ry="5.05920139"></ellipse>
                                        <path d="M16.359,44.8322917 L2.147,44.8322917 C1.52,44.8322917 0.893,44.3923611 0.684,43.9524306 C0.266,43.5125 0.266,42.6326389 0.684,42.1927083 L7.79,27.2350694 C8.417,25.9152778 10.298,25.9152778 10.925,27.2350694 L18.031,42.1927083 C18.24,42.8526042 18.24,43.5125 18.031,43.9524306 C17.404,44.6123264 16.986,44.8322917 16.359,44.8322917 Z M5.073,41.0928819 L13.642,41.0928819 L9.462,32.0743056 L5.073,41.0928819 Z" id="Shape" fill="#3C3C3C" fill-rule="nonzero"></path>
                                        <path d="M16.359,372.36059 L2.147,372.36059 C1.52,372.36059 0.893,371.92066 0.684,371.480729 C0.266,371.040799 0.266,370.160938 0.684,369.721007 L7.79,354.763368 C8.417,353.443576 10.298,353.443576 10.925,354.763368 L18.031,369.721007 C18.24,370.380903 18.24,371.040799 18.031,371.480729 C17.404,372.140625 16.986,372.36059 16.359,372.36059 Z M5.073,368.621181 L13.642,368.621181 L9.462,359.602604 L5.073,368.621181 Z" id="Shape" fill="#3C3C3C" fill-rule="nonzero"></path>
                                        <path d="M16.359,402.275868 L2.147,402.275868 C1.52,402.275868 0.893,401.835938 0.684,401.396007 C0.266,400.956076 0.266,400.076215 0.684,399.636285 L7.79,384.678646 C8.417,383.358854 10.298,383.358854 10.925,384.678646 L18.031,399.636285 C18.24,400.296181 18.24,400.956076 18.031,401.396007 C17.404,401.835938 16.986,402.275868 16.359,402.275868 Z M5.073,398.536458 L13.642,398.536458 L9.462,389.517882 L5.073,398.536458 Z" id="Shape" fill="#3C3C3C" fill-rule="nonzero"></path>
                                        <path d="M16.359,729.804167 L2.147,729.804167 C1.52,729.804167 0.893,729.364236 0.684,728.924306 C0.266,728.484375 0.266,727.604514 0.684,727.164583 L7.79,712.206944 C8.417,710.887153 10.298,710.887153 10.925,712.206944 L18.031,727.164583 C18.24,727.824479 18.24,728.484375 18.031,728.924306 C17.404,729.364236 16.986,729.804167 16.359,729.804167 Z M5.073,726.064757 L13.642,726.064757 L9.462,717.046181 L5.073,726.064757 Z" id="Shape" fill="#3C3C3C" fill-rule="nonzero"></path>
                                        <path d="M16.359,878.500694 L2.147,878.500694 C1.52,878.500694 0.893,878.060764 0.684,877.620833 C0.266,877.180903 0.266,876.301042 0.684,875.861111 L7.79,860.903472 C8.417,859.583681 10.298,859.583681 10.925,860.903472 L18.031,875.861111 C18.24,876.521007 18.24,877.180903 18.031,877.620833 C17.404,878.280729 16.986,878.500694 16.359,878.500694 Z M5.073,874.98125 L13.642,874.98125 L9.462,865.962674 L5.073,874.98125 Z" id="Shape" fill="#3C3C3C" fill-rule="nonzero"></path>
                                        <path d="M16.359,1116.72309 L2.147,1116.72309 C1.52,1116.72309 0.893,1116.28316 0.684,1115.84323 C0.266,1115.4033 0.266,1114.52344 0.684,1114.08351 L7.79,1099.12587 C8.417,1097.80608 10.298,1097.80608 10.925,1099.12587 L18.031,1114.08351 C18.24,1114.7434 18.24,1115.4033 18.031,1115.84323 C17.404,1116.50313 16.986,1116.72309 16.359,1116.72309 Z M5.073,1113.20365 L13.642,1113.20365 L9.462,1104.18507 L5.073,1113.20365 Z" id="Shape" fill="#3C3C3C" fill-rule="nonzero"></path>
                                        <path d="M16.359,670.193576 L2.147,670.193576 C1.52,670.193576 0.893,669.753646 0.684,669.313715 C0.266,668.873785 0.266,667.993924 0.684,667.553993 L7.79,652.596354 C8.417,651.276562 10.298,651.276562 10.925,652.596354 L18.031,667.553993 C18.24,668.213889 18.24,668.873785 18.031,669.313715 C17.404,669.753646 16.986,670.193576 16.359,670.193576 Z M5.073,666.454167 L13.642,666.454167 L9.462,657.43559 L5.073,666.454167 Z" id="Shape" fill="#3C3C3C" fill-rule="nonzero"></path>
                                        <ellipse id="Oval" fill="#3C3C3C" fill-rule="nonzero" cx="9.253" cy="988.263368" rx="4.807" ry="5.05920139"></ellipse>
                                        <ellipse id="Oval" fill="#3C3C3C" fill-rule="nonzero" cx="9.253" cy="541.733854" rx="4.807" ry="5.05920139"></ellipse>
                                        <path d="M2.147,580.887674 C1.729,580.887674 1.311,580.667708 0.893,580.447743 C0.266,579.787847 0.266,578.468056 0.893,577.80816 L15.105,562.850521 C15.732,562.190625 16.986,562.190625 17.613,562.850521 C18.24,563.510417 18.24,564.830208 17.613,565.490104 L3.401,580.447743 C2.983,580.667708 2.565,580.887674 2.147,580.887674 Z" id="Shape" fill="#3C3C3C" fill-rule="nonzero"></path>
                                        <path d="M2.147,223.444097 C1.729,223.444097 1.311,223.224132 0.893,223.004167 C0.266,222.344271 0.266,221.024479 0.893,220.364583 L15.105,205.406944 C15.732,204.747049 16.986,204.747049 17.613,205.406944 C18.24,206.06684 18.24,207.386632 17.613,208.046528 L3.401,223.004167 C2.983,223.444097 2.565,223.444097 2.147,223.444097 Z" id="Shape" fill="#3C3C3C" fill-rule="nonzero"></path>
                                        <path d="M2.147,74.7475694 C1.729,74.7475694 1.311,74.5276042 0.893,74.3076389 C0.266,73.6477431 0.266,72.3279514 0.893,71.6680556 L15.105,56.7104167 C15.732,56.0505208 16.986,56.0505208 17.613,56.7104167 C18.24,57.3703125 18.24,58.6901042 17.613,59.35 L3.401,74.3076389 C2.983,74.5276042 2.565,74.7475694 2.147,74.7475694 Z" id="Shape" fill="#3C3C3C" fill-rule="nonzero"></path>
                                        <path d="M16.359,74.7475694 C15.941,74.7475694 15.523,74.5276042 15.105,74.3076389 L0.893,59.35 C0.266,58.6901042 0.266,57.3703125 0.893,56.7104167 C1.52,56.0505208 2.774,56.0505208 3.401,56.7104167 L17.613,71.6680556 C18.24,72.3279514 18.24,73.6477431 17.613,74.3076389 C17.195,74.5276042 16.777,74.7475694 16.359,74.7475694 Z" id="Shape" fill="#3C3C3C" fill-rule="nonzero"></path>
                                        <path d="M2.147,134.138194 C1.729,134.138194 1.311,133.918229 0.893,133.698264 C0.266,133.038368 0.266,131.718576 0.893,131.058681 L15.105,116.101042 C15.732,115.441146 16.986,115.441146 17.613,116.101042 C18.24,116.760938 18.24,118.080729 17.613,118.740625 L3.401,133.698264 C2.983,134.138194 2.565,134.138194 2.147,134.138194 Z" id="Shape" fill="#3C3C3C" fill-rule="nonzero"></path>
                                        <path d="M16.359,134.138194 C15.941,134.138194 15.523,133.918229 15.105,133.698264 L0.893,118.740625 C0.266,118.080729 0.266,116.760938 0.893,116.101042 C1.52,115.441146 2.774,115.441146 3.401,116.101042 L17.613,131.058681 C18.24,131.718576 18.24,133.038368 17.613,133.698264 C17.195,134.138194 16.777,134.138194 16.359,134.138194 Z" id="Shape" fill="#3C3C3C" fill-rule="nonzero"></path>
                                        <path d="M2.147,491.581771 C1.729,491.581771 1.311,491.361806 0.893,491.14184 C0.266,490.481944 0.266,489.162153 0.893,488.502257 L15.105,473.544618 C15.732,472.884722 16.986,472.884722 17.613,473.544618 C18.24,474.204514 18.24,475.524306 17.613,476.184201 L3.401,491.14184 C2.983,491.361806 2.565,491.581771 2.147,491.581771 Z" id="Shape" fill="#3C3C3C" fill-rule="nonzero"></path>
                                        <path d="M16.359,491.581771 C15.941,491.581771 15.523,491.361806 15.105,491.14184 L0.893,476.184201 C0.266,475.524306 0.266,474.204514 0.893,473.544618 C1.52,472.884722 2.774,472.884722 3.401,473.544618 L17.613,488.502257 C18.24,489.162153 18.24,490.481944 17.613,491.14184 C17.195,491.361806 16.777,491.581771 16.359,491.581771 Z" id="Shape" fill="#3C3C3C" fill-rule="nonzero"></path>
                                        <path d="M16.359,253.359375 L2.147,253.359375 C1.102,253.359375 0.475,252.479514 0.475,251.599653 L0.475,236.642014 C0.475,235.542187 1.311,234.882292 2.147,234.882292 L16.359,234.882292 C17.404,234.882292 18.031,235.762153 18.031,236.642014 L18.031,251.599653 C18.031,252.479514 17.195,253.359375 16.359,253.359375 Z M3.819,249.619965 L14.478,249.619965 L14.478,238.401736 L3.819,238.401736 L3.819,249.619965 Z" id="Shape" fill="#3C3C3C" fill-rule="nonzero"></path>
                                        <path d="M16.359,640.498264 L2.147,640.498264 C1.102,640.498264 0.475,639.618403 0.475,638.738542 L0.475,623.780903 C0.475,622.681076 1.311,622.021181 2.147,622.021181 L16.359,622.021181 C17.404,622.021181 18.031,622.901042 18.031,623.780903 L18.031,638.738542 C18.031,639.618403 17.195,640.498264 16.359,640.498264 Z M3.819,636.758854 L14.478,636.758854 L14.478,625.540625 L3.819,625.540625 L3.819,636.758854 Z" id="Shape" fill="#3C3C3C" fill-rule="nonzero"></path>
                                        <path d="M16.359,89.4852431 L2.147,89.4852431 C1.102,89.4852431 0.475,88.6053819 0.475,87.7255208 C0.475,86.8456597 1.311,85.9657986 2.147,85.9657986 L16.359,85.9657986 C17.404,85.9657986 18.031,86.8456597 18.031,87.7255208 C18.031,88.6053819 17.195,89.4852431 16.359,89.4852431 Z" id="Shape" fill="#3C3C3C" fill-rule="nonzero"></path>
                                        <path d="M16.359,96.9640625 L2.147,96.9640625 C1.102,96.9640625 0.475,96.0842014 0.475,95.2043403 C0.475,94.3244792 1.311,93.4446181 2.147,93.4446181 L16.359,93.4446181 C17.404,93.4446181 18.031,94.3244792 18.031,95.2043403 C18.031,96.0842014 17.195,96.9640625 16.359,96.9640625 Z" id="Shape" fill="#3C3C3C" fill-rule="nonzero"></path>
                                        <path d="M16.359,104.442882 L2.147,104.442882 C1.102,104.442882 0.475,103.563021 0.475,102.68316 C0.475,101.803299 1.311,100.923438 2.147,100.923438 L16.359,100.923438 C17.404,100.923438 18.031,101.803299 18.031,102.68316 C18.031,103.563021 17.195,104.442882 16.359,104.442882 Z" id="Shape" fill="#3C3C3C" fill-rule="nonzero"></path>
                                        <path d="M16.359,268.097049 L2.147,268.097049 C1.102,268.097049 0.475,267.217187 0.475,266.337326 C0.475,265.457465 1.311,264.577604 2.147,264.577604 L16.359,264.577604 C17.404,264.577604 18.031,265.457465 18.031,266.337326 C18.031,267.217187 17.195,268.097049 16.359,268.097049 Z" id="Shape" fill="#3C3C3C" fill-rule="nonzero"></path>
                                        <path d="M16.359,275.575868 L2.147,275.575868 C1.102,275.575868 0.475,274.696007 0.475,273.816146 C0.475,272.936285 1.311,272.056424 2.147,272.056424 L16.359,272.056424 C17.404,272.056424 18.031,272.936285 18.031,273.816146 C18.031,274.696007 17.195,275.575868 16.359,275.575868 Z" id="Shape" fill="#3C3C3C" fill-rule="nonzero"></path>
                                        <path d="M16.359,283.054688 L2.147,283.054688 C1.102,283.054688 0.475,282.174826 0.475,281.294965 C0.475,280.415104 1.311,279.535243 2.147,279.535243 L16.359,279.535243 C17.404,279.535243 18.031,280.415104 18.031,281.294965 C18.031,282.174826 17.195,283.054688 16.359,283.054688 Z" id="Shape" fill="#3C3C3C" fill-rule="nonzero"></path>
                                        <path d="M16.359,446.928819 L2.147,446.928819 C1.102,446.928819 0.475,446.048958 0.475,445.169097 C0.475,444.289236 1.311,443.409375 2.147,443.409375 L16.359,443.409375 C17.404,443.409375 18.031,444.289236 18.031,445.169097 C18.031,446.048958 17.195,446.928819 16.359,446.928819 Z" id="Shape" fill="#3C3C3C" fill-rule="nonzero"></path>
                                        <path d="M16.359,454.187674 L2.147,454.187674 C1.102,454.187674 0.475,453.307812 0.475,452.427951 C0.475,451.54809 1.311,450.668229 2.147,450.668229 L16.359,450.668229 C17.404,450.668229 18.031,451.54809 18.031,452.427951 C18.031,453.307812 17.195,454.187674 16.359,454.187674 Z" id="Shape" fill="#3C3C3C" fill-rule="nonzero"></path>
                                        <path d="M16.359,461.666493 L2.147,461.666493 C1.102,461.666493 0.475,460.786632 0.475,459.906771 C0.475,459.02691 1.311,458.147049 2.147,458.147049 L16.359,458.147049 C17.404,458.147049 18.031,459.02691 18.031,459.906771 C18.031,460.786632 17.195,461.666493 16.359,461.666493 Z" id="Shape" fill="#3C3C3C" fill-rule="nonzero"></path>
                                        <path d="M16.359,774.457118 L2.147,774.457118 C1.102,774.457118 0.475,773.577257 0.475,772.697396 C0.475,771.817535 1.311,770.937674 2.147,770.937674 L16.359,770.937674 C17.404,770.937674 18.031,771.817535 18.031,772.697396 C18.031,773.577257 17.195,774.457118 16.359,774.457118 Z" id="Shape" fill="#3C3C3C" fill-rule="nonzero"></path>
                                        <path d="M16.359,781.715972 L2.147,781.715972 C1.102,781.715972 0.475,780.836111 0.475,779.95625 C0.475,779.076389 1.311,778.196528 2.147,778.196528 L16.359,778.196528 C17.404,778.196528 18.031,779.076389 18.031,779.95625 C18.031,780.836111 17.195,781.715972 16.359,781.715972 Z" id="Shape" fill="#3C3C3C" fill-rule="nonzero"></path>
                                        <path d="M16.359,789.194792 L2.147,789.194792 C1.102,789.194792 0.475,788.314931 0.475,787.435069 C0.475,786.555208 1.311,785.675347 2.147,785.675347 L16.359,785.675347 C17.404,785.675347 18.031,786.555208 18.031,787.435069 C18.031,788.314931 17.195,789.194792 16.359,789.194792 Z" id="Shape" fill="#3C3C3C" fill-rule="nonzero"></path>
                                        <path d="M16.359,804.152431 L2.147,804.152431 C1.102,804.152431 0.475,803.272569 0.475,802.392708 C0.475,801.512847 1.311,800.632986 2.147,800.632986 L16.359,800.632986 C17.404,800.632986 18.031,801.512847 18.031,802.392708 C18.031,803.272569 17.195,804.152431 16.359,804.152431 Z" id="Shape" fill="#3C3C3C" fill-rule="nonzero"></path>
                                        <path d="M16.359,811.63125 L2.147,811.63125 C1.102,811.63125 0.475,810.751389 0.475,809.871528 C0.475,808.991667 1.311,808.111806 2.147,808.111806 L16.359,808.111806 C17.404,808.111806 18.031,808.991667 18.031,809.871528 C18.031,810.751389 17.195,811.63125 16.359,811.63125 Z" id="Shape" fill="#3C3C3C" fill-rule="nonzero"></path>
                                        <path d="M16.359,819.110069 L2.147,819.110069 C1.102,819.110069 0.475,818.230208 0.475,817.350347 C0.475,816.470486 1.311,815.590625 2.147,815.590625 L16.359,815.590625 C17.404,815.590625 18.031,816.470486 18.031,817.350347 C18.031,818.230208 17.195,819.110069 16.359,819.110069 Z" id="Shape" fill="#3C3C3C" fill-rule="nonzero"></path>
                                        <path d="M16.359,1161.37604 L2.147,1161.37604 C1.102,1161.37604 0.475,1160.49618 0.475,1159.61632 C0.475,1158.73646 1.311,1157.8566 2.147,1157.8566 L16.359,1157.8566 C17.404,1157.8566 18.031,1158.73646 18.031,1159.61632 C18.031,1160.49618 17.195,1161.37604 16.359,1161.37604 Z" id="Shape" fill="#3C3C3C" fill-rule="nonzero"></path>
                                        <path d="M16.359,1168.85486 L2.147,1168.85486 C1.102,1168.85486 0.475,1167.975 0.475,1167.09514 C0.475,1166.21528 1.311,1165.33542 2.147,1165.33542 L16.359,1165.33542 C17.404,1165.33542 18.031,1166.21528 18.031,1167.09514 C18.031,1167.975 17.195,1168.85486 16.359,1168.85486 Z" id="Shape" fill="#3C3C3C" fill-rule="nonzero"></path>
                                        <path d="M16.359,1176.33368 L2.147,1176.33368 C1.102,1176.33368 0.475,1175.45382 0.475,1174.57396 C0.475,1173.6941 1.311,1172.81424 2.147,1172.81424 L16.359,1172.81424 C17.404,1172.81424 18.031,1173.6941 18.031,1174.57396 C18.031,1175.45382 17.195,1176.33368 16.359,1176.33368 Z" id="Shape" fill="#3C3C3C" fill-rule="nonzero"></path>
                                        <path d="M16.359,298.012326 L2.147,298.012326 C1.102,298.012326 0.475,297.132465 0.475,296.252604 C0.475,295.372743 1.311,294.492882 2.147,294.492882 L16.359,294.492882 C17.404,294.492882 18.031,295.372743 18.031,296.252604 C18.031,297.132465 17.195,298.012326 16.359,298.012326 Z" id="Shape" fill="#3C3C3C" fill-rule="nonzero"></path>
                                        <path d="M16.359,305.491146 L2.147,305.491146 C1.102,305.491146 0.475,304.611285 0.475,303.731424 C0.475,302.851562 1.311,301.971701 2.147,301.971701 L16.359,301.971701 C17.404,301.971701 18.031,302.851562 18.031,303.731424 C18.031,304.611285 17.195,305.491146 16.359,305.491146 Z" id="Shape" fill="#3C3C3C" fill-rule="nonzero"></path>
                                        <path d="M16.359,312.969965 L2.147,312.969965 C1.102,312.969965 0.475,312.090104 0.475,311.210243 C0.475,310.330382 1.311,309.450521 2.147,309.450521 L16.359,309.450521 C17.404,309.450521 18.031,310.330382 18.031,311.210243 C18.031,312.090104 17.195,312.969965 16.359,312.969965 Z" id="Shape" fill="#3C3C3C" fill-rule="nonzero"></path>
                                        <path d="M2.147,848.805382 C1.729,848.805382 1.311,848.585417 0.893,848.365451 C0.266,847.705556 0.266,846.385764 0.893,845.725868 L15.105,830.768229 C15.732,830.108333 16.986,830.108333 17.613,830.768229 C18.24,831.428125 18.24,832.747917 17.613,833.407812 L3.401,848.365451 C2.983,848.585417 2.565,848.805382 2.147,848.805382 Z" id="Shape" fill="#3C3C3C" fill-rule="nonzero"></path>
                                        <path d="M16.359,848.805382 C15.941,848.805382 15.523,848.585417 15.105,848.365451 L0.893,833.407812 C0.266,832.747917 0.266,831.428125 0.893,830.768229 C1.52,830.108333 2.774,830.108333 3.401,830.768229 L17.613,845.725868 C18.24,846.385764 18.24,847.705556 17.613,848.365451 C17.195,848.585417 16.777,848.805382 16.359,848.805382 Z" id="Shape" fill="#3C3C3C" fill-rule="nonzero"></path>
                                        <path d="M2.147,1146.63837 C1.729,1146.63837 1.311,1146.4184 0.893,1146.19844 C0.266,1145.53854 0.266,1144.21875 0.893,1143.55885 L15.105,1128.60122 C15.732,1127.94132 16.986,1127.94132 17.613,1128.60122 C18.24,1129.26111 18.24,1130.5809 17.613,1131.2408 L3.401,1146.19844 C2.983,1146.4184 2.565,1146.63837 2.147,1146.63837 Z" id="Shape" fill="#3C3C3C" fill-rule="nonzero"></path>
                                        <path d="M16.359,1146.63837 C15.941,1146.63837 15.523,1146.4184 15.105,1146.19844 L0.893,1131.2408 C0.266,1130.5809 0.266,1129.26111 0.893,1128.60122 C1.52,1127.94132 2.774,1127.94132 3.401,1128.60122 L17.613,1143.55885 C18.24,1144.21875 18.24,1145.53854 17.613,1146.19844 C17.195,1146.4184 16.777,1146.63837 16.359,1146.63837 Z" id="Shape" fill="#3C3C3C" fill-rule="nonzero"></path>
                                        <path d="M16.359,968.026562 L2.147,968.026562 C1.102,968.026562 0.475,967.146701 0.475,966.26684 L0.475,951.309201 C0.475,950.209375 1.311,949.549479 2.147,949.549479 L16.359,949.549479 C17.404,949.549479 18.031,950.42934 18.031,951.309201 L18.031,966.26684 C18.031,967.146701 17.195,968.026562 16.359,968.026562 Z M3.819,964.287153 L14.478,964.287153 L14.478,953.068924 L3.819,953.068924 L3.819,964.287153 Z" id="Shape" fill="#3C3C3C" fill-rule="nonzero"></path>
                                        <path d="M16.359,908.415972 L2.147,908.415972 C1.102,908.415972 0.475,907.536111 0.475,906.65625 L0.475,891.698611 C0.475,890.598785 1.311,889.938889 2.147,889.938889 L16.359,889.938889 C17.404,889.938889 18.031,890.81875 18.031,891.698611 L18.031,906.65625 C18.031,907.536111 17.195,908.415972 16.359,908.415972 Z M3.819,904.676563 L14.478,904.676563 L14.478,893.458333 L3.819,893.458333 L3.819,904.676563 Z" id="Shape" fill="#3C3C3C" fill-rule="nonzero"></path>
                                        <path d="M16.359,1027.41719 L2.147,1027.41719 C1.102,1027.41719 0.475,1026.53733 0.475,1025.65747 L0.475,1010.69983 C0.475,1009.6 1.311,1008.9401 2.147,1008.9401 L16.359,1008.9401 C17.404,1008.9401 18.031,1009.81997 18.031,1010.69983 L18.031,1025.65747 C18.031,1026.75729 17.195,1027.41719 16.359,1027.41719 Z M3.819,1023.67778 L14.478,1023.67778 L14.478,1012.45955 L3.819,1012.45955 L3.819,1023.67778 Z" id="Shape" fill="#3C3C3C" fill-rule="nonzero"></path>
                                        <path d="M16.359,1087.02778 L2.147,1087.02778 C1.102,1087.02778 0.475,1086.14792 0.475,1085.26806 L0.475,1070.31042 C0.475,1069.21059 1.311,1068.55069 2.147,1068.55069 L16.359,1068.55069 C17.404,1068.55069 18.031,1069.43056 18.031,1070.31042 L18.031,1085.26806 C18.031,1086.14792 17.195,1087.02778 16.359,1087.02778 Z M3.819,1083.28837 L14.478,1083.28837 L14.478,1072.07014 L3.819,1072.07014 L3.819,1083.28837 Z" id="Shape" fill="#3C3C3C" fill-rule="nonzero"></path>
                                        <path d="M2.147,431.971181 C1.729,431.971181 1.311,431.751215 0.893,431.53125 C0.266,430.871354 0.266,429.551562 0.893,428.891667 L15.105,413.934028 C15.732,413.274132 16.986,413.274132 17.613,413.934028 C18.24,414.593924 18.24,415.913715 17.613,416.573611 L3.401,431.53125 C2.983,431.751215 2.565,431.971181 2.147,431.971181 Z" id="Shape" fill="#3C3C3C" fill-rule="nonzero"></path>
                                        <path d="M16.15,431.971181 C15.732,431.971181 15.314,431.751215 14.896,431.53125 L0.684,416.573611 C0.057,415.913715 0.057,414.593924 0.684,413.934028 C1.311,413.274132 2.565,413.274132 3.192,413.934028 L17.404,428.891667 C18.031,429.551563 18.031,430.871354 17.404,431.53125 C17.195,431.751215 16.777,431.971181 16.15,431.971181 Z" id="Shape" fill="#3C3C3C" fill-rule="nonzero"></path>
                                    </g>
                                </g>
                            </g>
                        </g>
                    </g>
                </g>
            </g>
        </g>
    </g>
</svg>