<?xml version="1.0" encoding="UTF-8" standalone="no"?>
<svg width="25px" height="25px" viewBox="0 0 25 25" version="1.1" xmlns="http://www.w3.org/2000/svg" xmlns:xlink="http://www.w3.org/1999/xlink">
    <!-- Generator: Sketch 49.3 (51167) - http://www.bohemiancoding.com/sketch -->
    <title>Shape</title>
    <desc>Created with Sketch.</desc>
    <defs></defs>
    <g id="Page-1" stroke="none" stroke-width="1" fill="none" fill-rule="evenodd">
        <g id="Homepage" transform="translate(-1023.000000, -336.000000)" fill="#FFFFFF" fill-rule="nonzero">
            <g id="Workshop" transform="translate(40.000000, 77.000000)">
                <g id="Main-block">
                    <g id="link" transform="translate(983.000000, 259.000000)">
                        <path d="M9.155625,19.8347571 L7.890625,21.0910071 C6.7940625,22.1778821 5.010625,22.1788196 3.9146875,21.0910071 C3.3878125,20.5681946 3.0984375,19.8738196 3.0984375,19.1356946 C3.0984375,18.3975696 3.388125,17.7028821 3.914375,17.1800696 L8.570625,12.5603821 C9.535625,11.6035071 11.3509375,10.1944446 12.6740625,11.5066321 C13.28125,12.1097571 14.261875,12.1056946 14.8646875,11.4988196 C15.4678125,10.8919446 15.4640625,9.91100713 14.856875,9.30850713 C12.6078125,7.07663213 9.28375,7.48913213 6.38875,10.3616321 L1.7321875,14.9816321 C0.615,16.0906946 0,17.5656946 0,19.1356946 C0,20.7056946 0.615,22.1803821 1.7325,23.2894446 C2.8821875,24.4300696 4.391875,25.0000696 5.9021875,25.0000696 C7.4128125,25.0000696 8.923125,24.4300696 10.0734375,23.2888196 L11.339375,22.0322571 C11.94625,21.4297571 11.9496875,20.4491321 11.3465625,19.8419446 C10.744375,19.2353821 9.7628125,19.2319446 9.155625,19.8347571 Z M23.266875,1.88881963 C20.85125,-0.508055366 17.47375,-0.638055366 15.2375,1.58069463 L13.660625,3.14600713 C13.0534375,3.74881963 13.0496875,4.72913213 13.6528125,5.33631963 C14.2559375,5.94350713 15.2365625,5.94694463 15.84375,5.34413213 L17.42,3.77975713 C18.5784375,2.62944463 20.0953125,3.10631963 21.0846875,4.08788213 C21.6121875,4.61069463 21.901875,5.30538213 21.901875,6.04350713 C21.901875,6.78194463 21.611875,7.47663213 21.0853125,7.99944463 L16.1175,12.9275696 C13.8459375,15.1813196 12.7803125,14.1235071 12.325625,13.6722571 C11.7184375,13.0694446 10.738125,13.0731946 10.135,13.6800696 C9.531875,14.2869446 9.535625,15.2678821 10.1428125,15.8703821 C11.185625,16.9053821 12.3759375,17.4185071 13.62375,17.4185071 C15.1515625,17.4185071 16.7653125,16.6491321 18.2996875,15.1256946 L23.2675,10.1975696 C24.384375,9.08850713 25,7.61319463 25,6.04319463 C25,4.47381963 24.384375,2.99850713 23.266875,1.88881963 Z" id="Shape"></path>
                    </g>
                </g>
            </g>
        </g>
    </g>
</svg>