<?xml version="1.0" encoding="UTF-8" standalone="no"?>
<svg width="25px" height="21px" viewBox="0 0 25 21" version="1.1" xmlns="http://www.w3.org/2000/svg" xmlns:xlink="http://www.w3.org/1999/xlink">
    <!-- Generator: Sketch 49.3 (51167) - http://www.bohemiancoding.com/sketch -->
    <title>Shape</title>
    <desc>Created with Sketch.</desc>
    <defs></defs>
    <g id="Page-1" stroke="none" stroke-width="1" fill="none" fill-rule="evenodd">
        <g id="Homepage" transform="translate(-950.000000, -340.000000)" fill="#FFFFFF" fill-rule="nonzero">
            <g id="Workshop" transform="translate(40.000000, 77.000000)">
                <g id="Main-block">
                    <g id="twitter" transform="translate(910.000000, 263.000000)">
                        <path d="M25,2.40494895 C24.0809533,2.81347056 23.0918742,3.08903234 22.0540771,3.21235004 C23.1136959,2.57799972 23.9261718,1.5731888 24.3093194,0.374520431 C23.3182104,0.962690051 22.2210381,1.38948095 21.0523111,1.61987699 C20.1170249,0.623185758 18.7838743,0 17.3086292,0 C14.4763819,0 12.1800337,2.29634817 12.1800337,5.12910298 C12.1800337,5.53051986 12.2251994,5.92178714 12.3129935,6.29783001 C8.05015935,6.08367335 4.27044638,4.04208026 1.74065729,0.938838479 C1.29914946,1.69599903 1.04642429,2.57698476 1.04642429,3.51785316 C1.04642429,5.29707894 1.95176908,6.86722287 3.32805554,7.78677709 C2.48766823,7.75988064 1.69650651,7.52897712 1.00481091,7.14481457 C1.00430343,7.16612874 1.00430343,7.18795039 1.00430343,7.20977204 C1.00430343,9.69439539 2.77236466,11.7669448 5.11895337,12.2389014 C4.68861011,12.3556219 4.23543024,12.4185494 3.76753344,12.4185494 C3.43665631,12.4185494 3.11542131,12.3865782 2.80230599,12.326188 C3.45543308,14.3637213 5.34934941,15.847086 7.59342712,15.8881919 C5.8380529,17.2639709 3.62696141,18.084059 1.2235349,18.084059 C0.809938493,18.084059 0.401416885,18.0597 0,18.0119968 C2.27046668,19.4679577 4.96620181,20.3164647 7.86239165,20.3164647 C17.2969571,20.3164647 22.455494,12.5012687 22.455494,5.72336236 C22.455494,5.50108601 22.4509267,5.27931713 22.4412845,5.0590707 C23.4430506,4.33743377 24.3128717,3.43361143 25,2.40494895 Z" id="Shape"></path>
                    </g>
                </g>
            </g>
        </g>
    </g>
</svg>