<svg width="25" height="25" viewBox="0 0 25 25" fill="none" xmlns="http://www.w3.org/2000/svg">
<path fill-rule="evenodd" clip-rule="evenodd" d="M15.2373 1.58074C17.4736 -0.638012 20.8511 -0.508129 23.2671 1.88884C24.3843 2.99846 25 4.4738 25 6.04314C25 7.61321 24.3843 9.08855 23.2676 10.1974L18.2998 15.1257C16.7651 16.6491 15.1514 17.4184 13.624 17.4184C12.376 17.4184 11.1855 16.9052 10.1431 15.8703C9.53564 15.2677 9.53174 14.2868 10.1353 13.6801C10.7383 13.0732 11.7183 13.0693 12.3257 13.6723C12.7803 14.1235 13.8462 15.1813 16.1177 12.9274L21.0854 7.99944C21.6118 7.47649 21.9019 6.78191 21.9019 6.04339C21.9019 5.30535 21.6123 4.61052 21.085 4.08782C20.0952 3.10613 18.5786 2.62932 17.4199 3.77971L15.8438 5.34417C15.2368 5.94695 14.2559 5.94353 13.6528 5.33635C13.0498 4.72918 13.0537 3.74871 13.6606 3.14592L15.2373 1.58074ZM7.89062 21.0912L9.15576 19.8349C9.7627 19.2321 10.7441 19.2355 11.3467 19.8422C11.9497 20.4494 11.9463 21.4299 11.3394 22.0324L10.0732 23.289C8.92334 24.4303 7.4126 25.0002 5.90234 25.0002C4.39209 25.0002 2.88232 24.4303 1.73242 23.2897C0.615234 22.1806 0 20.706 0 19.1359C0 17.5658 0.615234 16.091 1.73242 14.9819L6.38867 10.3617C9.28369 7.48943 12.6079 7.07683 14.8569 9.30877C15.4639 9.9113 15.4678 10.8923 14.8647 11.499C14.2617 12.1059 13.2812 12.11 12.6738 11.5068C11.3511 10.1948 9.53564 11.6037 8.5708 12.5607L3.91455 17.1803C3.38818 17.7031 3.09863 18.3979 3.09863 19.1359C3.09863 19.874 3.3877 20.5685 3.91455 21.0912C5.01074 22.1791 6.79395 22.1782 7.89062 21.0912Z" transform="translate(0 -0.000244141)" fill="#E23336"/>
</svg>
